<?xml version="1.0" encoding="utf-8"?>
<!-- Generator: Adobe Illustrator 21.0.2, SVG Export Plug-In . SVG Version: 6.00 Build 0)  -->
<svg version="1.1" id="Laag_1" xmlns="http://www.w3.org/2000/svg" xmlns:xlink="http://www.w3.org/1999/xlink" x="0px" y="0px"
	 viewBox="0 0 629.4 147.1" style="enable-background:new 0 0 629.4 147.1;" xml:space="preserve">
<style type="text/css">
	.Gebogen_x0020_groen{fill:url(#SVGID_1_);stroke:#FFFFFF;stroke-width:0.25;stroke-miterlimit:1;}
	.st0{fill-rule:evenodd;clip-rule:evenodd;fill:#FFFFFF;}
	.st1{fill-rule:evenodd;clip-rule:evenodd;fill:none;}
	.st2{fill:#FFFFFF;}
	.st3{font-family:'OpenSans-Bold';}
	.st4{font-size:39.5px;}
	.st5{letter-spacing:14;}
</style>
<linearGradient id="SVGID_1_" gradientUnits="userSpaceOnUse" x1="-349.25" y1="249.334" x2="-348.5429" y2="248.6269">
	<stop  offset="0" style="stop-color:#1DA238"/>
	<stop  offset="0.9831" style="stop-color:#24391D"/>
</linearGradient>
<g>
	<polygon class="st0" points="60.7,66.8 60.8,66.8 61,66.8 61.1,66.7 61.2,66.7 61.4,66.6 61.5,66.6 61.6,66.6 61.8,66.5 61.9,66.4 
		62,66.3 62.2,66.2 62.3,66.1 62.4,66 62.6,65.8 62.7,65.7 62.8,65.6 62.9,65.3 62.9,65.2 62.9,65.1 63,64.8 63,64.7 63,64.5 
		63,64.2 62.9,64.1 62.9,63.9 62.8,63.7 62.7,63.5 62.6,63.4 62.5,63.2 62.4,63 62.3,62.9 62.1,62.8 61.9,62.7 61.8,62.6 61.6,62.5 
		61.5,62.4 61.3,62.4 61,62.3 60.9,62.2 60.8,62.2 60.5,62.1 60.3,62.1 60.2,62.1 59.9,62.1 59.7,62.1 59.6,62.1 59.4,62 59.1,62 
		59,62 58.9,62 58.7,62 58.5,62 58.4,62 58.2,62 58,62.1 57.7,62.1 57.6,62.1 57.5,62.1 57.2,62.1 56.9,62.1 56.8,62.1 56.7,62.1 
		56.4,62.2 56.1,62.2 55.9,62.2 55.8,62.2 55.4,62.2 55.1,62.2 55,62.2 54.8,62.2 54.4,62.3 54.1,62.3 53.9,62.3 53.8,62.3 
		53.4,62.3 53,62.3 52.9,62.3 52.7,62.3 52.4,62.4 52.1,62.4 51.8,62.4 51.7,62.4 51.5,62.4 51.2,62.4 50.9,62.4 50.6,62.4 
		50.4,62.4 50.3,62.4 50,62.4 49.6,62.4 49.3,62.4 49.2,62.4 49.1,62.4 48.8,62.3 48.5,62.3 48.2,62.3 48.1,62.3 47.9,62.3 
		47.5,62.3 47.1,62.3 46.9,62.2 46.8,62.2 46.4,62.2 46,62.2 45.9,62.2 45.7,62.2 45.4,62.1 45,62.1 44.9,62.1 44.7,62.1 44.4,62.1 
		44.1,62.1 43.9,62.1 43.8,62.1 43.5,62 43.1,62 43,62 42.9,62 42.6,62.1 42.5,62.1 42.3,62.1 42.1,62.1 41.9,62.2 41.8,62.2 
		41.5,62.3 41.4,62.4 41.3,62.5 41.1,62.7 40.9,62.7 40.8,62.9 40.7,63.1 40.6,63.2 40.5,63.4 40.5,63.6 40.4,63.8 40.4,63.9 
		40.4,64.2 40.4,64.3 40.4,64.5 40.4,64.7 40.4,64.8 40.5,65 40.5,65.2 40.6,65.3 40.6,65.5 40.8,65.7 40.8,65.8 40.9,65.9 
		41.1,66.1 41.2,66.2 41.3,66.3 41.5,66.4 41.6,66.5 41.7,66.5 41.9,66.6 42.1,66.6 42.2,66.7 42.4,66.7 42.5,66.8 42.6,66.8 
		42.8,66.9 42.9,66.9 43,66.9 43.3,66.9 43.4,67 43.5,67 43.7,67 43.8,67 44,67 44.2,67.1 44.3,67.1 44.5,67.1 44.7,67.1 44.8,67.1 
		45,67.2 45.2,67.2 45.3,67.2 45.5,67.2 45.8,67.3 45.9,67.3 46,67.3 46.2,67.4 46.3,67.4 46.4,67.4 46.6,67.5 46.7,67.5 46.8,67.6 
		46.9,67.6 47,67.7 47.1,67.7 47.2,67.8 47.3,67.9 47.4,68 47.5,68 47.5,68.1 47.6,68.3 47.7,68.3 47.7,68.5 47.8,68.5 47.8,68.6 
		47.9,68.7 47.9,68.8 47.9,68.9 47.9,69.1 48,69.2 48,69.3 48,69.4 48,69.5 48,69.7 48,69.7 47.9,69.8 47.9,70 47.9,70.1 47.9,70.1 
		47.8,70.3 47.8,70.4 47.7,70.6 47.5,71.1 47.2,71.9 46.7,73 46.2,74.3 45.6,75.8 45,77.5 44.2,79.3 43.5,81.2 42.7,83.2 41.9,85.2 
		41.1,87.2 40.3,89.2 39.6,91.2 38.8,93 38.2,94.7 37.6,96.2 37,97.5 36.6,98.6 36.3,99.4 36.1,99.9 36,100.1 36,100.2 35.9,100.4 
		35.9,100.5 35.8,100.6 35.8,100.6 35.8,100.6 35.7,100.5 35.6,100.3 35.6,100.2 35.6,100.2 35.5,100.1 35.4,99.9 35.3,99.7 
		35.3,99.6 35.2,99.4 35.1,99.2 35,99.1 34.8,98.6 34.5,97.8 34,96.8 33.4,95.5 32.8,94.1 32.1,92.6 31.4,90.9 30.6,89.2 29.8,87.5 
		29,85.7 28.2,84 27.5,82.3 26.8,80.8 26.1,79.4 25.6,78.1 25.1,77.1 24.8,76.4 24.6,75.9 24.5,75.7 24.4,75.5 24.2,75.2 24.1,74.8 
		24,74.7 23.9,74.5 23.8,74.2 23.6,73.9 23.6,73.7 23.5,73.6 23.4,73.3 23.2,73 23.2,72.8 23.1,72.7 23,72.4 22.9,72.2 22.8,72 
		22.7,71.9 22.6,71.6 22.5,71.4 22.5,71.3 22.4,71.2 22.3,70.9 22.2,70.7 22.2,70.6 22.1,70.4 22,70.2 22,70 21.9,69.9 21.8,69.6 
		21.8,69.4 21.8,69.3 21.7,69.1 21.7,68.9 21.7,68.9 21.6,68.8 21.6,68.7 21.6,68.6 21.6,68.5 21.6,68.3 21.6,68.2 21.6,68.1 
		21.6,67.9 21.6,67.8 21.6,67.7 21.6,67.7 21.7,67.6 21.7,67.6 21.7,67.5 21.8,67.5 21.8,67.5 21.9,67.4 22,67.4 22.1,67.3 
		22.2,67.3 22.2,67.3 22.3,67.2 22.5,67.2 22.6,67.2 22.7,67.2 22.9,67.1 23,67.1 23.1,67.1 23.3,67 23.5,67 23.6,67 23.8,67 24,67 
		24.1,66.9 24.4,66.9 24.5,66.9 24.6,66.9 24.9,66.9 25,66.9 25.1,66.9 25.3,66.9 25.4,66.9 25.6,66.9 25.8,66.8 25.9,66.8 26,66.8 
		26.2,66.8 26.3,66.8 26.4,66.8 26.6,66.7 26.7,66.7 26.8,66.7 27,66.6 27.1,66.6 27.3,66.5 27.5,66.4 27.6,66.3 27.7,66.3 
		27.9,66.1 28,66 28.1,65.9 28.2,65.6 28.3,65.5 28.3,65.4 28.4,65.1 28.4,65 28.4,64.9 28.5,64.6 28.5,64.5 28.5,64.4 28.4,64.1 
		28.4,64 28.4,63.9 28.3,63.6 28.3,63.5 28.2,63.3 28.1,63.1 28,63 27.9,62.9 27.6,62.7 27.5,62.6 27.4,62.6 27.2,62.5 27.1,62.4 
		26.9,62.4 26.7,62.3 26.6,62.3 26.4,62.3 26.2,62.2 26.1,62.2 26,62.2 25.6,62.2 25.2,62.2 24.9,62.2 24.8,62.2 24.6,62.2 
		24.3,62.2 24,62.2 23.9,62.2 23.7,62.3 23.4,62.3 23.1,62.3 22.9,62.3 22.8,62.3 22.4,62.3 22.1,62.3 21.9,62.3 21.7,62.3 
		21.3,62.4 21,62.4 20.8,62.4 20.7,62.4 20.4,62.4 20,62.4 19.7,62.5 19.6,62.5 19.5,62.5 19.2,62.5 18.8,62.5 18.5,62.5 18.4,62.5 
		18.2,62.5 17.9,62.5 17.5,62.6 17.2,62.6 17.1,62.6 16.9,62.6 16.6,62.6 16.2,62.6 15.8,62.6 15.7,62.6 15.5,62.6 15.1,62.6 
		14.7,62.6 14.3,62.6 14.2,62.6 14,62.6 13.6,62.6 13.1,62.6 12.5,62.6 11.9,62.6 11.5,62.6 11.3,62.6 11.2,62.6 10.9,62.6 
		10.5,62.6 10.2,62.6 10.1,62.6 10,62.6 9.7,62.6 9.3,62.6 9.1,62.6 8.9,62.6 8.8,62.5 8.4,62.5 8,62.5 7.8,62.5 7.7,62.5 7.3,62.5 
		7,62.5 6.9,62.4 6.7,62.4 6.4,62.4 6.1,62.4 5.9,62.4 5.8,62.4 5.5,62.4 5.2,62.3 5.1,62.3 5,62.3 4.7,62.3 4.4,62.3 4.3,62.3 
		4.2,62.3 4,62.3 3.7,62.3 3.6,62.3 3.4,62.3 3.1,62.3 3,62.3 2.8,62.3 2.6,62.4 2.4,62.4 2.3,62.4 2,62.4 1.9,62.5 1.7,62.5 
		1.5,62.6 1.4,62.6 1.2,62.7 1,62.8 0.9,62.9 0.8,63 0.6,63.1 0.4,63.2 0.4,63.4 0.2,63.6 0.1,63.8 0.1,63.9 0,64.2 0,64.4 0,64.5 
		0,64.8 0.1,64.9 0.1,65.1 0.1,65.3 0.2,65.4 0.2,65.6 0.4,65.8 0.4,65.9 0.5,66 0.7,66.2 0.8,66.3 0.9,66.4 1,66.5 1.1,66.6 
		1.3,66.6 1.4,66.7 1.6,66.8 1.7,66.8 1.9,66.9 2,66.9 2.1,67 2.3,67 2.4,67 2.5,67 2.7,67.1 2.8,67.1 2.9,67.1 3.1,67.1 3.2,67.1 
		3.3,67.1 3.5,67.2 3.6,67.2 3.7,67.2 3.9,67.2 4.1,67.2 4.2,67.2 4.4,67.3 4.5,67.3 4.6,67.3 4.8,67.3 4.9,67.3 4.9,67.3 5,67.3 
		5.3,67.4 5.4,67.4 5.5,67.4 5.5,67.4 5.6,67.5 5.7,67.5 5.8,67.5 5.9,67.6 6,67.7 6.1,67.7 6.3,67.9 6.4,67.9 6.5,68 6.6,68.2 
		6.7,68.2 6.8,68.3 6.9,68.5 7,68.6 7.1,68.7 7.2,68.9 7.3,69 7.4,69.1 7.5,69.3 7.6,69.4 7.7,69.5 7.8,69.7 7.9,69.9 7.9,70 
		8,70.1 8.1,70.3 8.2,70.5 8.2,70.6 8.5,71.2 8.9,72 9.4,73.2 10,74.6 10.8,76.3 11.6,78.2 12.5,80.3 13.5,82.5 14.6,84.8 
		15.6,87.3 16.8,89.8 17.9,92.4 19,94.9 20.2,97.5 21.3,100 22.4,102.5 23.4,104.8 24.4,107.1 25.3,109.1 26.2,111 26.9,112.7 
		27.6,114.1 28.1,115.3 28.5,116.1 28.7,116.7 28.8,116.9 28.8,117 29,117.3 29,117.4 29.1,117.6 29.2,117.8 29.3,118 29.3,118.1 
		29.5,118.4 29.5,118.5 29.6,118.6 29.7,118.8 29.8,118.9 29.9,119 30,119.2 30.1,119.3 30.2,119.4 30.3,119.6 30.4,119.7 
		30.5,119.8 30.7,120 30.9,120 31,120.1 31.2,120.2 31.4,120.2 31.5,120.3 31.8,120.3 32,120.3 32.1,120.3 32.4,120.2 32.6,120.2 
		32.7,120.1 33,120 33.1,119.9 33.2,119.9 33.4,119.7 33.5,119.6 33.6,119.5 33.8,119.3 33.9,119.2 34,119 34.1,118.8 34.2,118.7 
		34.2,118.6 34.4,118.3 34.5,118.2 34.5,118.1 34.6,117.9 34.7,117.7 34.7,117.6 34.8,117.4 35.1,116.8 35.5,116 36,114.8 
		36.6,113.3 37.4,111.6 38.2,109.7 39.1,107.6 40.1,105.4 41.2,103 42.3,100.5 43.4,97.9 44.6,95.3 45.7,92.7 46.9,90.1 48,87.5 
		49.1,85.1 50.2,82.7 51.2,80.4 52.1,78.3 52.9,76.4 53.7,74.7 54.3,73.2 54.8,72.1 55.2,71.2 55.5,70.6 55.5,70.4 55.6,70.3 
		55.7,70.1 55.8,70 55.8,69.9 55.9,69.7 55.9,69.6 56,69.5 56.1,69.3 56.1,69.2 56.2,69.1 56.3,68.9 56.4,68.8 56.4,68.7 56.5,68.6 
		56.6,68.5 56.6,68.4 56.7,68.3 56.8,68.2 56.8,68.2 56.9,68.1 57,68 57.1,68 57.2,67.9 57.2,67.8 57.3,67.8 57.5,67.7 57.5,67.6 
		57.6,67.6 57.8,67.5 57.8,67.5 57.9,67.5 58.1,67.4 58.2,67.4 58.4,67.3 58.7,67.3 58.8,67.2 58.9,67.2 59.2,67.2 59.3,67.1 
		59.4,67.1 59.7,67 59.8,67 59.9,67 60.1,67 60.3,66.9 60.4,66.9 60.6,66.9 	"/>
	<path class="st0" d="M120.6,89.5l0-0.5l0-0.4l0-0.2l0-0.2l0-0.4l0-0.5l0-0.4l0-0.2l0-0.2l-0.1-0.4l-0.1-0.5l-0.1-0.4l0-0.2l0-0.2
		l-0.1-0.4l-0.1-0.4L120,84l0-0.2l0-0.2l-0.1-0.4l-0.1-0.4l-0.1-0.4l0-0.2l0-0.2l-0.1-0.4l-0.1-0.4l-0.1-0.4l0-0.2l0-0.1l-0.1-0.4
		l-0.1-0.4l-0.1-0.4l-0.1-0.1l-0.1-0.1l-0.1-0.3l-0.2-0.4l-0.1-0.3l-0.1-0.1l-0.1-0.1l-0.2-0.3l-0.2-0.4l-0.2-0.3l-0.1-0.1l-0.1-0.1
		l-0.2-0.3l-0.2-0.4l-0.2-0.3l-0.1-0.1l-0.1-0.1l-0.2-0.3l-0.2-0.4l-0.2-0.3l-0.1-0.1l-0.1-0.1l-0.2-0.3l-0.2-0.4l-0.2-0.3l-0.1-0.1
		l-0.1-0.1l-0.2-0.3l-0.3-0.3l-0.2-0.3l-0.1-0.1l-0.1-0.1l-0.2-0.3l-0.3-0.3l-0.2-0.3l-0.1-0.1l-0.1-0.1l-0.3-0.3l-0.3-0.3l-0.3-0.3
		l-0.1-0.1l-0.1-0.1l-0.3-0.3l-0.3-0.3l-0.3-0.3l-0.1-0.1l-0.1-0.1l-0.3-0.2l-0.4-0.3l-0.3-0.2l-0.1-0.1l-0.1-0.1l-0.3-0.2l-0.4-0.3
		l-0.3-0.2l-0.1-0.1l-0.1-0.1l-0.3-0.2l-0.4-0.3l-0.3-0.2l-0.1-0.1l-0.1-0.1l-0.3-0.2l-0.4-0.2l-0.3-0.2l-0.1-0.1l-0.1-0.1l-0.3-0.2
		l-0.4-0.2l-0.3-0.2l-0.1-0.1l-0.1-0.1l-0.3-0.2l-0.4-0.2l-0.3-0.2l-0.1-0.1l-0.1-0.1l-0.3-0.1l-0.4-0.2l-0.3-0.1l-0.1-0.1l-0.1-0.1
		l-0.4-0.1l-0.4-0.1l-0.4-0.1l-0.1-0.1l-0.2,0l-0.4-0.1l-0.4-0.1L99.4,62l-0.2,0l-0.2,0l-0.4-0.1l-0.4-0.1l-0.4-0.1l-0.2,0l-0.2,0
		l-0.4-0.1l-0.4-0.1l-0.4-0.1l-0.2,0l-0.2,0l-0.4,0l-0.5-0.1l-0.4,0l-0.2,0l-0.2,0l-0.4,0l-0.5,0l-0.4,0l-0.2,0l-0.2,0l-0.4,0
		l-0.5,0l-0.4,0l-0.2,0l-0.2,0l-0.4,0l-0.5,0l-0.4,0l-0.2,0l-0.2,0l-0.4,0l-0.5,0l-0.4,0l-0.2,0l-0.2,0l-0.4,0l-0.5,0l-0.4,0l-0.2,0
		l-0.2,0l-0.4,0l-0.5,0.1l-0.4,0l-0.2,0l-0.2,0l-0.4,0.1l-0.4,0.1l-0.4,0.1l-0.2,0l-0.2,0l-0.4,0.1L82.6,62l-0.4,0.1l-0.2,0l-0.1,0
		l-0.4,0.1l-0.4,0.1l-0.3,0.1l-0.1,0l-0.1,0l-0.3,0.1l-0.4,0.1l-0.3,0.1l-0.1,0L79.2,63l-0.3,0.1l-0.4,0.2l-0.3,0.1L78,63.5
		l-0.1,0.1l-0.3,0.2l-0.4,0.2L76.8,64l-0.1,0.1l-0.1,0.1l-0.3,0.2l-0.4,0.2l-0.3,0.2l-0.1,0.1l-0.1,0.1L74.9,65l-0.4,0.2l-0.3,0.2
		l-0.1,0.1L74,65.6l-0.3,0.2L73.3,66L73,66.2l-0.1,0.1l-0.1,0.1l-0.3,0.2l-0.4,0.3l-0.3,0.2l-0.1,0.1l-0.1,0.1l-0.3,0.2l-0.3,0.3
		l-0.3,0.2l-0.1,0.1l-0.1,0.1l-0.3,0.3l-0.3,0.3l-0.3,0.3l-0.1,0.1l-0.1,0.1L69,69.7L68.6,70l-0.3,0.3l-0.1,0.1l-0.1,0.1l-0.3,0.3
		l-0.3,0.4l-0.3,0.3l-0.1,0.1l-0.1,0.1l-0.2,0.3l-0.3,0.4l-0.2,0.3l-0.1,0.1L66.1,73l-0.2,0.3l-0.3,0.4L65.4,74l-0.1,0.1l-0.1,0.1
		L65,74.6L64.8,75l-0.2,0.3l-0.1,0.1l-0.1,0.1L64.2,76L64,76.4l-0.2,0.3l-0.1,0.1L63.6,77l-0.2,0.4l-0.2,0.4l-0.2,0.4L63,78.3
		L63,78.4l-0.1,0.4l-0.2,0.4l-0.1,0.4l-0.1,0.1l-0.1,0.2l-0.1,0.4l-0.2,0.4L61.9,81l-0.1,0.2l0,0.2l-0.1,0.4l-0.1,0.4l-0.1,0.4
		l0,0.2l0,0.2l-0.1,0.4l-0.1,0.5l-0.1,0.4l0,0.2l0,0.2L61,84.8l-0.1,0.5l-0.1,0.4l0,0.2l0,0.2l-0.1,0.4l-0.1,0.5l-0.1,0.4l0,0.2
		l0,0.2l0,0.4l0,0.5l0,0.4l0,0.2l0,0.2l0,0.4l0,0.5l0,0.4l0,0.2l0,0.2l0,0.4l0,0.5l0,0.4l0,0.2l0,0.2l0,0.4l0,0.5l0,0.4l0,0.2l0,0.2
		l0,0.4l0,0.5l0,0.4l0,0.2l0,0.2l0.1,0.4l0.1,0.4l0.1,0.4l0,0.2l0,0.1l0.1,0.4l0.1,0.4l0.1,0.4l0,0.2l0,0.1l0.1,0.3l0.1,0.4l0.1,0.3
		l0,0.1l0,0.1l0.1,0.3l0.1,0.4l0.1,0.3l0,0.1l0.1,0.1l0.1,0.3l0.1,0.4l0.1,0.3l0.1,0.1l0.1,0.1l0.1,0.3l0.2,0.4l0.1,0.3l0.1,0.1
		l0.1,0.1l0.2,0.3l0.2,0.4l0.2,0.3l0.1,0.1l0.1,0.1l0.2,0.3l0.2,0.4l0.2,0.3l0.1,0.1l0.1,0.1l0.2,0.3l0.2,0.4l0.2,0.3l0.1,0.1
		l0.1,0.1l0.2,0.3l0.3,0.3l0.2,0.3l0.1,0.1l0.1,0.1l0.2,0.3l0.3,0.3l0.2,0.3l0.1,0.1l0.1,0.1l0.3,0.3l0.3,0.3l0.3,0.3l0.1,0.1
		l0.1,0.1l0.3,0.3l0.3,0.3l0.3,0.3l0.1,0.1l0.1,0.1l0.3,0.3l0.4,0.3l0.3,0.3l0.1,0.1l0.1,0.1l0.3,0.2l0.4,0.3l0.3,0.2l0.1,0.1
		l0.1,0.1l0.3,0.2l0.4,0.3l0.3,0.2l0.1,0.1l0.1,0.1l0.3,0.2l0.4,0.3l0.3,0.2l0.1,0.1l0.1,0.1l0.3,0.2l0.4,0.2l0.3,0.2l0.1,0.1
		l0.1,0.1l0.3,0.2l0.4,0.2l0.3,0.2l0.1,0.1l0.1,0.1l0.3,0.2l0.4,0.2l0.3,0.2l0.1,0.1l0.1,0.1l0.3,0.1l0.4,0.2l0.3,0.1l0.1,0.1
		l0.1,0.1l0.3,0.1l0.4,0.1l0.3,0.1l0.1,0.1l0.1,0l0.3,0.1l0.4,0.1l0.4,0.1l0.1,0l0.1,0l0.4,0.1l0.4,0.1l0.4,0.1l0.1,0l0.2,0l0.4,0.1
		l0.4,0.1l0.4,0.1l0.2,0l0.2,0l0.4,0l0.4,0.1l0.4,0l0.2,0l0.2,0l0.4,0l0.4,0l0.4,0l0.2,0l0.2,0l0.4,0l0.4,0l0.4,0l0.2,0h0l0.2,0
		l0.4,0l0.5,0l0.4,0l0.2,0l0.2,0l0.4,0l0.5,0l0.4,0l0.2,0l0.2,0l0.4,0l0.5-0.1l0.4,0l0.2,0l0.2,0l0.4-0.1l0.5-0.1l0.4-0.1l0.2,0
		l0.2,0l0.4-0.1l0.5-0.1l0.4-0.1l0.2,0l0.2,0l0.4-0.1l0.4-0.1l0.4-0.1l0.2,0l0.2,0l0.4-0.1l0.4-0.1l0.4-0.1l0.2,0l0.1-0.1l0.4-0.1
		l0.4-0.2l0.4-0.1l0.1-0.1l0.1-0.1l0.4-0.1l0.4-0.2l0.3-0.1l0.1-0.1l0.1-0.1l0.3-0.2l0.4-0.2l0.3-0.2l0.1-0.1l0.1-0.1l0.3-0.2
		l0.4-0.2l0.3-0.2l0.1-0.1l0.1-0.1l0.3-0.2l0.4-0.2l0.3-0.2l0.1-0.1l0.1-0.1l0.3-0.2l0.4-0.2l0.3-0.2l0.1-0.1l0.1-0.1l0.3-0.2
		l0.4-0.3l0.3-0.2l0.1-0.1l0.1-0.1l0.3-0.2l0.3-0.3l0.3-0.2l0.1-0.1l0.1-0.1l0.3-0.2l0.3-0.3l0.3-0.2l0.1-0.1l0.1-0.1l0.3-0.3
		l0.3-0.3l0.3-0.3l0.1-0.1l0.1-0.1l0.2-0.3l0.3-0.3l0.2-0.3l0.1-0.1l0.1-0.1l0.2-0.3l0.3-0.3l0.2-0.3l0.1-0.1l0.1-0.1l0.2-0.3
		l0.3-0.4l0.2-0.3l0.1-0.1l0.1-0.1l0.2-0.3l0.2-0.4l0.2-0.3l0.1-0.1l0.1-0.1l0.2-0.3l0.2-0.4l0.2-0.3l0.1-0.1l0.1-0.1l0.2-0.3
		l0.2-0.4l0.2-0.3l0.1-0.1l0.1-0.1l0.1-0.3l0.2-0.4l0.1-0.3l0.1-0.1l0.1-0.1l0.1-0.3l0.2-0.4l0.1-0.4l0.1-0.1l0-0.2l0.1-0.4l0.1-0.4
		l0.1-0.4l0-0.2l0-0.2l0.1-0.4l0.1-0.4l0.1-0.4l0-0.2l0-0.2l0.1-0.4l0.1-0.4l0.1-0.4l0-0.2l0-0.2l0.1-0.4l0.1-0.5l0.1-0.4l0-0.2
		l0-0.2l0-0.4l0.1-0.5l0-0.4l0-0.2l0-0.2l0-0.4l0-0.5l0-0.4l0-0.2l0-0.2l0-0.4l0-0.5l0-0.4l0-0.2l0-0.2L120.6,89.5z M107.4,88.3
		l0,0.4l0,0.5l0,0.4l0,0.2l0,0.2l0,0.4l0,0.5l0,0.4l0,0.2l0,0.2l0,0.4l0,0.5l0,0.4l0,0.2l0,0.2l0,0.4l-0.1,0.5l0,0.4l0,0.2l0,0.2
		l-0.1,0.4l-0.1,0.5l-0.1,0.4l0,0.2l0,0.2l-0.1,0.4l-0.1,0.4l-0.1,0.4l0,0.2l0,0.2l-0.1,0.4l-0.1,0.4l-0.1,0.4l0,0.1l0,0.1l-0.1,0.3
		l-0.1,0.4l-0.1,0.3l0,0.1l0,0.1l-0.1,0.3l-0.1,0.4l-0.1,0.3l0,0.1l0,0.1l-0.1,0.3l-0.1,0.4l-0.1,0.3l0,0.1l0,0.1l-0.1,0.3l-0.1,0.4
		l-0.1,0.3l-0.1,0.1l-0.1,0.1l-0.1,0.3l-0.2,0.3l-0.1,0.3l-0.1,0.1l-0.1,0.1l-0.1,0.3l-0.2,0.3l-0.1,0.3l-0.1,0.1l-0.1,0.1l-0.1,0.3
		l-0.2,0.3l-0.1,0.3l-0.1,0.1l-0.1,0.1l-0.2,0.2l-0.2,0.3l-0.2,0.2l-0.1,0.1l-0.1,0.1L102,109l-0.2,0.3l-0.1,0.1l-0.1,0.1l-0.2,0.3
		l-0.2,0.3l-0.1,0.1l-0.1,0.1l-0.2,0.2l-0.2,0.2l-0.1,0.1l-0.1,0.1l-0.3,0.3l-0.3,0.3l-0.1,0.1l-0.1,0.1l-0.3,0.2l-0.3,0.2l-0.1,0.1
		l-0.1,0.1l-0.3,0.2l-0.3,0.2l-0.1,0.1l-0.1,0.1l-0.3,0.2l-0.3,0.2l-0.1,0.1l-0.1,0.1l-0.3,0.1l-0.3,0.1l-0.1,0.1l-0.1,0.1l-0.3,0.1
		l-0.3,0.1l-0.1,0.1l-0.1,0l-0.3,0.1l-0.3,0.1l-0.1,0l-0.1,0l-0.3,0.1l-0.3,0.1l-0.1,0l-0.2,0l-0.4,0.1l-0.3,0.1l-0.2,0l-0.1,0
		l-0.3,0l-0.3,0l-0.1,0l-0.2,0l-0.4,0l-0.4,0l-0.2,0l-0.2,0l-0.4,0l-0.3,0l-0.2,0l-0.2,0l-0.4,0l-0.4,0l-0.2,0l-0.1,0l-0.3-0.1
		l-0.3,0l-0.1,0v0l-0.2,0l-0.3-0.1l-0.3-0.1l-0.2,0l-0.1,0l-0.3-0.1l-0.3-0.1l-0.1,0l-0.1-0.1l-0.3-0.1l-0.3-0.1l-0.1-0.1l-0.1-0.1
		l-0.3-0.1l-0.3-0.1l-0.1-0.1l0,0l-0.1-0.1l-0.3-0.2l-0.3-0.2l-0.1-0.1v0l-0.1-0.1l-0.3-0.2l-0.3-0.2l-0.1-0.1v0l-0.1-0.1l-0.3-0.2
		l-0.3-0.2l-0.1-0.1l-0.1-0.1l-0.3-0.2l-0.3-0.2l-0.1-0.1l0,0l-0.1-0.1l-0.2-0.2l-0.2-0.2l-0.1-0.1l-0.1-0.1l-0.2-0.3l-0.2-0.3
		l-0.1-0.1l-0.1-0.1l-0.2-0.3l-0.2-0.3l-0.1-0.1l-0.1-0.1l-0.2-0.3l-0.2-0.3l-0.1-0.1l-0.1-0.1l-0.1-0.2l-0.2-0.3l-0.1-0.2l-0.1-0.1
		l-0.1-0.1l-0.1-0.3l-0.2-0.3l-0.1-0.3l-0.1-0.1l-0.1-0.1l-0.1-0.3l-0.1-0.3l-0.1-0.3l-0.1-0.1l0-0.1l-0.1-0.3l-0.1-0.4l-0.1-0.3
		l0-0.1l0-0.1l-0.1-0.3l-0.1-0.4l-0.1-0.3l0-0.1l0-0.1l-0.1-0.3l-0.1-0.4l-0.1-0.3l0-0.1l0-0.1l-0.1-0.3l-0.1-0.4l-0.1-0.3l0-0.1
		l0-0.2L75,98.8L75,98.4L74.9,98l0-0.2l0-0.2l-0.1-0.4l-0.1-0.4l-0.1-0.4l0-0.2l0-0.2l0-0.4l-0.1-0.5l0-0.4l0-0.2l0-0.2l0-0.4l0-0.5
		l0-0.4l0-0.2l0-0.2l0-0.4l0-0.5l0-0.4l0-0.2l0-0.2l0-0.4l0-0.5l0-0.4l0-0.2v0l0-0.2l0-0.4l0-0.5l0-0.4l0-0.2l0-0.2l0-0.4l0-0.5
		l0-0.4l0-0.2l0-0.2l0-0.4l0-0.5l0-0.4l0-0.2l0-0.2l0.1-0.4l0.1-0.4l0.1-0.4l0-0.2l0-0.1l0.1-0.4l0.1-0.4l0.1-0.4l0-0.1l0-0.1
		l0.1-0.3l0.1-0.4l0.1-0.3l0-0.1l0-0.1l0.1-0.3l0.1-0.4l0.1-0.3l0-0.1l0-0.1l0.1-0.3l0.1-0.4l0.1-0.3l0-0.1l0-0.1l0.1-0.3l0.1-0.4
		l0.1-0.3l0-0.1l0.1-0.1l0.1-0.3l0.1-0.3l0.1-0.3l0.1-0.1l0.1-0.1l0.1-0.3l0.2-0.3l0.1-0.3l0.1-0.1l0.1-0.1l0.1-0.2l0.2-0.3l0.1-0.2
		l0.1-0.1l0.1-0.1l0.2-0.3l0.2-0.3l0.1-0.1l0.1-0.1l0.2-0.3l0.2-0.3l0.1-0.1l0.1-0.1l0.2-0.3l0.2-0.3l0.1-0.1l0.1-0.1l0.3-0.3
		l0.3-0.3l0.1-0.1l0.1-0.1l0.3-0.2l0.3-0.2l0.1-0.1l0.1-0.1l0.3-0.2l0.3-0.2l0.1-0.1l0.1-0.1l0.3-0.2l0.3-0.2l0.1-0.1l0.1-0.1
		l0.3-0.2l0.3-0.2l0.1-0.1l0.1-0.1l0.3-0.2l0.3-0.2l0.1-0.1l0.1-0.1l0.3-0.1l0.3-0.1l0.1-0.1l0.2-0.1l0.4-0.1l0.4-0.1l0.2-0.1l0.2,0
		l0.3-0.1l0.3-0.1l0.2,0l0.2,0l0.4-0.1l0.4-0.1l0.2,0l0.2,0l0.4,0l0.4,0l0.2,0l0.2,0l0.4,0l0.4,0l0.2,0l0.2,0l0.3,0l0.4,0l0.2,0
		l0.2,0l0.4,0l0.4,0l0.2,0l0.1,0l0.3,0.1l0.3,0.1l0.1,0l0.2,0l0.3,0.1l0.3,0.1l0.2,0l0.1,0l0.3,0.1l0.3,0.1l0.1,0l0.1,0.1l0.3,0.1
		l0.3,0.1l0.1,0.1l0.1,0.1l0.3,0.1l0.3,0.1l0.1,0.1l0.1,0.1l0.3,0.2l0.3,0.2l0.1,0.1l0.1,0.1l0.3,0.2l0.3,0.2l0.1,0.1l0.1,0.1
		l0.3,0.2l0.3,0.2l0.1,0.1l0.1,0.1l0.3,0.3l0.3,0.3l0.1,0.1l0.1,0.1l0.2,0.2l0.2,0.3l0.2,0.2l0.1,0.1l0.1,0.1l0.2,0.2l0.2,0.3
		L102,72l0.1,0.1l0.1,0.1l0.2,0.3l0.2,0.3l0.2,0.3l0.1,0.1l0.1,0.1l0.2,0.3l0.2,0.3l0.2,0.3l0.1,0.1l0.1,0.1l0.2,0.3l0.2,0.3
		l0.2,0.3l0.1,0.1l0.1,0.1l0.1,0.3l0.2,0.3l0.1,0.3l0.1,0.1l0.1,0.1l0.1,0.3l0.2,0.3l0.1,0.3l0.1,0.1l0.1,0.1l0.1,0.3l0.1,0.3
		l0.1,0.3l0,0.1l0,0.1l0.1,0.3l0.1,0.4l0.1,0.3l0,0.1l0,0.1l0.1,0.3l0.1,0.4l0.1,0.3l0,0.1l0,0.1l0.1,0.3l0.1,0.4l0.1,0.3l0,0.1
		l0,0.1l0.1,0.3l0.1,0.4l0.1,0.3l0,0.1l0,0.1l0,0.3l0,0.4l0,0.3l0,0.1l0,0.1l0,0.3l0,0.4l0,0.3l0,0.1l0,0.1l0,0.4l0,0.4l0,0.4l0,0.2
		L107.4,88.3z"/>
	<path class="st0" d="M184.9,89.5l0-0.5l0-0.4l0-0.2l0-0.2l0-0.4l0-0.5l0-0.4l0-0.2l0-0.2l0-0.4l-0.1-0.5l0-0.4l0-0.2l0-0.2
		l-0.1-0.4l-0.1-0.5l-0.1-0.4l0-0.2l0-0.2l-0.1-0.4l-0.1-0.4l-0.1-0.4l0-0.2l0-0.2l-0.1-0.4l-0.1-0.4l-0.1-0.4l0-0.2l0-0.1l-0.1-0.3
		l-0.1-0.4l-0.1-0.3l-0.1-0.1l-0.1-0.1l-0.1-0.3l-0.2-0.4l-0.1-0.3l-0.1-0.1l-0.1-0.1l-0.2-0.3l-0.2-0.4l-0.2-0.3l-0.1-0.1l-0.1-0.1
		l-0.2-0.3l-0.2-0.4l-0.2-0.3l-0.1-0.1l-0.1-0.1L181,75l-0.2-0.4l-0.2-0.3l-0.1-0.1l-0.1-0.1l-0.2-0.3l-0.3-0.4l-0.2-0.3l-0.1-0.1
		l-0.1-0.1l-0.2-0.3l-0.3-0.3l-0.2-0.3l-0.1-0.1l-0.1-0.1l-0.2-0.3l-0.3-0.3l-0.2-0.3l-0.1-0.1l-0.1-0.1l-0.3-0.3L177,70l-0.3-0.3
		l-0.1-0.1l-0.1-0.1l-0.3-0.3l-0.3-0.3l-0.3-0.3l-0.1-0.1l-0.1-0.1l-0.3-0.2l-0.4-0.3l-0.3-0.2l-0.1-0.1l-0.1-0.1l-0.3-0.2l-0.4-0.3
		l-0.3-0.2l-0.1-0.1l-0.1-0.1l-0.3-0.2l-0.4-0.3l-0.3-0.2l-0.1-0.1l-0.1-0.1l-0.3-0.2l-0.4-0.2l-0.3-0.2l-0.1-0.1l-0.1-0.1l-0.3-0.2
		l-0.4-0.2l-0.3-0.2l-0.1-0.1l-0.1-0.1l-0.3-0.2l-0.4-0.2l-0.3-0.2l-0.1-0.1l-0.1-0.1l-0.3-0.1l-0.4-0.2l-0.3-0.1l-0.1-0.1l-0.1-0.1
		l-0.4-0.1l-0.4-0.1l-0.4-0.1l-0.1-0.1l-0.2,0l-0.4-0.1l-0.4-0.1l-0.4-0.1l-0.2,0l-0.2,0l-0.4-0.1l-0.4-0.1l-0.4-0.1l-0.2,0l-0.2,0
		l-0.4-0.1l-0.4-0.1l-0.4-0.1l-0.2,0l-0.2,0l-0.4,0l-0.5-0.1l-0.4,0l-0.2,0l-0.2,0l-0.4,0l-0.5,0l-0.4,0l-0.2,0l-0.2,0l-0.4,0
		l-0.5,0l-0.4,0l-0.2,0l-0.2,0l-0.4,0l-0.5,0l-0.4,0l-0.2,0l-0.2,0l-0.4,0l-0.5,0l-0.4,0l-0.2,0l-0.2,0l-0.4,0l-0.5,0l-0.4,0l-0.2,0
		l-0.2,0l-0.4,0l-0.5,0.1l-0.4,0l-0.2,0l-0.2,0l-0.4,0.1l-0.4,0.1l-0.4,0.1l-0.2,0l-0.2,0l-0.4,0.1L147,62l-0.4,0.1l-0.2,0l-0.1,0
		l-0.4,0.1l-0.4,0.1l-0.3,0.1l-0.1,0l-0.1,0l-0.3,0.1l-0.4,0.1l-0.3,0.1l-0.1,0l-0.1,0.1l-0.3,0.1l-0.4,0.2l-0.3,0.1l-0.1,0.1
		l-0.1,0.1l-0.3,0.2l-0.4,0.2l-0.3,0.2l-0.1,0.1l-0.1,0.1l-0.3,0.2l-0.4,0.2l-0.3,0.2l-0.1,0.1l-0.1,0.1l-0.3,0.2l-0.4,0.2l-0.3,0.2
		l-0.1,0.1l-0.1,0.1l-0.3,0.2l-0.4,0.2l-0.3,0.2l-0.1,0.1l-0.1,0.1l-0.3,0.2l-0.4,0.3l-0.3,0.2l-0.1,0.1l-0.1,0.1l-0.3,0.2l-0.3,0.3
		l-0.3,0.2l-0.1,0.1l-0.1,0.1l-0.3,0.3l-0.3,0.3l-0.3,0.3l-0.1,0.1l-0.1,0.1l-0.3,0.3L133,70l-0.3,0.3l-0.1,0.1l-0.1,0.1l-0.3,0.3
		l-0.3,0.4l-0.3,0.3l-0.1,0.1l-0.1,0.1l-0.2,0.3l-0.3,0.4l-0.2,0.3l-0.1,0.1l-0.1,0.1l-0.2,0.3l-0.3,0.4l-0.2,0.3l-0.1,0.1l-0.1,0.1
		l-0.2,0.3l-0.2,0.4l-0.2,0.3l-0.1,0.1l-0.1,0.1l-0.2,0.3l-0.2,0.4l-0.2,0.3l-0.1,0.1L128,77l-0.2,0.4l-0.2,0.4l-0.2,0.4l-0.1,0.1
		l-0.1,0.1l-0.1,0.4l-0.2,0.4l-0.1,0.4l-0.1,0.1l-0.1,0.2l-0.1,0.4l-0.2,0.4l-0.1,0.4l-0.1,0.2l0,0.2l-0.1,0.4l-0.1,0.4l-0.1,0.4
		l0,0.2l0,0.2l-0.1,0.4l-0.1,0.5l-0.1,0.4l0,0.2l0,0.2l-0.1,0.4l-0.1,0.5l-0.1,0.4l0,0.2l0,0.2l-0.1,0.4l-0.1,0.5l-0.1,0.4l0,0.2
		l0,0.2l0,0.4l0,0.5l0,0.4l0,0.2l0,0.2l0,0.4l0,0.5l0,0.4l0,0.2l0,0.2l0,0.4l0,0.5l0,0.4l0,0.2l0,0.2l0,0.4l0,0.5l0,0.4l0,0.2l0,0.2
		l0,0.4l0,0.5l0,0.4l0,0.2l0,0.2l0.1,0.4l0.1,0.4l0.1,0.4l0,0.2l0,0.1l0.1,0.4l0.1,0.4l0.1,0.4l0,0.2l0,0.1l0.1,0.3l0.1,0.4l0.1,0.3
		l0,0.1l0,0.1l0.1,0.3l0.1,0.4l0.1,0.3l0,0.1l0.1,0.1l0.1,0.3l0.1,0.4l0.1,0.3l0.1,0.1l0.1,0.1l0.1,0.3l0.2,0.4l0.1,0.3l0.1,0.1
		l0.1,0.1l0.2,0.3l0.2,0.4l0.2,0.3l0.1,0.1l0.1,0.1l0.2,0.3l0.2,0.4l0.2,0.3l0.1,0.1l0.1,0.1l0.2,0.3l0.2,0.4l0.2,0.3l0.1,0.1
		l0.1,0.1l0.2,0.3l0.3,0.3l0.2,0.3l0.1,0.1l0.1,0.1l0.2,0.3l0.3,0.3l0.2,0.3l0.1,0.1l0.1,0.1l0.3,0.3l0.3,0.3l0.3,0.3l0.1,0.1
		l0.1,0.1l0.3,0.3l0.3,0.3l0.3,0.3l0.1,0.1l0.1,0.1l0.3,0.3l0.4,0.3l0.3,0.3l0.1,0.1l0.1,0.1l0.3,0.2l0.4,0.3l0.3,0.2l0.1,0.1
		l0.1,0.1l0.3,0.2l0.4,0.3l0.3,0.2l0.1,0.1l0.1,0.1l0.3,0.2l0.4,0.3l0.3,0.2l0.1,0.1l0.1,0.1l0.3,0.2l0.4,0.2l0.3,0.2l0.1,0.1
		l0.1,0.1l0.3,0.2l0.4,0.2l0.3,0.2l0.1,0.1l0.1,0.1l0.3,0.2l0.4,0.2l0.3,0.2l0.1,0.1l0.1,0.1l0.3,0.1l0.4,0.2l0.3,0.1l0.1,0.1
		l0.1,0.1l0.3,0.1l0.4,0.1l0.3,0.1l0.1,0.1l0.1,0l0.3,0.1l0.4,0.1l0.4,0.1l0.1,0l0.1,0l0.4,0.1l0.4,0.1l0.4,0.1l0.1,0l0.2,0l0.4,0.1
		l0.4,0.1l0.4,0.1l0.2,0l0.2,0l0.4,0l0.4,0.1l0.4,0l0.2,0l0.2,0l0.4,0l0.4,0l0.4,0l0.2,0l0.2,0l0.4,0l0.4,0l0.4,0l0.2,0h0l0.2,0
		l0.4,0l0.5,0l0.4,0l0.2,0l0.2,0l0.4,0l0.5,0l0.4,0l0.2,0l0.2,0l0.4,0l0.5-0.1l0.4,0l0.2,0l0.2,0l0.4-0.1l0.5-0.1l0.4-0.1l0.2,0
		l0.2,0l0.4-0.1l0.5-0.1l0.4-0.1l0.2,0l0.2,0l0.4-0.1l0.4-0.1l0.4-0.1l0.2,0l0.2,0l0.4-0.1l0.4-0.1l0.4-0.1l0.2,0l0.2-0.1l0.4-0.1
		l0.4-0.2l0.4-0.1l0.1-0.1l0.1-0.1l0.4-0.1l0.4-0.2l0.3-0.1l0.1-0.1l0.1-0.1l0.3-0.2l0.4-0.2l0.3-0.2l0.1-0.1l0.1-0.1l0.3-0.2
		l0.4-0.2l0.3-0.2l0.1-0.1l0.1-0.1l0.3-0.2l0.4-0.2l0.3-0.2l0.1-0.1l0.1-0.1l0.3-0.2l0.4-0.2l0.3-0.2l0.1-0.1l0.1-0.1l0.3-0.2
		l0.4-0.3l0.3-0.2l0.1-0.1l0.1-0.1l0.3-0.2l0.3-0.3l0.3-0.2l0.1-0.1l0.1-0.1l0.3-0.2l0.3-0.3l0.3-0.2l0.1-0.1l0.1-0.1l0.3-0.3
		l0.3-0.3l0.3-0.3l0.1-0.1l0.1-0.1l0.2-0.3l0.3-0.3l0.2-0.3l0.1-0.1l0.1-0.1l0.2-0.3l0.3-0.3l0.2-0.3l0.1-0.1l0.1-0.1l0.2-0.3
		l0.3-0.4l0.2-0.3l0.1-0.1l0.1-0.1l0.2-0.3l0.2-0.4l0.2-0.3l0.1-0.1l0.1-0.1l0.2-0.3l0.2-0.4l0.2-0.3l0.1-0.1l0.1-0.1l0.2-0.3
		l0.2-0.4l0.2-0.3l0.1-0.1l0.1-0.1l0.2-0.3l0.2-0.4l0.1-0.3l0.1-0.1l0.1-0.1l0.1-0.3l0.2-0.4l0.1-0.4l0.1-0.1l0-0.2l0.1-0.4l0.1-0.4
		l0.1-0.4l0-0.2l0-0.2l0.1-0.4l0.1-0.4l0.1-0.4l0-0.2l0-0.2l0.1-0.4l0.1-0.4l0.1-0.4l0-0.2l0-0.2l0.1-0.4l0.1-0.5l0.1-0.4l0-0.2
		l0-0.2l0-0.4l0.1-0.5l0-0.4l0-0.2l0-0.2l0-0.4l0-0.5l0-0.4l0-0.2l0-0.2l0-0.4l0-0.5l0-0.4l0-0.2l0-0.2L184.9,89.5z M171.8,88.3
		l0,0.4l0,0.5l0,0.4l0,0.2l0,0.2l0,0.4l0,0.5l0,0.4l0,0.2l0,0.2l0,0.4l0,0.5l0,0.4l0,0.2l0,0.2l0,0.4l-0.1,0.5l0,0.4l0,0.2l0,0.2
		l-0.1,0.4l-0.1,0.5l-0.1,0.4l0,0.2l0,0.2l-0.1,0.4l-0.1,0.4l-0.1,0.4l0,0.2l0,0.2l-0.1,0.4l-0.1,0.4l-0.1,0.4l0,0.1l0,0.1l-0.1,0.3
		l-0.1,0.4l-0.1,0.3l0,0.1l0,0.1l-0.1,0.3l-0.1,0.4l-0.1,0.3l0,0.1l0,0.1l-0.1,0.3l-0.1,0.4l-0.1,0.3l0,0.1l0,0.1l-0.1,0.3l-0.1,0.4
		l-0.1,0.3l-0.1,0.1l-0.1,0.1l-0.1,0.3l-0.2,0.3l-0.1,0.3l-0.1,0.1l-0.1,0.1l-0.1,0.3l-0.2,0.3l-0.1,0.3l-0.1,0.1l-0.1,0.1l-0.1,0.3
		l-0.2,0.3l-0.1,0.3l-0.1,0.1l-0.1,0.1l-0.2,0.2l-0.2,0.3l-0.2,0.2l-0.1,0.1l-0.1,0.1l-0.2,0.3l-0.2,0.3l-0.1,0.1l-0.1,0.1l-0.2,0.3
		l-0.2,0.3l-0.1,0.1l-0.1,0.1l-0.2,0.3l-0.2,0.3l-0.1,0.1l-0.1,0.1l-0.3,0.2l-0.3,0.2l-0.1,0.1l-0.1,0.1l-0.3,0.2l-0.3,0.2l-0.1,0.1
		l-0.1,0.1l-0.3,0.2l-0.3,0.2l-0.1,0.1l-0.1,0.1l-0.3,0.2l-0.3,0.2l-0.1,0.1l-0.1,0.1l-0.3,0.2l-0.3,0.2l-0.1,0.1l-0.1,0.1l-0.3,0.1
		l-0.3,0.1l-0.1,0.1l-0.1,0l-0.3,0.1l-0.3,0.1l-0.1,0l-0.1,0l-0.3,0.1l-0.3,0.1l-0.1,0l-0.2,0l-0.3,0.1l-0.3,0.1l-0.2,0l-0.1,0
		l-0.3,0l-0.3,0l-0.1,0l-0.2,0l-0.4,0l-0.4,0l-0.2,0l-0.2,0l-0.4,0l-0.3,0l-0.2,0l-0.2,0l-0.4,0l-0.4,0l-0.2,0l-0.1,0l-0.3-0.1
		l-0.3,0l-0.1,0v0l-0.2,0l-0.3-0.1l-0.3-0.1l-0.2,0l-0.1,0l-0.3-0.1l-0.3-0.1l-0.1,0l-0.1-0.1l-0.3-0.1l-0.3-0.1l-0.1-0.1l-0.1-0.1
		l-0.3-0.1l-0.3-0.1l-0.1-0.1l0,0l-0.1-0.1l-0.3-0.2l-0.3-0.2l-0.1-0.1v0l-0.1-0.1l-0.3-0.2l-0.3-0.2l-0.1-0.1v0l-0.1-0.1l-0.3-0.2
		l-0.3-0.2l-0.1-0.1l-0.1-0.1l-0.3-0.2l-0.3-0.2l-0.1-0.1l0,0l-0.1-0.1l-0.2-0.2l-0.2-0.2l-0.1-0.1l-0.1-0.1l-0.2-0.3l-0.2-0.3
		l-0.1-0.1l-0.1-0.1l-0.2-0.3l-0.2-0.3l-0.1-0.1l-0.1-0.1l-0.2-0.3l-0.2-0.3l-0.1-0.1l-0.1-0.1l-0.1-0.2l-0.2-0.3l-0.1-0.2l-0.1-0.1
		l-0.1-0.1l-0.1-0.3l-0.2-0.3l-0.1-0.3l-0.1-0.1l-0.1-0.1l-0.1-0.3l-0.1-0.3l-0.1-0.3l-0.1-0.1l0-0.1l-0.1-0.3l-0.1-0.4l-0.1-0.3
		l0-0.1l0-0.1l-0.1-0.3l-0.1-0.4l-0.1-0.3l0-0.1l0-0.1l-0.1-0.3l-0.1-0.4l-0.1-0.3l0-0.1l0-0.1l-0.1-0.3l-0.1-0.4l-0.1-0.3l0-0.1
		l0-0.2l-0.1-0.4l-0.1-0.4l-0.1-0.4l0-0.2l0-0.2l-0.1-0.4l-0.1-0.4l-0.1-0.4l0-0.2l0-0.2l0-0.4l-0.1-0.5l0-0.4l0-0.2l0-0.2l0-0.4
		l0-0.5l0-0.4l0-0.2l0-0.2l0-0.4l0-0.5l0-0.4l0-0.2l0-0.2l0-0.4l0-0.5l0-0.4l0-0.2v0l0-0.2l0-0.4l0-0.5l0-0.4l0-0.2l0-0.2l0-0.4
		l0-0.5l0-0.4l0-0.2l0-0.2l0-0.4l0-0.5l0-0.4l0-0.2l0-0.2l0.1-0.4l0.1-0.4l0.1-0.4l0-0.2l0-0.1l0.1-0.4l0.1-0.4l0.1-0.4l0-0.1l0-0.1
		l0.1-0.3l0.1-0.4l0.1-0.3l0-0.1l0-0.1l0.1-0.3l0.1-0.4l0.1-0.3l0-0.1l0-0.1l0.1-0.3l0.1-0.4l0.1-0.3l0-0.1l0-0.1l0.1-0.3l0.1-0.4
		l0.1-0.3l0-0.1l0.1-0.1l0.1-0.3l0.1-0.3l0.1-0.3l0.1-0.1l0.1-0.1l0.1-0.3l0.2-0.3l0.1-0.3l0.1-0.1l0.1-0.1l0.1-0.2l0.2-0.3l0.1-0.2
		l0.1-0.1l0.1-0.1l0.2-0.2l0.2-0.3l0.2-0.2l0.1-0.1l0.1-0.1l0.2-0.3l0.2-0.3l0.1-0.1l0.1-0.1l0.2-0.3l0.2-0.3l0.1-0.1l0.1-0.1
		l0.3-0.3l0.3-0.3l0.1-0.1l0.1-0.1l0.3-0.2l0.3-0.2l0.1-0.1l0.1-0.1l0.3-0.2l0.3-0.2l0.1-0.1l0.1-0.1l0.3-0.2l0.3-0.2l0.1-0.1
		l0.1-0.1l0.3-0.2l0.3-0.2l0.1-0.1l0.2-0.1l0.3-0.2l0.3-0.2l0.2-0.1l0.1-0.1l0.3-0.1L150,67l0.1-0.1l0.2-0.1l0.4-0.1l0.4-0.1
		l0.2-0.1l0.1,0l0.3-0.1l0.3-0.1l0.1,0l0.2,0l0.4-0.1l0.4-0.1l0.2,0l0.2,0l0.4,0l0.4,0l0.2,0l0.2,0l0.4,0l0.4,0l0.2,0l0.2,0l0.3,0
		l0.3,0l0.2,0l0.2,0l0.4,0l0.4,0l0.2,0l0.1,0l0.3,0.1l0.3,0.1l0.1,0l0.1,0l0.3,0.1l0.3,0.1l0.1,0l0.1,0.1l0.3,0.1l0.3,0.1l0.1,0.1
		l0.1,0.1l0.3,0.1l0.3,0.1l0.1,0.1l0.1,0.1l0.3,0.1l0.3,0.1l0.1,0.1l0.1,0.1l0.3,0.2l0.3,0.2l0.1,0.1l0.1,0.1l0.2,0.2l0.2,0.2
		l0.1,0.1l0.1,0.1l0.3,0.2l0.3,0.2l0.1,0.1l0.1,0.1l0.3,0.3l0.3,0.3l0.1,0.1l0.1,0.1l0.2,0.2l0.2,0.3l0.2,0.2l0.1,0.1l0.1,0.1
		l0.2,0.2l0.2,0.3l0.2,0.2l0.1,0.1l0.1,0.1l0.2,0.3l0.2,0.3l0.2,0.3l0.1,0.1l0.1,0.1l0.2,0.3l0.2,0.3l0.2,0.3l0.1,0.1l0.1,0.1
		l0.2,0.3l0.2,0.3l0.2,0.3l0.1,0.1l0.1,0.1l0.2,0.3l0.2,0.3l0.2,0.3l0.1,0.1l0.1,0.1l0.1,0.3l0.2,0.3l0.1,0.3l0.1,0.1l0,0.1l0.1,0.3
		l0.1,0.3l0.1,0.3l0,0.1l0,0.1l0.1,0.3l0.1,0.4l0.1,0.3l0,0.1l0,0.1l0.1,0.3l0.1,0.4l0.1,0.3l0,0.1l0,0.1l0.1,0.3l0.1,0.4l0.1,0.3
		l0,0.1l0,0.1l0.1,0.3l0.1,0.4l0.1,0.3l0,0.1l0,0.1l0,0.3l0,0.4l0,0.3l0,0.1l0,0.1l0,0.3l0,0.4l0,0.3l0,0.1l0,0.1l0,0.4l0,0.4l0,0.4
		l0,0.2L171.8,88.3z"/>
	<path class="st0" d="M247,115.9l0-0.1l0-0.1l-0.1-0.2l0-0.1l-0.1-0.1l-0.1-0.2l-0.1-0.1l-0.1-0.1l-0.2-0.2l-0.1-0.1l-0.1-0.1
		l-0.2-0.1l-0.1-0.1l-0.1,0l-0.2-0.1l-0.1,0l-0.1,0l-0.2-0.1l-0.1,0l-0.1,0l-0.2,0l-0.1,0l-0.1,0l-0.2,0l-0.1,0l-0.1,0l-0.2,0
		l-0.1,0l-0.1,0l-0.3,0l-0.1,0l-0.1,0l-0.2,0l-0.1,0l-0.1,0l-0.2,0l-0.1,0l-0.1,0l-0.1,0l-0.1,0l-0.1,0l-0.2,0l-0.1,0l-0.1,0l-0.1,0
		l-0.1,0l-0.2-0.1l-0.1,0l-0.1,0l-0.1-0.1l-0.1,0l-0.1,0l-0.1-0.1l-0.1,0l-0.1-0.1l-0.2-0.1l-0.1-0.1l0,0l-0.1-0.1l-0.2-0.1
		l-0.1-0.1l-0.1-0.1l-0.2-0.2l-0.1-0.1l-0.1-0.1l-0.2-0.2l-0.1-0.1l0,0l-0.1-0.1l-0.2-0.2l-0.1-0.1l-0.1-0.1l-0.2-0.3l-0.2-0.2
		l-0.1-0.1l-0.1-0.1l-0.2-0.3l-0.2-0.3l-0.1-0.1l0,0l-0.1-0.1l-0.2-0.3l-0.2-0.3l-0.1-0.1l-0.1-0.1l-0.2-0.2l-0.2-0.3l-0.2-0.2
		l-0.1-0.1l-0.1-0.1l-0.2-0.3l-0.2-0.3l-0.2-0.3l-0.1-0.1l-0.1-0.1l-0.2-0.3l-0.2-0.3l-0.2-0.3l-0.1-0.1l-0.1-0.1l-0.2-0.3l-0.2-0.3
		l-0.2-0.3l-0.1-0.1l-0.1-0.1l-0.2-0.3l-0.2-0.4l-0.2-0.3l-0.1-0.1l-0.1-0.1l-0.2-0.3l-0.2-0.4l-0.2-0.3l-0.1-0.1l-0.1-0.1l-0.2-0.3
		l-0.2-0.4l-0.2-0.3l-0.1-0.1l-0.1-0.1l-0.2-0.3l-0.2-0.4l-0.2-0.3l-0.1-0.1l-0.1-0.2l-0.2-0.4l-0.2-0.4l-0.2-0.4l-0.1-0.2l-0.1-0.2
		l-0.2-0.4l-0.2-0.4l-0.2-0.4l-0.1-0.2l-0.1-0.1l-0.2-0.3l-0.2-0.4l-0.2-0.4l-0.2-0.3l-0.1-0.1l-0.1-0.1l-0.2-0.3l-0.2-0.3l-0.1-0.1
		l-0.1-0.1l-0.2-0.3l-0.2-0.3l-0.1-0.1l-0.1-0.1l-0.1-0.2l-0.1-0.2l-0.1-0.1l-0.1-0.1l-0.1-0.2l-0.1-0.2l-0.1-0.1l0,0l-0.1-0.1
		l-0.1-0.2l-0.1-0.2l-0.1-0.1l-0.1-0.1l-0.1-0.2l-0.1-0.1l-0.1-0.1l-0.1-0.2l-0.1-0.1l0-0.1l-0.1-0.2l0-0.1l0-0.1l-0.1-0.1l0-0.1
		l0,0l0-0.1l0-0.1l0,0l0-0.1l0-0.1l0,0l0,0l0,0l0,0l0,0l0.1,0l0.1,0l0.1,0l0.1,0l0.1,0l0.1-0.1l0.1,0l0.1,0l0.1-0.1l0.1,0l0.1,0
		l0.2-0.1l0.1,0l0.1,0l0.2-0.1l0.1,0l0.1,0l0.2-0.1l0.1,0l0.1-0.1l0.2-0.1l0.1-0.1l0.1-0.1l0.3-0.1l0.1-0.1l0.1-0.1l0.3-0.2l0.3-0.2
		l0.2-0.1l0.1-0.1l0.3-0.2l0.3-0.2l0.1-0.1l0.1-0.1l0.3-0.2l0.3-0.2l0.1-0.1l0.1-0.1l0.3-0.2l0.3-0.2l0.1-0.1l0.1-0.1l0.2-0.3
		l0.2-0.3l0.1-0.1l0.1-0.1l0.2-0.3l0.2-0.3l0.1-0.1l0.1-0.1l0.2-0.3l0.2-0.3l0.1-0.1l0.1-0.1l0.2-0.3l0.2-0.3l0.1-0.1l0.1-0.1
		l0.1-0.3l0.1-0.3l0.1-0.1l0.1-0.1l0.1-0.3l0.1-0.3l0.1-0.1l0-0.2l0.1-0.3l0.1-0.3l0-0.1l0-0.2l0.1-0.3l0.1-0.3l0-0.2l0-0.2l0-0.4
		l0-0.4l0-0.2l0-0.2l0-0.4l0-0.4l0-0.2l0-0.1l0-0.3l0-0.3l0-0.3l0-0.1l0-0.2l0-0.4l0-0.4l0-0.2l0-0.2l-0.1-0.4l-0.1-0.4l0-0.2l0-0.2
		l-0.1-0.4l-0.1-0.4l0-0.2l-0.1-0.2l-0.1-0.3l-0.1-0.3l-0.1-0.2l-0.1-0.1l-0.1-0.3l-0.1-0.3l-0.1-0.2l-0.1-0.1l-0.2-0.3l-0.2-0.3
		l-0.1-0.1l-0.1-0.1l-0.2-0.3l-0.2-0.3l-0.1-0.1l-0.1-0.1l-0.2-0.3l-0.2-0.3l-0.1-0.1l-0.1-0.1l-0.3-0.3l-0.3-0.3l-0.1-0.1l-0.1-0.1
		l-0.3-0.2l-0.3-0.2l-0.1-0.1l-0.1-0.1l-0.3-0.2l-0.3-0.2l-0.1-0.1l-0.1-0.1l-0.3-0.2l-0.3-0.2l-0.1-0.1l-0.2-0.1L229,64l-0.3-0.2
		l-0.2-0.1l-0.1-0.1l-0.3-0.1l-0.3-0.1l-0.3-0.1l-0.1-0.1l-0.1,0l-0.3-0.1l-0.3-0.1l-0.3-0.1l-0.1,0l-0.1,0l-0.3-0.1l-0.3-0.1
		l-0.3-0.1l-0.1,0l-0.1,0l-0.3-0.1l-0.4-0.1l-0.3-0.1l-0.1,0l-0.1,0l-0.3-0.1l-0.4-0.1l-0.3-0.1l-0.1,0l-0.1,0l-0.3,0l-0.4,0l-0.3,0
		l-0.1,0l-0.1,0l-0.3,0l-0.4,0l-0.3,0l-0.1,0l-0.1,0l-0.3,0l-0.4,0l-0.3,0l-0.1,0l-0.2,0l-0.5,0l-0.6,0l-0.6,0l-0.5,0h-0.2l-0.2,0
		l-0.5,0l-0.6,0l-0.6,0l-0.5,0l-0.2,0l-0.2,0l-0.4,0l-0.6,0l-0.6,0l-0.4,0l-0.2,0l-0.2,0l-0.4,0l-0.6,0l-0.6,0l-0.4,0l-0.2,0l-0.2,0
		l-0.4,0l-0.6,0l-0.6,0l-0.4,0l-0.2,0l-0.2,0l-0.4,0l-0.6,0l-0.6,0l-0.4,0l-0.2,0h-0.2l-0.4,0l-0.5,0l-0.5,0l-0.4,0l-0.2,0l-0.1,0
		l-0.3,0l-0.4,0l-0.3,0h-0.1h-0.1l-0.3,0l-0.4,0l-0.3,0l-0.1,0l-0.1,0l-0.3,0l-0.3,0l-0.3,0h-0.1l-0.2,0l-0.4,0l-0.4,0l-0.2,0
		l-0.2,0l-0.3,0l-0.3,0l-0.2,0l-0.1,0l-0.3,0l-0.3,0l-0.1,0l-0.1,0l-0.3,0l-0.3,0l-0.1,0l-0.1,0l-0.3,0l-0.3,0l-0.1,0l-0.1,0l-0.2,0
		l-0.2,0l-0.1,0l-0.2,0l-0.3,0l-0.2,0l-0.1,0l-0.3,0l-0.1,0l-0.1,0l-0.2,0l-0.1,0l-0.1,0l-0.2,0l-0.1,0l-0.1,0l-0.2,0l-0.1,0l-0.1,0
		l-0.3,0l-0.1,0l-0.1,0l-0.3,0l-0.1,0l-0.1,0l-0.2,0.1l-0.1,0l-0.1,0.1l-0.2,0.1l-0.1,0.1l-0.1,0.1l-0.2,0.2l-0.1,0.1l-0.1,0.1
		l-0.2,0.2l-0.1,0.1l-0.1,0.1l-0.1,0.3l-0.1,0.1l0,0.1l0,0.3l0,0.1l0,0.1l0,0.3l0,0.1l0,0.1l0.1,0.2l0,0.1l0.1,0.1l0.1,0.2l0.1,0.1
		l0.1,0.1l0.2,0.2l0.1,0.1l0.1,0.1l0.2,0.2l0.1,0.1l0.1,0.1l0.2,0.1l0.1,0.1l0.1,0l0.2,0.1l0.1,0l0.1,0l0.2,0.1l0.1,0l0.1,0l0.2,0
		l0.1,0l0.1,0l0.2,0l0.1,0l0.1,0l0.2,0l0.1,0l0.1,0l0.2,0l0.1,0l0.1,0l0.2,0l0.1,0l0.1,0l0.2,0l0.1,0l0.1,0l0.3,0l0.1,0l0.1,0l0.2,0
		l0.1,0l0.1,0l0.2,0l0.1,0l0.1,0l0.3,0.1l0.1,0l0.1,0l0.2,0.1l0.1,0l0.1,0l0.1,0l0,0l0,0l0,0l0,0.1l0,0.1l0,0.1l0,0.1l0,0.1l0,0.1
		l0,0.1l0,0.2l0,0.1l0,0.1l0,0.2l0,0.1l0,0.2l0,0.3l0,0.2l0,0.2l0,0.3l0,0.2l0,0.2l0,0.6l0,0.9l0,1.1l0,1.4l0,1.6l0,1.7l0,1.8l0,1.9
		l0,1.9l0,1.9l0,1.8l0,1.7l0,1.6l0,1.4l0,1.1l0,0.9l0,0.5l0,0.2v0.2v0.5v0.8v1v1.1v1.2v1.3v1.3v1.2v1.1v1v0.8v0.5v0.2l0,0.1l0,0.3
		l0,0.3l0,0.1l0,0.1l0,0.3l0,0.3l0,0.1l0,0.1l0,0.3l0,0.3l0,0.1h0l0,0.1l0,0.2l0,0.2l0,0.1h0l0,0.1l0,0.2l0,0.2l0,0.1l0,0.1l0,0.3
		l0,0.1l0,0.1l-0.1,0.2l0,0.1l0,0.1l-0.1,0.2l0,0.1l0,0.1l-0.1,0.1l0,0.1l-0.1,0.1l-0.1,0.1l-0.1,0.1l-0.1,0.1l-0.1,0l-0.1,0l-0.1,0
		l-0.1,0l-0.1,0l-0.1,0l-0.2,0l-0.1,0l-0.1,0l-0.2,0l-0.1,0l-0.1,0l-0.3,0l-0.1,0l-0.2,0l-0.3,0.1l-0.2,0l-0.1,0l-0.2,0l-0.2,0
		l-0.1,0l-0.1,0l-0.2,0.1l-0.2,0.1l-0.1,0l-0.1,0l-0.3,0.1l-0.3,0.1l-0.1,0l-0.1,0l-0.3,0.1l-0.3,0.1l-0.1,0l-0.1,0l-0.2,0.1l-0.1,0
		l-0.1,0.1l-0.2,0.1l-0.1,0.1l-0.1,0.1l-0.2,0.1l-0.1,0.1l-0.1,0.1l-0.2,0.2l-0.1,0.1l-0.1,0.1l-0.1,0.2l-0.1,0.1l0,0.1l-0.1,0.2
		l0,0.1l0,0.1l0,0.3l0,0.1l0,0.1l0,0.2l0,0.1l0,0.1l0.1,0.3l0,0.1l0.1,0.1l0.1,0.2l0.1,0.1l0.1,0.1l0.2,0.2l0.1,0.1l0.1,0.1l0.2,0.1
		l0.1,0.1l0.1,0l0.2,0.1l0.1,0l0.1,0l0.2,0.1l0.1,0l0.1,0l0.2,0l0.1,0l0.1,0l0.3,0l0.1,0l0.2,0l0.3,0l0.2,0l0.1,0l0.2,0l0.2,0l0.1,0
		h0.1h0.2h0.2h0.1l0.1,0l0.4,0l0.4,0l0.3,0l0.1,0l0.1,0l0.4,0l0.4,0l0.4,0l0.1,0l0.1,0l0.3,0l0.4,0l0.3,0l0.1,0l0.1,0l0.3,0l0.4,0
		l0.3,0l0.1,0l0.1,0l0.3,0l0.4,0l0.3,0l0.1,0h0.2l0.4,0l0.4,0h0.2l0.1,0l0.3,0l0.4,0l0.3,0l0.1,0l0.1,0l0.3,0l0.4,0l0.3,0l0.1,0
		l0.1,0l0.3,0l0.4,0l0.3,0l0.1,0l0.1,0l0.3,0l0.4,0l0.3,0l0.1,0l0.2,0l0.4,0l0.4,0l0.4,0l0.2,0l0.2,0l0.4,0l0.4,0l0.4,0l0.2,0l0.2,0
		l0.4,0l0.5,0l0.4,0l0.2,0l0.2,0l0.4,0l0.5,0l0.4,0l0.2,0h0.2h0.4h0.6h0.6h0.4h0.2l0.2,0l0.3,0l0.2,0l0.1,0l0.3,0l0.1,0l0.1,0
		l0.2-0.1l0.1,0l0.1,0l0.2-0.1l0.1,0l0.1-0.1l0.2-0.1l0.1-0.1l0.1-0.1l0.2-0.2l0.1-0.1l0.1-0.1l0.1-0.3l0.1-0.1l0-0.1l0-0.3l0-0.1
		l0-0.2l0-0.3l0-0.2l0-0.1l-0.1-0.3l0-0.1l-0.1-0.1l-0.1-0.2l-0.1-0.1l-0.1-0.1l-0.2-0.2l-0.1-0.1l-0.1-0.1l-0.2-0.1l-0.1-0.1
		l-0.1-0.1l-0.2-0.1l-0.1-0.1l-0.1,0l-0.2-0.1l-0.1,0l-0.1,0l-0.2-0.1l-0.1,0l-0.1,0l-0.2-0.1l-0.1,0l-0.1,0l-0.2,0l-0.1,0l-0.1,0
		l-0.2,0l-0.1,0l-0.1,0l-0.2,0l-0.1,0l-0.1,0l-0.2,0l-0.1,0l-0.1,0l-0.3-0.1l-0.1,0v0l-0.1,0l-0.2-0.1l-0.1,0v0l-0.2,0l-0.3-0.1
		l-0.2,0l-0.1,0l-0.3-0.1l-0.1,0l-0.1,0l-0.1-0.1l-0.1,0l-0.1,0l-0.1-0.1l-0.1,0l-0.1-0.1l-0.1-0.1l0-0.1l0,0l-0.1-0.1l-0.1-0.1
		l0-0.1l0-0.1l0,0l0-0.1l0-0.1l0-0.1l0-0.2l0-0.1l0-0.1l0-0.2l0-0.1l0-0.1l0-0.2l0-0.1l0-0.2l0-0.5l0-0.8l0-1.1l0-1.3l0-1.4l0-1.5
		l0-1.5l0-1.5l0-1.4l0-1.3l0-1.1l0-0.8l0-0.5l0-0.2v-0.1v-0.2V95l0-0.1l0-0.2l0-0.2l0-0.1l0-0.1l0-0.2l0-0.1l0-0.1l0-0.2l0-0.1
		l0-0.1l0.1-0.2l0-0.1l0.1-0.1l0.1-0.1l0-0.1l0.1-0.1l0-0.1l0.1-0.1l0.1-0.1l0.1-0.1l0.1-0.1l0.1,0l0.1,0l0.1,0l0.2,0l0.1,0l0.1,0
		l0.1,0l0.1,0l0.2,0l0.1,0l0.1,0l0.2,0l0.1,0l0.1,0l0.2,0l0.1,0l0.1,0l0.2,0l0.1,0l0.1,0l0.2,0.1l0.1,0l0.1,0.1l0.2,0.1l0.1,0.1
		l0.1,0l0.1,0.1l0.1,0l0.1,0.1l0.2,0.2l0.1,0.1l0.1,0.1l0.2,0.1l0.1,0.1l0.1,0.1l0.2,0.2l0.1,0.1l0.1,0.1l0.2,0.2l0.2,0.2l0.1,0.1
		l0.1,0.1l0.1,0.2l0.1,0.2l0.1,0.1l0.1,0.1l0.1,0.2l0.1,0.2l0.1,0.1l0.1,0.1l0.1,0.2l0.1,0.2l0.1,0.1l0.1,0.1l0.2,0.3l0.2,0.3
		l0.1,0.1l0.1,0.1l0.2,0.3l0.2,0.3l0.1,0.1l0.1,0.1l0.2,0.3l0.2,0.3l0.1,0.1l0.1,0.2l0.2,0.5l0.4,0.7l0.5,1l0.6,1.1l0.7,1.3l0.7,1.4
		l0.7,1.4l0.7,1.4l0.7,1.4l0.7,1.3l0.6,1.1l0.5,1l0.4,0.7l0.2,0.5l0.1,0.2l0.1,0.1l0.1,0.3l0.1,0.1l0.1,0.1l0.1,0.3l0.1,0.1l0.1,0.1
		l0.1,0.2l0.1,0.1l0.1,0.1l0.1,0.2l0,0.1l0.1,0.1l0.1,0.2l0.1,0.1l0.1,0.1l0.1,0.2l0.1,0.1l0.1,0.1l0.1,0.2l0.1,0.1l0.1,0.1l0.1,0.2
		l0.1,0.1l0.1,0.1l0.1,0.2l0.1,0.1l0.1,0.1l0.2,0.2l0.1,0.1l0.1,0.1l0.2,0.1l0.1,0.1l0.1,0.1l0.2,0.1l0.1,0.1l0.1,0l0.2,0.1l0.1,0
		l0.1,0l0.3,0.1l0.1,0l0.1,0l0.3,0l0.1,0l0.2,0l0.3,0l0.2,0l0.1,0l0.2,0l0.2,0l0.1,0l0.1,0l0.3,0l0.3,0l0.3,0l0.1,0l0.1,0l0.3,0
		l0.3,0l0.3,0l0.1,0l0.2,0l0.4,0l0.4,0l0.2,0v0l0.2,0l0.4,0l0.4,0l0.2,0l0.2,0l0.4,0l0.4,0l0.2,0h0.1l0.3,0l0.3,0h0.1l0.1,0l0.3,0
		l0.3,0l0.1,0l0.1,0l0.3,0l0.3,0l0.1,0l0.1,0l0.3,0l0.3,0l0.1,0l0.1,0l0.2,0l0.2,0l0.1,0l0.1,0l0.2,0l0.2,0l0.1,0l0.2,0l0.3,0l0.2,0
		l0.1,0l0.3,0l0.1,0l0.1,0l0.2,0l0.1,0l0.1,0l0.2,0l0.2,0l0.1,0l0.2,0l0.3,0l0.2,0l0.1,0l0.3-0.1l0.1,0l0.1,0l0.2-0.1l0.1,0l0.1-0.1
		l0.2-0.1l0.1-0.1l0.1-0.1l0.2-0.1l0.1-0.1l0.1-0.1l0.2-0.2l0.1-0.1l0.1-0.1l0.1-0.2l0.1-0.1l0-0.1l0.1-0.2l0-0.1l0-0.1l0-0.2l0-0.1
		l0-0.1L247,115.9z M223.6,76.9l0,0.3l0,0.3l0,0.2l0,0.2l0,0.3l0,0.3l0,0.2l0,0.1l0,0.3l0,0.3l0,0.1l0,0.1l-0.1,0.3l-0.1,0.3l0,0.1
		l0,0.1l-0.1,0.3L223,81l0,0.1l-0.1,0.2l-0.1,0.3l-0.1,0.2l-0.1,0.1l-0.1,0.2l-0.1,0.2l-0.1,0.1l-0.1,0.1l-0.1,0.2l-0.1,0.1
		l-0.1,0.1l-0.2,0.2l-0.2,0.2l-0.1,0.1l-0.1,0.1l-0.2,0.2l-0.1,0.1l-0.1,0.1l-0.2,0.2l-0.2,0.2l-0.1,0.1l-0.1,0.1l-0.2,0.1l-0.2,0.1
		l-0.1,0.1l-0.1,0.1l-0.3,0.2l-0.1,0.1l-0.1,0.1l-0.2,0.1l-0.2,0.1l-0.1,0.1l-0.1,0l-0.3,0.1l-0.3,0.1l-0.1,0l-0.1,0l-0.2,0.1
		l-0.2,0.1l-0.1,0l-0.1,0l-0.3,0.1l-0.3,0.1l-0.1,0l-0.2,0l-0.3,0.1l-0.3,0.1l-0.2,0l-0.2,0l-0.3,0.1l-0.3,0.1l-0.2,0l-0.2,0l-0.4,0
		l-0.4,0l-0.2,0l-0.2,0l-0.4,0l-0.4,0l-0.2,0l-0.1,0l-0.3,0l-0.4,0l-0.3,0l-0.1,0l-0.1,0l-0.3,0l-0.4,0l-0.3,0l-0.1,0l-0.1,0l-0.2,0
		l-0.1,0l-0.1,0l-0.2,0l-0.1,0l-0.1,0l-0.2,0l-0.1,0l-0.1,0l-0.1,0l-0.1,0l0,0l0,0v-0.1v-0.3v-0.4v-0.3v-0.1l0-0.1l0-0.2l0-0.1
		l0-0.1l0-0.2l0-0.1l0-0.1l0-0.2l0-0.1v0l0-0.2l0-0.5l0-0.8l0-1.1l0-1.3l0-1.4l0-1.4l0-1.4l0-1.4l0-1.3l0-1.1l0-0.8l0-0.5l0-0.2
		l0-0.2l0-0.3l0-0.2l0-0.1l0-0.2l0-0.1l0-0.1l0-0.2l0-0.1l0-0.1l0-0.2l0-0.1l0-0.1l0-0.2l0-0.1l0-0.1l0-0.1l0-0.1l0-0.1l0-0.1l0-0.1
		l0-0.1l0.1-0.1l0.1-0.1l0.1,0l0.1,0l0.1,0l0.1,0l0.1,0l0.1,0l0.1,0l0.2,0l0.1,0l0.1,0l0.2,0l0.1,0l0.1,0l0.3,0l0.1,0l0.1,0l0.3,0
		l0.1,0l0.1,0l0.3,0l0.3,0l0.3,0l0.1,0l0.1,0l0.3,0l0.3,0l0.3,0l0.1,0l0.2,0l0.3,0l0.4,0l0.2,0l0.2,0l0.3,0.1l0.3,0.1l0.2,0l0.2,0
		l0.3,0.1l0.3,0.1l0.2,0v0l0.1,0l0.3,0.1l0.3,0.1l0.1,0l0.1,0.1l0.3,0.1l0.3,0.1l0.1,0.1l0.1,0.1l0.3,0.1l0.3,0.1l0.1,0.1v0l0.1,0.1
		l0.2,0.1l0.2,0.1l0.1,0.1l0.1,0.1l0.2,0.2l0.2,0.2l0.1,0.1l0.1,0.1l0.2,0.2l0.2,0.2l0.1,0.1l0.1,0.1l0.2,0.2l0.2,0.2l0.1,0.1
		l0.1,0.1l0.1,0.2l0.1,0.2l0.1,0.1l0.1,0.1l0.1,0.2l0.1,0.2l0.1,0.1l0,0.1l0.1,0.2l0.1,0.2l0,0.1l0,0.1l0.1,0.3l0.1,0.3l0,0.1l0,0.1
		l0.1,0.3l0.1,0.3l0,0.1l0,0.1l0.1,0.3l0.1,0.3l0,0.1l0,0.1l0,0.3l0,0.3l0,0.1l0,0.2l0,0.3l0,0.3l0,0.2L223.6,76.9z"/>
	<polygon class="st0" points="299.7,61 299.7,60.9 299.7,60.8 299.6,60.5 299.6,60.4 299.5,60.3 299.4,60 299.4,59.9 299.3,59.8 
		299.1,59.6 299,59.5 298.9,59.4 298.7,59.2 298.6,59.2 298.4,59.1 298.2,59 298.1,59 297.9,59 297.7,58.9 297.5,58.9 297.4,58.9 
		297.2,59 297,59 296.9,59 296.7,59.1 296.6,59.1 296.4,59.2 296.2,59.3 296.1,59.4 296,59.4 295.9,59.6 295.8,59.7 295.7,59.8 
		295.6,59.9 295.6,60 295.5,60.1 295.4,60.2 295.4,60.3 295.3,60.3 295.3,60.5 295.2,60.6 295.2,60.6 295.1,60.8 295.1,60.8 
		295.1,60.9 295,61 295,61.1 294.9,61.2 294.9,61.3 294.8,61.3 294.8,61.4 294.7,61.5 294.6,61.7 294.5,61.8 294.4,61.8 294.3,61.9 
		294.2,62 294.1,62.1 294,62.2 293.9,62.2 293.8,62.3 293.7,62.3 293.6,62.4 293.5,62.4 293.4,62.5 293.3,62.5 293.2,62.5 293,62.6 
		292.8,62.6 292.8,62.6 292.6,62.6 292.5,62.6 292.4,62.6 292.2,62.6 292,62.6 291.9,62.7 291.7,62.7 291.5,62.7 291.3,62.7 
		290.8,62.7 289.9,62.7 288.7,62.7 287.2,62.7 285.5,62.7 283.6,62.7 281.6,62.7 279.4,62.7 277.2,62.7 274.8,62.7 272.5,62.7 
		270.2,62.7 268,62.7 265.8,62.7 263.7,62.7 261.9,62.7 260.2,62.7 258.7,62.7 257.5,62.7 256.6,62.7 256,62.7 255.8,62.7 
		255.7,62.7 255.4,62.7 255.1,62.6 255,62.6 254.9,62.6 254.6,62.6 254.4,62.6 254.3,62.6 254.1,62.6 253.9,62.6 253.6,62.6 
		253.5,62.6 253.5,62.6 253.4,62.6 253.1,62.5 253,62.5 253,62.5 252.8,62.5 252.5,62.5 252.4,62.4 252.3,62.4 252.1,62.4 252,62.3 
		251.9,62.3 251.8,62.3 251.7,62.2 251.6,62.2 251.4,62.1 251.4,62.1 251.3,62 251.2,62 251.1,61.9 251.1,61.8 251.1,61.8 251,61.7 
		251,61.6 250.9,61.5 250.9,61.4 250.8,61.3 250.8,61.2 250.7,61.1 250.6,61 250.6,60.9 250.5,60.9 250.4,60.7 250.4,60.6 
		250.3,60.6 250.2,60.4 250.1,60.4 250,60.3 249.8,60.2 249.7,60.1 249.6,60.1 249.4,60 249.3,60 249.2,59.9 249,59.9 248.9,59.8 
		248.8,59.8 248.5,59.8 248.4,59.8 248.3,59.7 248,59.7 247.9,59.7 247.7,59.7 247.5,59.8 247.4,59.8 247.3,59.8 247.1,59.8 
		246.9,59.9 246.8,59.9 246.6,60.1 246.5,60.1 246.4,60.2 246.2,60.4 246.1,60.5 246,60.6 245.9,60.8 245.8,60.9 245.8,61 
		245.7,61.2 245.7,61.3 245.6,61.4 245.5,61.6 245.5,61.7 245.4,61.9 245.3,62.4 245,63.1 244.7,64.1 244.3,65.2 243.9,66.5 
		243.5,67.8 243,69.2 242.6,70.5 242.2,71.8 241.8,72.9 241.5,73.9 241.2,74.7 241.1,75.2 241,75.3 241,75.4 241,75.6 240.9,75.7 
		240.9,75.8 240.9,76 240.9,76.1 240.9,76.1 240.9,76.3 240.9,76.4 240.9,76.6 241,76.8 241,76.9 241,77.1 241.1,77.3 241.2,77.5 
		241.3,77.6 241.5,77.8 241.6,77.9 241.7,78 241.9,78.2 242,78.3 242.2,78.3 242.5,78.4 242.6,78.5 242.7,78.5 243,78.5 243.2,78.6 
		243.3,78.5 243.6,78.5 243.8,78.5 243.9,78.4 244.2,78.4 244.3,78.3 244.5,78.2 244.7,78.1 244.8,78 244.9,78 245.1,77.8 
		245.3,77.7 245.4,77.6 245.6,77.5 245.7,77.4 245.7,77.3 245.9,77.1 246,77 246.1,76.9 246.3,76.6 246.4,76.5 246.5,76.4 
		246.6,76.2 246.7,76.1 246.8,76 247,75.7 247.1,75.6 247.1,75.5 247.3,75.3 247.4,75.1 247.5,75 247.6,74.8 247.7,74.7 247.8,74.5 
		248,74.3 248.1,74.2 248.2,74 248.3,73.8 248.4,73.7 248.5,73.6 248.7,73.3 248.8,73.2 248.8,73.1 249,73 249.1,72.8 249.2,72.7 
		249.3,72.6 249.5,72.4 249.6,72.3 249.7,72.2 249.9,72 250,71.9 250.1,71.8 250.3,71.6 250.6,71.3 250.7,71.2 250.8,71.2 251,71 
		251.2,70.8 251.3,70.8 251.4,70.7 251.7,70.5 252,70.3 252.1,70.3 252.2,70.2 252.4,70.1 252.7,70 252.8,69.9 252.9,69.9 
		253.2,69.7 253.5,69.6 253.6,69.5 253.8,69.5 254,69.4 254.3,69.3 254.5,69.3 254.6,69.2 254.9,69.2 255.2,69.1 255.3,69 
		255.3,69.1 255.4,69 255.8,68.9 256.2,68.9 256.3,68.8 256.5,68.8 256.8,68.8 257.1,68.7 257.3,68.7 257.5,68.7 257.8,68.6 
		258.2,68.6 258.4,68.6 258.5,68.6 258.8,68.6 259.1,68.5 259.4,68.5 259.6,68.5 259.7,68.5 260,68.5 260.4,68.5 260.7,68.5 
		260.8,68.5 260.9,68.5 261.3,68.5 261.7,68.5 262.2,68.5 262.5,68.5 262.6,68.5 262.8,68.5 263,68.5 263.1,68.5 263.2,68.5 
		263.4,68.5 263.5,68.5 263.5,68.5 263.7,68.6 263.8,68.6 263.9,68.6 264,68.6 264,68.7 264.1,68.7 264.1,68.7 264.2,68.8 
		264.2,68.8 264.3,68.9 264.3,69 264.3,69 264.4,69 264.4,69.2 264.4,69.3 264.4,69.4 264.5,69.5 264.5,69.6 264.5,69.7 264.5,69.9 
		264.5,70 264.5,70.1 264.6,70.4 264.6,70.5 264.6,70.7 264.6,71 264.6,71.1 264.6,71.2 264.6,71.5 264.6,71.7 264.6,71.8 264.6,72 
		264.6,72.6 264.6,73.5 264.6,74.7 264.6,76.2 264.6,77.9 264.6,79.8 264.6,81.8 264.6,84 264.6,86.3 264.6,88.6 264.6,90.9 
		264.6,93.3 264.6,95.5 264.6,97.7 264.6,99.8 264.6,101.7 264.6,103.4 264.6,104.9 264.6,106.1 264.6,107 264.6,107.5 264.6,107.7 
		264.6,107.9 264.6,108.2 264.6,108.5 264.6,108.7 264.6,108.8 264.6,109.1 264.6,109.4 264.6,109.6 264.6,109.7 264.5,109.9 
		264.5,110.2 264.5,110.3 264.5,110.4 264.5,110.6 264.4,110.8 264.4,110.9 264.4,111.1 264.3,111.3 264.3,111.5 264.3,111.6 
		264.2,111.7 264.2,111.9 264.1,112 264.1,112.1 264,112.4 264,112.5 263.9,112.6 263.8,112.7 263.8,112.8 263.7,112.9 263.6,113 
		263.5,113 263.4,113.1 263.4,113.2 263.3,113.2 263.2,113.3 263.1,113.3 263,113.3 262.9,113.4 262.7,113.4 262.5,113.5 
		262.3,113.5 262.2,113.5 262,113.6 261.8,113.6 261.7,113.6 261.5,113.7 261.3,113.7 261.2,113.7 260.9,113.7 260.8,113.8 
		260.6,113.8 260.4,113.8 260.2,113.8 260.1,113.9 259.9,113.9 259.8,113.9 259.6,113.9 259.4,114 259.3,114 259.2,114 258.9,114 
		258.8,114 258.7,114 258.5,114.1 258.4,114.1 258.2,114.1 258,114.2 257.9,114.2 257.8,114.2 257.6,114.3 257.5,114.3 257.3,114.4 
		257.1,114.5 257,114.5 256.9,114.6 256.7,114.7 256.6,114.8 256.5,114.9 256.3,115 256.2,115.1 256.1,115.2 256,115.5 255.9,115.6 
		255.9,115.7 255.8,116 255.7,116.1 255.7,116.3 255.7,116.5 255.7,116.7 255.7,116.8 255.7,117 255.7,117.1 255.7,117.2 
		255.8,117.5 255.8,117.6 255.8,117.7 255.9,117.9 256,118 256.1,118.1 256.2,118.3 256.3,118.4 256.4,118.5 256.6,118.6 
		256.7,118.7 256.8,118.7 257,118.8 257.1,118.9 257.2,118.9 257.4,118.9 257.5,118.9 257.6,118.9 257.7,118.9 257.8,119 257.9,119 
		258.1,119 258.2,119 258.3,119 258.6,119 258.8,119 258.9,119 259,119 259.2,119 259.3,119 259.4,119 259.6,118.9 259.7,118.9 
		259.8,118.9 260.1,118.9 260.2,118.9 260.3,118.9 260.6,118.9 260.8,118.9 260.9,118.9 261.1,118.9 261.3,118.9 261.4,118.9 
		261.5,118.9 261.8,118.9 262,118.9 262.2,118.9 262.3,118.9 262.6,118.9 262.8,118.9 263,118.9 263.1,118.9 263.4,118.9 
		263.7,118.9 263.9,118.9 264,118.9 264.3,118.9 264.7,118.9 264.8,118.9 265,118.9 265.4,118.9 265.7,118.9 265.9,118.9 266,118.9 
		266.3,118.9 266.6,118.8 266.9,118.8 267,118.8 267.1,118.8 267.4,118.8 267.8,118.8 268.1,118.8 268.2,118.8 268.4,118.8 
		268.7,118.8 269.1,118.8 269.4,118.8 269.5,118.8 269.7,118.8 270,118.8 270.4,118.8 270.8,118.8 270.9,118.8 271.1,118.8 
		271.4,118.8 271.9,118.8 272.2,118.8 272.4,118.8 272.5,118.8 272.9,118.8 273.4,118.8 273.8,118.8 273.9,118.8 274.1,118.8 
		274.5,118.8 275,118.8 275.4,118.8 275.5,118.8 275.7,118.8 276.1,118.8 276.6,118.8 277.3,118.8 277.9,118.8 278.5,118.8 
		278.9,118.8 279,118.8 279.2,118.8 279.5,118.8 279.9,118.8 280,118.8 280.2,118.8 280.6,118.8 281,118.9 281.1,118.9 281.3,118.9 
		281.7,118.9 282.1,118.9 282.2,118.9 282.4,118.9 282.8,119 283.2,119 283.4,119 283.5,119 283.8,119 283.9,119 284,118.9 
		284.2,118.9 284.4,118.9 284.5,118.9 284.7,118.9 284.8,118.9 284.9,118.9 285.1,118.8 285.2,118.8 285.3,118.8 285.5,118.7 
		285.7,118.6 285.8,118.5 286,118.4 286.1,118.3 286.1,118.2 286.3,118.1 286.4,118 286.4,117.9 286.5,117.7 286.6,117.5 
		286.6,117.4 286.6,117.2 286.7,117.1 286.7,117 286.7,116.9 286.7,116.8 286.7,116.7 286.7,116.5 286.7,116.4 286.7,116.2 
		286.7,116 286.7,115.7 286.7,115.5 286.7,115.4 286.6,115.1 286.6,115 286.5,114.9 286.4,114.6 286.3,114.5 286.2,114.4 286,114.3 
		285.8,114.2 285.7,114.1 285.5,114 285.4,114 285.3,114 285.1,113.9 285,113.9 284.9,113.9 284.7,113.8 284.6,113.8 284.5,113.8 
		284.3,113.8 284.2,113.8 284.1,113.7 283.9,113.7 283.7,113.7 283.6,113.7 283.4,113.7 283.3,113.7 283.1,113.7 282.9,113.6 
		282.8,113.6 282.6,113.6 282.4,113.6 282.2,113.6 282.2,113.6 282.1,113.6 281.8,113.5 281.7,113.5 281.5,113.5 281.3,113.5 
		281.1,113.5 281.1,113.5 281,113.4 280.7,113.4 280.5,113.4 280.3,113.3 280,113.3 279.9,113.2 279.8,113.2 279.6,113.2 
		279.4,113.1 279.3,113.1 279.1,113.1 278.8,113 278.7,112.9 278.6,112.9 278.4,112.9 278.4,112.8 278.3,112.8 278.3,112.8 
		278.2,112.7 278.2,112.7 278.1,112.6 278.1,112.6 278,112.5 278,112.4 277.9,112.3 277.9,112.2 277.9,112.1 277.8,112 277.8,111.9 
		277.8,111.9 277.8,111.8 277.8,111.6 277.8,111.5 277.8,111.4 277.7,111.2 277.7,111.1 277.7,111 277.7,110.7 277.7,110.6 
		277.7,110.5 277.7,110.2 277.7,110.1 277.7,110 277.7,109.6 277.7,109.3 277.7,108.9 277.7,108.8 277.7,108.7 277.7,108.3 
		277.7,107.9 277.7,107.6 277.7,107.5 277.7,107.3 277.6,107 277.6,106.6 277.6,106.3 277.6,106.1 277.6,106 277.6,105.6 
		277.6,105.2 277.6,104.9 277.6,104.7 277.6,104.6 277.6,104.2 277.5,103.8 277.5,103.5 277.5,103.3 277.5,103.2 277.5,102.8 
		277.5,102.3 277.5,102 277.5,101.8 277.5,101.7 277.5,101.4 277.5,101.2 277.5,101.1 277.5,100.8 277.5,100.6 277.5,100.5 
		277.5,100.3 277.6,100 277.6,99.9 277.6,99.8 277.6,99.5 277.6,99.2 277.6,99.1 277.6,99 277.6,98.7 277.6,98.4 277.6,98.2 
		277.6,98.1 277.6,97.8 277.6,97.4 277.6,97.3 277.6,97.1 277.6,96.8 277.6,96.4 277.6,96.2 277.6,96.1 277.6,95.9 277.6,95.8 
		277.6,95.7 277.6,95.5 277.6,95.4 277.6,95.3 277.6,95.1 277.6,95 277.5,94.9 277.5,94.8 277.5,94.7 277.5,94.6 277.5,94.6 
		277.5,94.5 277.5,94.3 277.5,93.8 277.5,92.9 277.5,91.7 277.5,90.4 277.5,88.8 277.5,87.1 277.5,85.4 277.5,83.5 277.5,81.7 
		277.5,79.9 277.4,78.2 277.4,76.7 277.4,75.3 277.4,74.2 277.4,73.3 277.4,72.7 277.4,72.5 277.4,72.4 277.4,72.2 277.4,71.9 
		277.4,71.8 277.4,71.7 277.4,71.5 277.4,71.2 277.4,71.1 277.4,71 277.4,70.7 277.4,70.6 277.5,70.4 277.5,70.2 277.5,70.1 
		277.5,69.9 277.5,69.7 277.5,69.6 277.5,69.5 277.6,69.3 277.6,69.2 277.6,69.1 277.6,69 277.6,69 277.7,68.9 277.7,68.8 
		277.7,68.8 277.7,68.8 277.8,68.7 277.8,68.7 277.9,68.7 278,68.6 278,68.6 278.1,68.6 278.2,68.6 278.3,68.5 278.5,68.5 
		278.6,68.5 278.7,68.5 278.9,68.5 279,68.5 279.1,68.5 279.4,68.5 279.5,68.5 279.6,68.5 279.9,68.5 280,68.5 280.2,68.5 
		280.5,68.5 280.9,68.5 281.3,68.5 281.4,68.5 281.6,68.5 281.9,68.5 282.3,68.5 282.6,68.5 282.8,68.5 282.9,68.5 283.2,68.5 
		283.6,68.6 283.9,68.6 284,68.6 284.2,68.6 284.4,68.6 284.8,68.6 285.1,68.6 285.2,68.7 285.4,68.7 285.8,68.7 286.1,68.7 
		286.3,68.8 286.5,68.8 286.8,68.8 287.2,68.9 287.3,68.9 287.5,68.9 287.8,69 288.2,69 288.3,69.1 288.4,69.1 288.7,69.1 289,69.2 
		289.2,69.2 289.3,69.3 289.6,69.3 289.8,69.4 290,69.4 290.1,69.5 290.3,69.5 290.5,69.6 290.6,69.6 290.7,69.7 290.9,69.8 
		291.2,69.9 291.3,69.9 291.4,70 291.6,70.1 291.8,70.2 291.9,70.3 292.1,70.4 292.3,70.5 292.4,70.6 292.6,70.7 292.6,70.8 
		292.7,70.9 292.9,71 293,71.1 293.1,71.2 293.2,71.3 293.2,71.4 293.3,71.5 293.4,71.6 293.4,71.7 293.4,71.8 293.5,71.9 293.5,72 
		293.6,72.1 293.6,72.2 293.7,72.3 293.7,72.3 293.7,72.4 293.8,72.6 293.8,72.6 293.8,72.7 293.9,72.9 293.9,73 293.9,73.1 
		293.9,73.3 294,73.4 294,73.4 294,73.5 294,73.7 294,73.8 294,73.8 294.1,73.9 294.1,74.1 294.1,74.2 294.1,74.3 294.2,74.5 
		294.2,74.6 294.2,74.7 294.3,74.8 294.3,74.9 294.3,75 294.4,75.2 294.4,75.3 294.4,75.4 294.5,75.6 294.6,75.7 294.6,75.8 
		294.7,76 294.7,76.1 294.8,76.2 294.9,76.4 295,76.5 295.1,76.6 295.3,76.8 295.4,76.8 295.5,76.9 295.7,77 295.8,77.1 296,77.2 
		296.2,77.2 296.4,77.3 296.5,77.3 296.8,77.3 296.9,77.3 297.1,77.3 297.4,77.3 297.5,77.2 297.6,77.2 297.9,77.1 298,77 
		298.2,76.9 298.4,76.8 298.5,76.7 298.6,76.6 298.8,76.3 298.9,76.2 299,76.1 299.1,75.8 299.2,75.7 299.2,75.5 299.3,75.3 
		299.3,75.1 299.3,75 299.4,74.7 299.4,74.6 299.4,74.4 299.4,73.8 299.4,73 299.4,72 299.5,70.7 299.5,69.4 299.5,68 299.6,66.6 
		299.6,65.2 299.7,64 299.7,62.9 299.7,62.1 299.7,61.6 299.7,61.4 299.7,61.3 	"/>
	<path class="st0" d="M496,64.3l0-0.3l0-0.2l0-0.1l-0.1-0.3l0-0.1l-0.1-0.1l-0.1-0.2l-0.1-0.1l-0.1-0.1l-0.2-0.2l-0.1-0.1l-0.1-0.1
		l-0.2-0.2l-0.1-0.1l-0.1,0l-0.2-0.1l-0.1-0.1l-0.1,0l-0.2-0.1l-0.1,0l-0.1,0l-0.2,0l-0.1,0h-0.1H493h-0.4h-0.3h-0.1l-0.1,0l-0.3,0
		l-0.3,0l-0.1,0l-0.1,0l-0.3,0l-0.3,0l-0.1,0l-0.2,0l-0.3,0l-0.3,0l-0.2,0l-0.2,0l-0.4,0l-0.4,0l-0.2,0l-0.2,0l-0.4,0l-0.4,0l-0.2,0
		l-0.1,0l-0.3,0l-0.4,0l-0.3,0l-0.1,0l-0.1,0l-0.3,0l-0.4,0l-0.3,0l-0.1,0l-0.1,0l-0.3,0l-0.4,0l-0.3,0l-0.1,0l-0.1,0l-0.4,0l-0.4,0
		l-0.4,0l-0.1,0l-0.2,0l-0.4,0l-0.4,0l-0.4,0l-0.2,0h-0.2h-0.4h-0.5h-0.5h-0.4h-0.2l-0.2,0l-0.3,0l-0.2,0l-0.1,0l-0.3,0l-0.1,0v0
		l-0.1,0l-0.2,0l-0.1,0l-0.1,0l-0.2,0l-0.1,0l-0.1,0l-0.2,0l-0.1,0l-0.2,0l-0.3,0l-0.2,0l-0.1,0l-0.3,0l-0.1,0l-0.1,0.1l-0.3,0.1
		l-0.1,0.1l-0.1,0.1l-0.2,0.2l-0.1,0.1l-0.1,0.1l-0.2,0.2l-0.1,0.1l-0.1,0.1l-0.1,0.3l-0.1,0.1l0,0.1l-0.1,0.3l0,0.1l0,0.1l0,0.3
		l0,0.2l0,0.1l0,0.3l0,0.1l0.1,0.1l0.1,0.2l0.1,0.1l0.1,0.1l0.2,0.2l0.1,0.1l0.1,0.1l0.2,0.2l0.1,0.1l0.1,0.1l0.2,0.1l0.1,0.1l0.1,0
		l0.2,0.1l0.1,0l0.1,0l0.2,0l0.1,0l0.1,0l0.2,0l0.1,0l0.1,0l0.2,0l0.1,0l0.1,0l0.2,0l0.1,0l0.1,0l0.2,0l0.1,0l0.1,0l0.2,0l0.1,0v0
		l0.1,0l0.2,0l0.1,0l0.1,0l0.2,0l0.1,0l0.1,0l0.2,0l0.1,0l0.1,0l0.2,0l0.1,0l0.1,0l0.2,0l0.1,0l0.1,0l0.2,0.1l0.1,0l0.1,0l0.2,0.1
		l0.1,0l0,0l0,0l0,0l0,0l0.1,0.1l0.1,0.1l0.1,0.1l0.1,0.1l0,0.1l0.1,0.2l0,0.1h0l0,0.1l0,0.1l0,0.1l0.1,0.3l0,0.1l0,0.1l0,0.2l0,0.1
		l0,0.1l0,0.2l0,0.1l0,0.1l0,0.2l0,0.2l0,0.1v0.2l0,0.6l0,0.9l0,1.2l0,1.4l0,1.6l0,1.8l0,1.9l0,2l0,2l0,2l0,2l0,1.9l0,1.8l0,1.6
		l0,1.4l0,1.2l0,0.9l0,0.6l0,0.2v0.1l-0.1-0.2l-0.4-0.4l-0.6-0.7l-0.8-0.9l-1-1.1l-1.1-1.3l-1.3-1.5l-1.4-1.6l-1.5-1.8l-1.6-1.9
		l-1.6-1.9l-1.7-2l-1.7-2l-1.7-2l-1.7-2l-1.6-1.9l-1.6-1.9l-1.5-1.8l-1.4-1.6l-1.3-1.5l-1.1-1.3l-1-1.1l-0.8-0.9l-0.6-0.7l-0.4-0.4
		l-0.1-0.1l-0.1-0.1l-0.1-0.1l-0.1-0.1l-0.1-0.1l-0.1-0.1l-0.1-0.1l0-0.1l-0.1-0.1l0-0.1l0,0l0-0.1l-0.1-0.1l0-0.1l-0.1-0.1
		l-0.1-0.1l-0.1-0.1l-0.1-0.1l-0.1-0.1l-0.1-0.1l-0.1-0.1l-0.2-0.1l-0.1-0.1l-0.1,0l-0.2-0.1l-0.1,0l-0.1,0l-0.2-0.1l-0.1,0l-0.1,0
		l-0.2,0l-0.1,0l-0.1,0l-0.2,0l-0.1,0l-0.1,0l-0.2,0l-0.1,0l-0.2,0l-0.3,0l-0.2,0l-0.1,0l-0.2,0l-0.2,0l-0.1,0l-0.1,0l-0.3,0l-0.3,0
		l-0.1,0l-0.1,0l-0.3,0l-0.3,0l-0.1,0l-0.1,0l-0.3,0l-0.3,0H445l-0.1,0l-0.3,0l-0.3,0l-0.3,0l-0.1,0l-0.2,0l-0.4,0l-0.4,0l-0.2,0
		l-0.2,0l-0.4,0l-0.4,0l-0.2,0l-0.2,0l-0.4,0l-0.4,0l-0.2,0h-0.1l-0.3,0l-0.3,0l-0.1,0l-0.1,0l-0.2,0l-0.2,0l-0.1,0l-0.2,0l-0.3,0
		l-0.2,0l-0.2,0l-0.3,0l-0.2,0l-0.1,0l-0.3,0l-0.1,0h-0.1h-0.3h-0.4h-0.3H436l-0.1,0l-0.2,0l-0.2,0l-0.1,0l-0.2,0l-0.3,0l-0.2,0
		l-0.1,0l-0.2,0l-0.1,0l-0.1,0l-0.2,0l-0.1,0l-0.1,0l-0.2,0l-0.1,0l-0.1,0l-0.1,0H433h-0.2h-0.1l-0.1,0l-0.2,0l-0.1,0l-0.1,0l-0.2,0
		l-0.1,0l-0.1,0l-0.2,0l-0.1,0l-0.1,0l-0.2,0.1l-0.1,0l-0.1,0.1l-0.2,0.1l-0.1,0.1l-0.1,0.1l-0.2,0.2l-0.1,0.1l-0.1,0.1l-0.1,0.2
		l-0.1,0.1l0,0.1l-0.1,0.2l0,0.1l0,0.2l0,0.3l0,0.2l0,0.1l0,0.3l0,0.1l0.1,0.1l0.1,0.3l0.1,0.1l0.1,0.1l0.2,0.2l0.1,0.1l0.1,0.1
		l0.2,0.2l0.1,0.1l0.1,0.1l0.2,0.1l0.1,0.1l0.1,0.1l0.3,0.1l0.1,0.1l0.2,0l0.3,0.1l0.2,0l0.2,0l0.3,0l0.2,0l0.1,0l0.2,0l0.2,0l0.1,0
		h0.1h0.3h0.3h0.1l0.1,0l0.2,0l0.1,0l0.1,0l0.2,0l0.1,0l0.1,0l0.2,0.1l0.1,0l0.1,0l0.2,0.1l0.1,0l0.1,0l0.2,0.1l0.1,0l0.1,0.1
		l0.2,0.1l0.1,0.1l0.1,0.1l0.1,0.1l0.1,0.1l0.1,0.1l0.1,0.2l0.1,0.1l0.1,0.1l0.1,0.1l0.1,0.1l0,0.1l0.1,0.1l0,0.1l0,0.1l0.1,0.2
		l0,0.1l0,0.1l0,0.1l0,0.1l0,0.2l0,0.1v0v0l0,0.2l0,0.6l0,0.9l0,1.2l0,1.5l0,1.7l0,1.9l0,2.1l0,2.2l0,2.3l0,2.4l0,2.5l-0.1,2.5
		l0,2.4l0,2.3l0,2.2l0,2.1l0,1.9l0,1.7l0,1.5l0,1.2l0,0.9l0,0.6l0,0.2l0,0.2l0,0.3l0,0.2l0,0.1l0,0.2l0,0.1l0,0.1l0,0.2l0,0.1l0,0.1
		l0,0.1l0,0.1L437,112l0,0.1l-0.1,0.1l0,0.1l-0.1,0.1l-0.1,0.1l0,0l0,0l-0.1,0.1l-0.1,0.1l0,0l0,0l-0.1,0.1l-0.1,0.1l-0.1,0l-0.1,0
		l-0.1,0l-0.1,0l-0.1,0v0l-0.1,0l-0.1,0v0l-0.1,0l-0.2,0l-0.1,0l-0.1,0l-0.1,0l-0.1,0l-0.1,0l-0.2,0l-0.1,0l-0.1,0l-0.2,0l-0.1,0
		l-0.1,0l-0.2,0.1l-0.3,0l-0.1,0l-0.1,0l-0.2,0l-0.2,0l-0.1,0l-0.2,0l-0.3,0.1l-0.2,0l-0.1,0l-0.3,0.1l-0.1,0l-0.1,0l-0.2,0.1
		l-0.1,0l-0.1,0l-0.2,0.1l-0.1,0l-0.1,0l-0.2,0.1l-0.1,0l-0.1,0.1l-0.2,0.1l-0.1,0.1l-0.1,0.1l-0.2,0.2l-0.1,0.1l-0.1,0.1l-0.1,0.1
		l0,0l-0.1-0.1l-0.1-0.1l-0.2-0.1l-0.1,0l-0.1-0.1l-0.2-0.1l-0.1-0.1l-0.1,0l-0.2-0.1l-0.1,0l-0.1,0l-0.2-0.1l-0.1,0l-0.1,0
		l-0.2-0.1l-0.1,0L427,114l-0.2-0.1l-0.1-0.1l-0.1-0.1l-0.2-0.1l-0.1-0.1l-0.1-0.1l-0.2-0.1l-0.1-0.1l-0.1-0.1l-0.2-0.1l-0.1-0.1
		l-0.1-0.1l-0.2-0.2l-0.1-0.1l-0.1-0.1l-0.2-0.1l-0.2-0.1l-0.1-0.1l-0.1-0.1l-0.2-0.2l-0.1-0.1l-0.1-0.1l-0.2-0.2l-0.1-0.1l-0.1-0.1
		l-0.2-0.2l-0.1-0.1L423,111l-0.1-0.2l-0.1-0.2l-0.1-0.1l0-0.1l-0.1-0.2l-0.1-0.2l0-0.1l-0.1-0.1l-0.1-0.3l-0.1-0.3l-0.1-0.1l0-0.1
		l-0.1-0.3l-0.1-0.3l0-0.1l-0.1-0.1l-0.1-0.3l-0.1-0.3l0-0.1l-0.1-0.1l-0.1-0.3l-0.1-0.3l0-0.1l-0.1-0.2l-0.1-0.3l-0.1-0.3l-0.1-0.2
		l-0.1-0.2l-0.1-0.4l-0.1-0.4l-0.1-0.2l0-0.1l-0.1-0.3l-0.1-0.3l-0.1-0.3l0-0.1l0-0.1l-0.1-0.3l-0.1-0.3l-0.1-0.3l0-0.1l-0.1-0.2
		l-0.2-0.5l-0.3-0.9l-0.4-1.2l-0.5-1.4l-0.6-1.7l-0.7-1.9l-0.7-2l-0.8-2.2l-0.8-2.3l-0.8-2.4l-0.9-2.4l-0.9-2.4l-0.9-2.4l-0.9-2.4
		l-0.8-2.3l-0.8-2.2l-0.7-2l-0.7-1.9l-0.6-1.7l-0.5-1.4l-0.4-1.2l-0.3-0.9l-0.2-0.5l-0.1-0.2l0-0.1l-0.1-0.3l0-0.1h0l0-0.1l-0.1-0.2
		l0-0.1l0-0.1l-0.1-0.2l0-0.1l0-0.1l-0.1-0.2l0-0.1l0-0.1l-0.1-0.2l0-0.1l-0.1-0.1l-0.1-0.2l-0.1-0.1l-0.1-0.1l-0.2-0.2l-0.1-0.1
		l-0.1-0.1l-0.2-0.1l-0.1-0.1l-0.1,0l-0.3-0.1l-0.1,0l-0.2,0l-0.3,0l-0.2,0l-0.1,0.1l-0.2,0.1l-0.1,0.1l-0.1,0.1l-0.2,0.2l-0.1,0.1
		l-0.1,0.1l-0.1,0.2l-0.1,0.1l-0.1,0.1l-0.1,0.2l-0.1,0.1l0,0.1l-0.1,0.2l0,0.1l0,0.1l-0.1,0.2l0,0.1l0,0.1l-0.1,0.2l0,0.1l0,0.1
		l-0.1,0.2l0,0.1h0l0,0.1l-0.1,0.2l0,0.1l-0.1,0.2l-0.2,0.5l-0.4,0.9l-0.5,1.2l-0.7,1.4l-0.8,1.7l-0.9,1.9l-0.9,2.1l-1,2.2l-1.1,2.4
		l-1.1,2.5l-1.1,2.5L390,84l-1.2,2.6l-1.2,2.6l-1.2,2.5l-1.1,2.5l-1.1,2.4l-1,2.2l-0.9,2.1l-0.9,1.9l-0.8,1.7l-0.6,1.4l-0.5,1.2
		l-0.4,0.9l-0.2,0.5l-0.1,0.2l-0.1,0.1l-0.1,0.3l-0.1,0.3l-0.1,0.1l-0.1,0.1l-0.2,0.3l-0.2,0.3l-0.1,0.1l-0.1,0.1l-0.1,0.2l-0.1,0.2
		l-0.1,0.1l-0.1,0.1l-0.2,0.2l-0.2,0.2l-0.1,0.1l-0.1,0.1l-0.2,0.2l-0.1,0.2l-0.1,0.1l-0.1,0.1l-0.2,0.2l-0.2,0.2l-0.1,0.1l-0.1,0.1
		l-0.2,0.2l-0.2,0.2l-0.1,0.1l-0.1,0.1l-0.2,0.1l-0.1,0.1l-0.1,0.1l-0.2,0.2l-0.1,0.1l-0.1,0l-0.2,0.1l-0.1,0l-0.1,0.1l-0.3,0.1
		l-0.1,0.1l-0.1,0l-0.2,0.1l-0.1,0l-0.1,0l-0.2,0.1l-0.1,0l-0.1,0l-0.2,0.1l-0.1,0l-0.1,0l-0.2,0.1l-0.1,0l-0.1,0l-0.2,0.1l-0.1,0
		l-0.1,0l-0.1,0l0,0l-0.1-0.1l-0.1-0.1l-0.2-0.1l-0.1-0.1l-0.1,0l-0.2-0.1l-0.1,0l-0.1,0l-0.2-0.1l-0.1,0l-0.1,0l-0.3-0.1l-0.1,0v0
		l-0.1,0l-0.3-0.1l-0.1,0l-0.1,0l-0.3-0.1l-0.3-0.1l-0.1,0l-0.1,0l-0.2-0.1l-0.2-0.1l-0.1,0l-0.1,0l-0.2-0.1l-0.2-0.1l-0.1,0v0
		l-0.1-0.1l-0.3-0.1l-0.1,0l-0.1-0.1l-0.3-0.1l-0.1,0l-0.1,0l-0.2-0.1l-0.1,0l-0.1,0l-0.2-0.1l-0.1,0l-0.1,0l-0.2-0.1l-0.1,0l0,0
		l-0.1,0l0,0l0,0l0-0.1l0-0.1l0-0.1l0-0.1l0-0.1l0-0.2l0-0.1l0-0.1l0-0.2l0-0.1l0,0l0-0.1l0-0.2l0-0.1h0l0-0.1l0-0.2l0-0.2l0-0.1
		l0-0.1l0-0.2l0-0.2l0-0.1l0-0.1l0-0.3l0-0.3l0-0.1l0-0.1l0-0.3l0-0.3l0-0.1l0-0.1l0-0.3l0-0.3l0-0.1v-0.2l0-0.3l0-0.3v-0.2v-0.2
		v-0.4v-0.4v-0.2l0-0.2l0-0.3l0-0.2l0-0.1l0-0.3l0-0.1l0-0.1l0-0.3l0-0.1l0-0.1l0-0.2l0-0.1l0-0.1l0-0.2l0-0.1l0-0.1l0-0.2l0-0.1
		v-0.2l0-0.6l0-0.9l0-1.1l0-1.3l0-1.5l0-1.6l0-1.7l0-1.7l0-1.7l0-1.6l0-1.5l0-1.4l0-1.1l0-0.9l0-0.6v-0.2l0-0.1l0-0.3l0-0.3l0-0.1
		l0-0.2l0-0.3l0-0.3l0-0.2l0-0.2l0-0.4l0-0.4l0-0.2l0-0.2l0-0.4l0-0.4l0-0.2l0-0.1l0-0.3l0-0.3l0-0.3l0-0.1l0-0.1l0-0.3l0-0.4l0-0.3
		v-0.1l0-0.2l0-0.4l0-0.4l0-0.2l0-0.2l0-0.3l0-0.3l0-0.2l0-0.1l0-0.3l0-0.3l0-0.1v-0.1l0-0.3l0-0.3l0-0.1v0l0-0.1l0-0.2l0-0.2v-0.1
		l0-0.2l0-0.3l0-0.2l0-0.2l0-0.3l0-0.2l0-0.1l0-0.2l0-0.1l0-0.1l0-0.2l0-0.1l0-0.1l0-0.1l0-0.1l0-0.1l0-0.1l0.1-0.1l0.1-0.1l0.1-0.1
		l0.1-0.1l0.1-0.1l0.1-0.1l0.1-0.1l0.1-0.1l0.1,0l0.1,0l0.1,0L365,68l0.1,0l0.1,0l0.3-0.1l0.1,0l0.2,0l0.3-0.1l0.2,0v0l0.1,0l0.2,0
		l0.1,0l0.1,0l0.3,0l0.1,0l0.1,0l0.2,0l0.1,0l0.1,0l0.2,0l0.1,0v0l0.1,0l0.2,0l0.1,0l0.1,0l0.2,0l0.1,0l0.1,0l0.2,0l0.1,0l0.1,0
		l0.2,0l0.1,0l0.1,0l0.2,0l0.1,0l0.1,0L371,67l0.1,0l0.1,0l0.2-0.1l0.1,0l0.1-0.1l0.2-0.1l0.1-0.1l0.1-0.1l0.2-0.2l0.1-0.1l0.1-0.1
		l0.1-0.2l0.1-0.1l0-0.1l0.1-0.2l0-0.1l0-0.1l0-0.3l0-0.1l0-0.1l0-0.3l0-0.1l0-0.1l-0.1-0.2l0-0.1l-0.1-0.1l-0.1-0.2l-0.1-0.1
		l-0.1-0.1l-0.2-0.2l-0.1-0.1l-0.1-0.1l-0.2-0.1l-0.1-0.1l-0.1,0l-0.3-0.1l-0.1,0l-0.1,0l-0.3,0l-0.1,0l-0.1,0l-0.3,0l-0.2,0l-0.1,0
		l-0.1,0l-0.1,0l-0.1,0l-0.1,0l-0.1,0l-0.2,0l-0.1,0l-0.1,0l-0.2,0l-0.1,0l-0.1,0l-0.3,0l-0.1,0l-0.2,0l-0.3,0l-0.1,0l-0.1,0l-0.2,0
		l-0.2,0l-0.1,0l-0.1,0l-0.3,0l-0.3,0l-0.1,0l-0.1,0l-0.3,0l-0.3,0l-0.1,0h-0.2h-0.5h-0.6h-0.6h-0.5h-0.2l-0.2,0l-0.4,0l-0.5,0
		l-0.4,0l-0.2,0l-0.2,0l-0.4,0l-0.4,0l-0.4,0l-0.2,0l-0.1,0l-0.3,0l-0.4,0l-0.4,0l-0.1,0h-0.1l-0.3,0l-0.4,0l-0.3,0l-0.1,0h-0.2
		h-0.3h-0.2l-0.2,0l-0.3,0l-0.2,0l-0.1,0l-0.3,0l-0.1,0l-0.1,0l-0.3,0l-0.1,0l-0.1,0l-0.2,0l-0.1,0l-0.1,0l-0.2,0.1l-0.1,0l-0.1,0
		l-0.2,0.1l-0.1,0l-0.1,0.1l-0.2,0.1l-0.1,0.1l-0.1,0.1l-0.2,0.1l-0.1,0.1l-0.1,0.1l-0.2,0.2l-0.1,0.1l-0.1,0.1l-0.2,0.2l-0.1,0.1
		l-0.1,0.1l-0.2,0.2l-0.1,0.1l-0.1,0.1l-0.1,0.2l-0.1,0.1l-0.1,0.1l-0.2,0.2l-0.1,0.1l-0.1,0.1l-0.1,0.3l-0.1,0.1l0,0.1l-0.1,0.2
		l-0.1,0.2l0,0.1l0,0.1l-0.1,0.2l-0.1,0.2l0,0.1l0,0.1l-0.1,0.2l-0.1,0.2l0,0.1l-0.1,0.1l-0.1,0.3l-0.1,0.3l-0.1,0.1l0,0.1l0,0.1
		l0,0.1l-0.1,0.1l0,0.1l0,0.1l-0.1,0.2l0,0.1l0,0.1l-0.1,0.2l0,0.1l0,0.1l-0.1,0.2l-0.1,0.1l-0.1,0.1l-0.1,0.3l-0.1,0.1l0,0.1
		l-0.1,0.2l-0.1,0.2l0,0.1l0,0.1l-0.1,0.2l-0.1,0.2l0,0.1l0,0.1l-0.1,0.3l-0.1,0.3L347,73l-0.1,0.1l-0.1,0.3l-0.1,0.3l-0.1,0.1
		l-0.1,0.1l-0.1,0.3l-0.1,0.3l-0.1,0.1l-0.1,0.2l-0.1,0.3l-0.1,0.3l-0.1,0.2l-0.1,0.2l-0.1,0.4l-0.1,0.4l-0.1,0.2l0,0.1l-0.1,0.3
		l-0.1,0.3l-0.1,0.3l0,0.1l0,0.1l-0.1,0.3l-0.1,0.4l-0.1,0.3l-0.1,0.1l0,0.1l-0.1,0.3l-0.1,0.4l-0.1,0.3l-0.1,0.1l-0.1,0.1l-0.1,0.3
		l-0.2,0.4l-0.1,0.3l-0.1,0.1l-0.1,0.1l-0.1,0.3l-0.2,0.4L343,83l-0.1,0.1l-0.1,0.2l-0.1,0.4l-0.2,0.4l-0.1,0.4l-0.1,0.2l-0.1,0.2
		l-0.2,0.4l-0.2,0.5l-0.2,0.4l-0.1,0.2l-0.1,0.2l-0.2,0.4l-0.2,0.5l-0.2,0.4l-0.1,0.2l0,0.1l-0.1,0.3l-0.2,0.4l-0.2,0.4l-0.1,0.3
		l0,0.1l-0.1,0.1l-0.1,0.3l-0.2,0.4l-0.2,0.4l-0.1,0.3l-0.1,0.1l-0.1,0.1l-0.1,0.3l-0.2,0.4l-0.2,0.4l-0.1,0.3l-0.1,0.1l-0.1,0.1
		l-0.1,0.4l-0.2,0.5l-0.2,0.5l-0.1,0.4l-0.1,0.1l0,0.1l-0.1,0.2l-0.1,0.2l0,0.1l-0.1,0.2l-0.1,0.3l-0.1,0.2l0,0.1l-0.1,0.3l0,0.1
		l0,0.1l-0.1,0.2l0,0.1l0,0.1l-0.1,0.2l0,0.1l0,0.1l-0.1,0.2l0,0.1l0,0.1l0,0.1l0,0l0-0.1l-0.1-0.1l0-0.1h0l0-0.1l-0.1-0.2l0-0.1h0
		l0-0.1l-0.1-0.2l0-0.1h0l-0.1-0.2l-0.1-0.3l-0.1-0.2l0-0.1l-0.1-0.2l-0.1-0.2l0-0.1l0-0.1l-0.1-0.2L336,95l0-0.1l-0.1-0.1l-0.1-0.3
		l-0.1-0.3l-0.1-0.1l-0.1-0.2l-0.2-0.5l-0.3-0.8l-0.5-1.1l-0.6-1.3l-0.6-1.5l-0.7-1.6l-0.8-1.8l-0.8-1.9l-0.8-1.9l-0.8-1.9l-0.8-1.9
		l-0.8-1.9l-0.8-1.8l-0.7-1.6l-0.6-1.5l-0.6-1.3l-0.5-1.1l-0.3-0.8l-0.2-0.5l-0.1-0.2h0l0-0.1l-0.1-0.2l0-0.1h0l0-0.1l-0.1-0.2
		l0-0.1l0-0.1l-0.1-0.2l0-0.1l0-0.1l-0.1-0.2l0-0.1l0-0.1l-0.1-0.2l0-0.1l0-0.1l-0.1-0.2l0-0.1l-0.1-0.1l-0.1-0.2l0-0.1l0-0.1
		l-0.1-0.2l0-0.1l-0.1-0.1l-0.1-0.2l-0.1-0.1l-0.1-0.1l-0.2-0.2l-0.1-0.1l-0.1-0.1l-0.2-0.1l-0.1-0.1l-0.1-0.1l-0.2-0.1l-0.1-0.1
		l-0.1-0.1l-0.2-0.1l-0.1-0.1l-0.1,0l-0.2-0.1l-0.1,0l-0.1,0l-0.3,0l-0.1,0l-0.1,0l-0.3,0l-0.1,0h-0.1h-0.2H319l-0.1,0l-0.2,0
		l-0.1,0l-0.1,0l-0.2,0l-0.1,0l-0.1,0l-0.2,0l-0.1,0l-0.2,0l-0.3,0l-0.2,0l-0.1,0l-0.2,0l-0.2,0l-0.1,0h-0.1h-0.2h-0.2h-0.1l-0.2,0
		l-0.4,0l-0.5,0l-0.4,0l-0.2,0l-0.2,0l-0.4,0l-0.5,0l-0.4,0l-0.2,0l-0.2,0l-0.4,0l-0.4,0l-0.4,0l-0.2,0l-0.2,0l-0.4,0l-0.4,0l-0.4,0
		l-0.2,0l-0.1,0l-0.3,0l-0.4,0l-0.3,0l-0.1,0l-0.1,0l-0.3,0l-0.4,0l-0.3,0l-0.1,0l-0.1,0l-0.3,0l-0.4,0l-0.3,0l-0.1,0l-0.1,0l-0.3,0
		l-0.4,0l-0.3,0l-0.1,0l-0.1,0l-0.3,0l-0.1,0l-0.1,0l-0.2,0l-0.1,0l-0.1,0l-0.2,0.1l-0.1,0l-0.1,0.1l-0.2,0.1l-0.1,0.1l-0.1,0.1
		l-0.2,0.2l-0.1,0.1l-0.1,0.1l-0.2,0.2l-0.1,0.1l0,0.1l-0.1,0.3l0,0.1l0,0.1l0,0.3l0,0.1l0,0.1l0,0.3l0,0.1l0,0.1l0.1,0.3l0,0.1
		l0.1,0.1l0.1,0.2l0.1,0.1l0.1,0.1l0.2,0.2l0.1,0.1l0.1,0.1l0.2,0.2l0.1,0.1l0.1,0.1l0.2,0.1l0.1,0.1l0.1,0l0.2,0.1l0.1,0l0.1,0
		l0.2,0.1l0.1,0l0.1,0l0.2,0.1l0.1,0l0.1,0l0.3,0.1l0.1,0l0.1,0l0.3,0l0.1,0l0.1,0l0.3,0l0.1,0l0.2,0l0.3,0l0.2,0l0.1,0l0.2,0l0.2,0
		l0.1,0l0.1,0l0.2,0l0.2,0l0.1,0l0.1,0l0.3,0l0.1,0l0.1,0l0.2,0l0.1,0l0.1,0l0.2,0.1l0.1,0l0.1,0l0.1,0.1l0.1,0l0.1,0.1l0.1,0.1
		l0.1,0.1l0.1,0.1l0.1,0.1l0.1,0.1l0.1,0.1l0.1,0.1l0,0.1l0,0.1l0,0.1l0,0.2l0,0.1l0,0.1l0,0.2l0,0.1v0.1v0.4v0.5V72v0.4v0.1l0,0.2
		l0,0.6l-0.1,0.9l-0.1,1.2l-0.1,1.5l-0.1,1.7l-0.1,1.9l-0.1,2.1l-0.1,2.2l-0.1,2.3l-0.1,2.3l-0.1,2.3l-0.1,2.3l-0.1,2.3l-0.1,2.2
		l-0.1,2.1l-0.1,1.9l-0.1,1.7l-0.1,1.5l-0.1,1.2l-0.1,0.9l0,0.6l0,0.2l0,0.1l0,0.3l0,0.3l0,0.1h0l0,0.1l0,0.2l0,0.2l0,0.1h0l0,0.1
		l0,0.2l0,0.2l0,0.1l0,0.1l-0.1,0.3l0,0.1l0,0.1l-0.1,0.2l0,0.1l0,0.1l-0.1,0.2l0,0.1l0,0.1l-0.1,0.2l-0.1,0.1l-0.1,0.1l-0.1,0.1
		l-0.1,0.1l-0.1,0.1l-0.1,0.1l-0.1,0.1l-0.1,0.1l-0.1,0.1l-0.1,0l-0.1,0.1l-0.1,0l-0.1,0l-0.2,0.1l-0.1,0l-0.1,0l-0.2,0.1l-0.1,0
		l-0.1,0l-0.3,0.1l-0.1,0l-0.1,0l-0.2,0l-0.1,0v0l-0.1,0l-0.2,0l-0.1,0l-0.1,0l-0.2,0l-0.1,0l-0.1,0l-0.2,0l-0.1,0l-0.1,0l-0.2,0
		l-0.1,0l-0.1,0l-0.2,0l-0.1,0l-0.1,0l-0.2,0.1l-0.1,0l-0.1,0l-0.2,0.1l-0.1,0l-0.1,0.1l-0.2,0.1l-0.1,0.1l-0.1,0.1l-0.2,0.2
		l-0.1,0.1l-0.1,0.1l-0.1,0.2l-0.1,0.1l0,0.1l-0.1,0.2l0,0.1l0,0.1l0,0.3l0,0.1l0,0.1l0,0.2l0,0.1l0,0.1l0,0.2l0,0.1l0,0.1l0.1,0.2
		l0,0.1l0.1,0.1l0.2,0.2l0.1,0.1l0.1,0.1l0.2,0.1l0.1,0.1l0.1,0l0.2,0.1l0.1,0l0.1,0l0.2,0.1l0.1,0l0.1,0l0.2,0l0.1,0l0.1,0l0.2,0
		l0.1,0h0.1h0.3h0.3h0.1l0.1,0l0.2,0l0.1,0l0.1,0l0.2,0l0.1,0l0.1,0l0.2,0l0.1,0l0.2,0l0.3,0l0.2,0h0.1l0.2,0l0.2,0h0.1h0.1h0.3h0.3
		h0.1l0.1,0l0.3,0l0.3,0h0.1l0.1,0l0.3,0l0.3,0h0.1l0.2,0l0.3,0l0.3,0l0.2,0l0.2,0l0.4,0l0.4,0l0.2,0h0.2h0.5h0.7h0.7h0.7h0.5h0.2
		l0.2,0l0.4,0l0.4,0l0.2,0l0.2,0l0.3,0l0.3,0l0.2,0h0.1l0.3,0l0.3,0l0.1,0h0.1l0.3,0l0.3,0l0.1,0h0.1l0.3,0l0.3,0h0.1l0.1,0l0.2,0
		l0.2,0l0.1,0l0.2,0l0.3,0l0.2,0l0.2,0l0.3,0l0.1,0l0.1,0l0.2,0l0.1,0h0.1h0.2h0.1l0.2,0l0.3,0l0.2,0l0.1,0l0.3,0l0.1,0l0.1,0l0.3,0
		l0.1,0l0.1,0l0.2-0.1l0.1,0l0.1-0.1l0.2-0.1l0.1-0.1l0.1-0.1l0.2-0.2l0.1-0.1l0.1-0.1l0.1-0.3l0.1-0.1l0-0.1l0-0.3l0-0.1l0-0.2
		l0-0.3l0-0.1l-0.1-0.1l-0.1-0.3l-0.1-0.1l-0.1-0.1l-0.2-0.3l-0.1-0.1l-0.1-0.1l-0.2-0.2l-0.1-0.1l-0.1-0.1l-0.2-0.2l-0.1-0.1
		l-0.1-0.1l-0.3-0.1l-0.1-0.1l-0.1,0l-0.2-0.1l-0.2-0.1l-0.1,0l-0.1,0l-0.2-0.1l-0.2-0.1l-0.1,0l-0.1,0l-0.2,0l-0.2,0l-0.1,0l-0.1,0
		l-0.3,0l-0.3,0l-0.1,0l-0.1,0l-0.2,0l-0.1,0l-0.1,0l-0.2,0l-0.1,0l-0.1,0l-0.1,0l-0.2,0l-0.3,0l-0.2,0l-0.1,0l-0.2,0l-0.1,0l-0.1,0
		l-0.2-0.1l-0.1,0l-0.1,0l-0.2-0.1l-0.1,0l-0.1-0.1l-0.1-0.1l-0.1-0.1l-0.1-0.1l-0.1-0.1l-0.1-0.1l-0.1-0.1l0-0.1l-0.1-0.1l0-0.1
		l0-0.1l-0.1-0.2l0-0.1l0-0.1l-0.1-0.2l0-0.1l0-0.1l-0.1-0.3l0-0.1l0-0.1l0-0.2l0-0.1l0-0.1l0-0.2l0-0.3l0-0.2l0-0.1l0-0.2l0-0.2
		l0-0.1v-0.2l0-0.6l0-0.9l0-1.2l0-1.5l0-1.7l0-1.9l0-2l0-2.1l0-2.2l0-2.2l0-2.2l0-2.1l0-2l0-1.9l0-1.7l0-1.5l0-1.2l0-0.9l0-0.6v-0.2
		l0.1,0.2l0.2,0.5l0.4,0.8l0.5,1.1l0.6,1.4l0.7,1.6l0.8,1.8l0.8,1.9l0.9,2.1l0.9,2.2l1,2.2l1,2.3l1,2.3l1,2.2l0.9,2.2l0.9,2.1
		l0.8,1.9l0.8,1.8l0.7,1.6l0.6,1.4l0.5,1.1l0.4,0.8l0.2,0.5l0.1,0.2l0,0.1l0.1,0.2l0,0.1l0,0.1l0.1,0.2l0,0.1l0,0.1l0.1,0.2l0,0.1
		l0.1,0.1l0.1,0.2l0.1,0.1l0.1,0.1l0.1,0.2l0.1,0.1l0.1,0.1l0.2,0.2l0.1,0.1l0.1,0.1l0.2,0.1l0.1,0.1l0.1,0l0.2,0.1l0.1,0l0.1,0
		l0.3,0l0.1,0l0.1,0l0.3,0l0.1,0l0.1,0l0.2-0.1l0.1,0l0.1-0.1l0.2-0.1l0.1-0.1l0.1-0.1l0.2-0.2l0.1-0.1l0.1-0.1l0.2-0.2l0.1-0.1
		l0.1-0.1l0.1-0.2l0.1-0.1l0.1-0.1l0.1-0.2l0.1-0.1l0.1-0.1l0.1-0.2l0.1-0.1l0.1-0.1l0.1-0.2l0.1-0.1l0.1-0.2l0.2-0.5l0.3-0.8
		l0.4-1.1l0.5-1.4l0.6-1.6l0.7-1.8l0.8-1.9l0.8-2l0.8-2.1l0.9-2.2l0.9-2.2l0.9-2.2l0.9-2.2l0.8-2.1l0.8-2l0.8-1.9l0.7-1.8l0.6-1.6
		l0.5-1.4l0.4-1.1l0.3-0.8l0.2-0.5l0.1-0.2l0,0.2l0,0.3l0,0.2l0,0.1l0,0.2l0,0.2l0,0.1l0,0.2l0,0.3l0,0.2v0.2l0,0.5l0,0.8l0,1.1
		l0,1.4l0,1.6l0,1.7l0,1.9l0,1.9l0,2l0,2l0,2l0,1.9l0,1.9l0,1.7l0,1.6l0,1.4l0,1.1l0,0.8l0,0.5v0.2v0v0l0,0.1l0,0.1l0,0.1l0,0.2
		l0,0.1l0,0.1l0,0.2l0,0.1l0,0.1l0,0.2l0,0.1l0,0.1l0,0.3l0,0.1l0,0.1l0,0.2l0,0.2l0,0.1v0.1v0.2v0.2v0.1l0,0.1l0,0.2l0,0.1l0,0.1
		l0,0.1l0,0.1l0,0.1l0,0l0,0l-0.1,0l-0.1,0l-0.1,0l-0.1,0l-0.1,0l-0.1,0l-0.1,0l-0.1,0l-0.1,0l-0.1,0l-0.1,0l-0.2,0l-0.1,0l-0.1,0
		l-0.2,0l-0.1,0l-0.1,0l-0.2,0l-0.1,0l-0.2,0l-0.3,0l-0.2,0l-0.1,0l-0.3,0.1l-0.1,0l-0.1,0l-0.2,0l-0.1,0l-0.1,0l-0.2,0l-0.1,0
		l-0.1,0l-0.2,0.1l-0.1,0l-0.1,0l-0.2,0.1l-0.1,0l-0.1,0.1l-0.2,0.1l-0.1,0.1l-0.1,0.1l-0.2,0.1l-0.1,0.1l-0.1,0.1l-0.2,0.2
		l-0.1,0.1l-0.1,0.1l-0.1,0.2l-0.1,0.1l0,0.1l-0.1,0.2l0,0.1l0,0.1l0,0.3l0,0.1l0,0.1l0,0.2l0,0.1l0,0.1l0.1,0.2l0,0.1l0.1,0.1
		l0.1,0.2l0.1,0.1l0.1,0.1l0.2,0.2l0.1,0.1l0.1,0.1l0.2,0.1l0.1,0.1l0.1,0l0.2,0.1l0.1,0l0.1,0l0.3,0l0.1,0l0.1,0l0.3,0l0.1,0l0.1,0
		l0.2,0l0.1,0l0.1,0l0.2,0l0.1,0l0.1,0l0.2,0l0.1,0l0.1,0l0.2,0l0.1,0l0.1,0l0.3,0l0.1,0l0.2,0l0.3,0l0.2,0v0l0.1,0l0.2,0l0.2,0
		l0.1,0l0.1,0l0.3,0l0.2,0l0.1,0h0.2h0.4h0.6h0.6h0.6h0.4h0.2l0.1,0l0.4,0l0.5,0l0.5,0l0.4,0l0.1,0l0.1,0l0.4,0l0.5,0l0.5,0l0.4,0
		l0.1,0l0.1,0l0.3,0l0.4,0l0.4,0l0.3,0l0.1,0l0.2,0l0.4,0l0.5,0l0.4,0l0.2,0l0.2,0l0.4,0l0.5,0l0.4,0l0.2,0l0.2,0l0.4,0l0.5,0l0.4,0
		l0.2,0l0.2,0l0.4,0l0.5,0l0.4,0l0.2,0l0.2,0l0.4,0l0.4,0l0.4,0l0.2,0l0.1,0l0.3,0l0.4,0l0.3,0l0.1,0h0.1h0.2h0.1l0.1,0l0.2,0l0.1,0
		l0.1,0l0.2,0l0.1,0l0.1,0l0.2,0l0,0l0.1,0l0.1,0l0.2,0l0.1,0l0.1,0l0.1,0h0.1h0.2h0.2h0.1l0.1,0l0.1,0h0.1h0.1l0.1,0l0.2,0l0.1,0
		l0.1,0l0.2,0l0.1,0l0.1,0l0.2,0l0.1,0l0.1,0l0.3,0l0.1,0l0.2,0l0.3,0l0.2,0l0.1,0l0.2,0l0.3,0l0.1,0h0.1l0.3,0l0.3,0h0.1l0.1,0
		l0.3,0l0.3,0l0.1,0l0.1,0l0.3,0l0.3,0l0.1,0h0.2l0.4,0l0.4,0h0.2l0.2,0l0.4,0l0.4,0l0.2,0h0.1h0.3h0.3h0.3h0.1h0.1l0.3,0l0.4,0
		l0.3,0l0.1,0h0.1h0.3h0.4h0.3h0.1l0.2,0l0.4,0l0.4,0l0.2,0l0.2,0l0.4,0l0.4,0l0.2,0l0.2,0l0.4,0l0.4,0l0.2,0l0.2,0l0.4,0l0.4,0
		l0.2,0l0.1,0l0.3,0l0.1,0l0.1,0l0.3,0l0.1,0l0.1,0l0.2-0.1l0.1,0l0.1-0.1l0.2-0.1l0.1-0.1l0.1-0.1l0.2-0.2l0.1-0.1l0.1-0.1l0.2-0.2
		l0.1-0.1l0-0.1l0.1-0.3l0-0.1l0-0.1l0-0.2l0-0.1l0-0.1l0-0.2l0-0.1l0-0.1l0-0.3l0-0.1l0-0.1l-0.1-0.2l0-0.1l-0.1-0.1l-0.1-0.2
		l-0.1-0.1l-0.1-0.1l-0.2-0.2l-0.1-0.1l-0.1-0.1L391,114l-0.1-0.1l-0.1-0.1l-0.2-0.1l-0.1-0.1l-0.1,0l-0.2-0.1l-0.1,0l-0.1,0
		l-0.2-0.1l-0.1,0l-0.1,0l-0.2,0l-0.1,0l-0.1,0l-0.2,0l-0.1,0l-0.1,0l-0.2,0l-0.1,0v0l-0.1,0l-0.2,0l-0.1,0l-0.1,0l-0.2,0l-0.1,0
		l-0.1,0l-0.3-0.1l-0.1,0l-0.1,0l-0.1,0l-0.1,0l-0.1,0l-0.2-0.1l-0.1,0l-0.1-0.1l-0.1-0.1l-0.1-0.1l-0.1-0.1l0-0.1l0-0.1l0-0.1
		l0-0.1l0-0.1l0-0.1l0,0l0,0h0l0-0.1l0-0.1l0-0.1l0-0.1l0-0.1l0-0.1l0-0.2l0-0.1l0-0.1l0.1-0.2l0-0.1l0-0.1l0.1-0.3l0-0.1h0l0-0.1
		l0.1-0.3l0-0.1h0l0-0.1l0.1-0.2l0.1-0.2l0-0.1h0l0-0.1l0.1-0.2l0.1-0.2l0-0.1l0-0.1l0.1-0.3l0.1-0.3l0-0.1l0-0.1l0.1-0.3l0.1-0.3
		l0-0.1l0.1-0.1l0.1-0.3l0.1-0.3l0.1-0.1h0l0.1-0.2l0.1-0.3l0.1-0.3l0.1-0.2l0.1-0.2l0.1-0.4l0.1-0.4l0.1-0.2l0-0.1l0.1-0.3l0.1-0.3
		l0.1-0.3l0-0.1l0.1-0.1l0.1-0.3l0.1-0.3l0.1-0.3l0.1-0.1l0.1-0.1l0.1-0.3l0.2-0.4l0.1-0.3l0.1-0.1l0.1-0.1l0.1-0.3l0.2-0.4l0.1-0.3
		l0.1-0.1l0-0.1l0.1-0.2l0-0.1l0-0.1l0.1-0.2l0-0.1l0-0.1l0.1-0.1l0.1-0.1l0.1-0.1l0,0l0.1,0l0,0l0.1,0l0.1,0h0.1h0.4h0.5h0.5h0.4
		h0.1l0.2,0l0.5,0l0.8,0l1,0l1.1,0l1.2,0l1.1,0l1,0l0.8,0l0.5,0h0.2h0.1h0.2h0.2h0.1l0.2,0l0.3,0l0.2,0l0.1,0l0.2,0l0.1,0l0.1,0
		l0.2,0l0.1,0l0.1,0l0.2,0l0.1,0l0.1,0l0.1,0l0.1,0l0.1,0l0.1,0l0.1,0l0,0l0,0l0,0l0,0l0,0l0,0.1l0,0.1l0,0.1l0,0.1l0,0.1l0,0.1
		l0,0.1l0,0.1l0,0.1l0,0.2l0,0.1l0.1,0.2l0.1,0.5l0.2,0.7l0.3,0.9l0.3,1.1l0.3,1.2l0.3,1.2l0.3,1.2l0.3,1.1l0.3,0.9l0.2,0.7l0.1,0.5
		l0.1,0.2h0l0,0.1l0,0.2l0,0.1l0,0.1l0.1,0.1l0,0.1l0,0.1l0.1,0.2l0,0.1h0l0,0.1l0.1,0.2l0,0.1l0,0.1l0,0.1l0,0.1l0,0.1l0,0.2l0,0.1
		l0,0.1l0,0.2l0,0.1l0,0.1l0,0.2l0,0.1l0,0.1l0,0.1l0,0.1l0,0.1v0l-0.1,0l-0.1,0l-0.1,0l-0.1,0l-0.1,0v0l-0.1,0l-0.1,0l-0.1,0
		l-0.2,0l-0.1,0l-0.1,0l-0.2,0.1l-0.1,0v0l-0.1,0l-0.2,0.1l-0.1,0l-0.2,0l-0.3,0.1l-0.2,0l-0.1,0l-0.2,0.1l-0.2,0.1l-0.1,0l-0.1,0
		l-0.2,0.1l-0.1,0l-0.1,0.1l-0.2,0.1l-0.1,0l-0.1,0.1l-0.2,0.1l-0.1,0.1l-0.1,0.1l-0.2,0.2l-0.1,0.1l-0.1,0.1l-0.2,0.2l-0.1,0.1
		l-0.1,0.1l-0.1,0.2l-0.1,0.1l0,0.1l-0.1,0.2l0,0.1l0,0.1l0,0.3l0,0.1l0,0.1l0,0.2l0,0.1l0,0.1l0,0.2l0,0.1l0,0.1l0.1,0.2l0,0.1
		l0.1,0.1l0.1,0.2l0.1,0.1l0.1,0.1l0.2,0.2l0.1,0.1l0.1,0.1l0.2,0.1l0.1,0.1l0.1,0l0.2,0.1l0.1,0l0.1,0l0.3,0l0.1,0l0.1,0l0.1,0
		l0.1,0l0.1,0l0.1,0l0.1,0l0.1,0l0.1,0l0.1,0l0.1,0l0.2,0l0.1,0v0l0.1,0l0.2,0l0.1,0l0.1,0l0.2,0l0.1,0l0.1,0l0.3,0l0.1,0l0.2,0
		l0.3,0l0.2,0h0.2h0.4h0.5h0.4h0.2l0.2,0l0.4,0l0.5,0l0.4,0h0.2h0.2l0.4,0l0.5,0l0.4,0l0.2,0h0.2l0.4,0l0.4,0l0.4,0h0.2l0.1,0l0.3,0
		l0.4,0l0.3,0l0.1,0h0.1l0.3,0l0.4,0l0.3,0l0.1,0l0.1,0l0.3,0l0.4,0l0.3,0l0.1,0l0.1,0l0.3,0l0.3,0l0.3,0l0.1,0l0.2,0l0.4,0l0.4,0
		l0.2,0l0.1,0l0.3,0l0.3,0l0.2,0l0.1,0l0.3,0l0.3,0l0.1,0l0.1,0l0.3,0l0.3,0l0.1,0l0.1,0l0.2,0l0.2,0l0.1,0l0.1,0l0.2,0l0.2,0l0.1,0
		l0.1,0l0.3,0l0.1,0l0.1,0l0.2,0l0.1,0l0.1,0l0.2,0l0.1,0h0.1h0.2h0.1l0.1,0l0.2,0l0.1,0l0.1,0l0.2,0l0.1,0l0.1,0l0.2,0l0.1,0l0.1,0
		l0.2-0.1l0.1,0l0.1-0.1l0.2-0.1l0.1-0.1l0.1-0.1l0.2-0.2l0.1-0.1l0,0l0,0l0.1,0.1l0.1,0.1l0.2,0.1l0.1,0.1l0.1,0l0.2,0.1l0.1,0
		l0.1,0l0.2,0.1l0.1,0l0.1,0l0.3,0l0.1,0l0.2,0l0.3,0l0.2,0l0.1,0l0.2,0l0.2,0l0.1,0l0.1,0l0.2,0l0.2,0l0.1,0l0.1,0l0.3,0l0.3,0
		l0.1,0h0.2h0.5h0.8h1.1h1.3h1.4h1.5h1.5h1.5h1.5h1.4h1.3h1.1h0.8h0.5h0.2l0.1,0l0.3,0l0.1,0l0.1,0l0.3-0.1l0.1,0l0.1,0l0.2-0.1
		l0.1,0l0.1-0.1l0.2-0.1l0.1-0.1l0.1-0.1l0.2-0.2l0.1-0.1l0.1-0.1l0.1-0.2l0.1-0.1l0-0.1l0.1-0.3l0-0.1l0-0.1l0-0.3l0-0.1l0-0.1
		l0-0.3l0-0.1l0-0.1l-0.1-0.3l0-0.1l-0.1-0.1l-0.1-0.2l-0.1-0.1l-0.1-0.1l-0.2-0.2l-0.1-0.1l-0.1-0.1l-0.2-0.2l-0.1-0.1l-0.1-0.1
		l-0.2-0.1l-0.1-0.1l-0.1,0l-0.2-0.1l-0.1,0l-0.1,0l-0.2-0.1l-0.1,0l-0.1,0l-0.2,0l-0.1,0l-0.1,0l-0.2,0l-0.1,0l-0.1,0l-0.2,0
		l-0.1,0l-0.1,0l-0.2,0l-0.1,0l-0.1,0l-0.3-0.1l-0.1,0l-0.1,0l-0.2-0.1l-0.1,0l-0.1,0l-0.3-0.1l-0.1,0l-0.1,0l-0.3-0.1l-0.2,0
		l-0.1-0.1l-0.3-0.1l-0.1-0.1l0,0l-0.1-0.1l-0.2-0.1l-0.1-0.1l-0.1,0l-0.2-0.1l-0.1,0l-0.1-0.1l-0.2-0.1l-0.1-0.1l-0.1-0.1l-0.1-0.1
		l-0.1-0.1l-0.1-0.1l-0.1-0.1l-0.1-0.1l-0.1-0.1l-0.1-0.1l-0.1-0.1l-0.1-0.1l0-0.1l-0.1-0.2l0-0.1l0,0l0-0.1l-0.1-0.1l0-0.1v0l0-0.1
		l0-0.1l0-0.1l0,0l0-0.1l0-0.2l0-0.1l0-0.1l0-0.3l0-0.1l0-0.1l0-0.3l0-0.1l0-0.1l0-0.2l0-0.2l0-0.1l0-0.1l0-0.3l0-0.3l0-0.1l0-0.1
		l0-0.3l0-0.3l0-0.1v-0.2v-0.4v-0.5V105v-0.2l0-0.2l0-0.6l0-0.9l0-1.2l0-1.5l0-1.7l0-1.8l0-2l0-2l0-2.1l0-2.1l0-2l0-2l0-1.8l0-1.7
		l0-1.5l0-1.2l0-0.9l0-0.6l0-0.2l0-0.1l0-0.2l0-0.2l0-0.1l0-0.2l0-0.3l0-0.2l0-0.1l0-0.3l0-0.1v0l0.1,0.1l0.1,0.1l0.1,0.1l0.1,0.1
		l0.1,0.1l0.1,0.2l0.4,0.5l0.6,0.7l0.8,1l1,1.2l1.2,1.4l1.4,1.6l1.5,1.7l1.6,1.9l1.7,2l1.8,2.1l1.9,2.2l1.9,2.2l1.9,2.2l1.9,2.2
		l1.9,2.2l1.9,2.2l1.8,2.1l1.7,2l1.6,1.9l1.5,1.7l1.4,1.6l1.2,1.4l1,1.2l0.8,1l0.6,0.7l0.4,0.5l0.1,0.2l0.1,0.1l0.2,0.2l0.1,0.1
		l0.1,0.1l0.1,0.1l0.1,0.1l0.1,0.1l0.1,0.2l0.1,0.1l0.1,0.1l0.1,0.2l0.1,0.1l0.1,0.1l0.1,0.2l0.1,0.1l0.1,0.1l0.1,0.2l0.1,0.1
		l0.1,0.1l0.1,0.2l0.1,0.1l0.1,0.1l0.1,0.2l0.1,0.1l0.1,0.1l0.2,0.2l0.1,0.1l0.1,0.1l0.2,0.2l0.1,0.1l0.1,0.1l0.2,0.2l0.1,0.1
		l0.1,0.1l0.2,0.1l0.1,0.1l0.1,0.1l0.2,0.1l0.1,0.1l0.1,0l0.3,0.1l0.1,0l0.2,0l0.3,0l0.2,0l0.1,0l0.3,0l0.1,0l0.1-0.1l0.2-0.1
		l0.1-0.1l0.1-0.1l0.2-0.2l0.1-0.1l0.1-0.1l0.1-0.2l0.1-0.1l0-0.1l0.1-0.2l0-0.1l0-0.1l0.1-0.2l0-0.1l0-0.1l0-0.3l0-0.1l0-0.1l0-0.3
		l0-0.1l0-0.2l0-0.3l0-0.2l0-0.1l0-0.2l0-0.2v-0.1l0-0.2l0-0.3l0-0.2l0-0.1l0-0.3l0-0.1l0-0.1l0-0.2l0-0.1l0-0.1l0-0.2l0-0.1l0-0.1
		l0-0.1l0-0.2l0-0.6l0-0.9l0-1.2l0-1.5l0-1.7l0-1.9l0-2.1l0-2.2l0-2.3l0-2.4l0-2.4l0-2.4l0-2.4l0-2.3l0-2.2l0-2.1l0-1.9l0-1.7l0-1.5
		l0-1.2l0-0.9l0-0.6l0-0.2l0-0.2l0-0.4l0-0.4l0-0.2l0-0.2l0-0.4l0-0.4l0-0.2l0-0.2l0-0.3l0-0.3l0-0.2l0-0.1l0-0.3l0-0.3l0-0.1l0-0.1
		l0-0.3l0-0.3l0-0.1h0l0-0.1l0-0.2l0-0.2l0-0.1l0-0.1l0-0.2l0-0.2l0-0.1l0-0.1l0-0.3l0-0.1l0-0.1l0-0.2l0-0.1l0-0.1l0-0.2l0-0.1
		l0-0.1l0.1-0.2l0-0.1l0-0.1l0-0.1l0,0l0,0l0,0l0,0l0.1-0.1l0.1-0.1l0.1,0l0.1,0l0.1,0l0.1,0l0.2,0l0.1,0l0.1,0l0.2,0l0.1,0v0l0.1,0
		l0.2,0l0.1,0l0.1,0l0.3,0l0.1,0l0.1,0l0.3,0l0.1,0l0.2,0l0.3-0.1l0.2,0l0.1,0L493,67l0.2-0.1l0.1,0l0.1,0l0.2-0.1l0.2-0.1l0.1,0
		l0.1,0l0.2-0.1l0.2-0.1l0.1,0l0.1-0.1l0.2-0.1l0.1-0.1l0.1-0.1l0.2-0.2l0.1-0.1l0.1-0.1l0.1-0.2l0.1-0.1l0.1-0.1l0.1-0.2l0.1-0.1
		l0-0.1l0-0.2l0-0.1L496,64.3z M402.6,91.2l-0.1,0l-0.1,0l-0.1,0l-0.2,0l-0.1,0l-0.1,0l-0.2,0l-0.1,0l-0.2,0l-0.5,0l-0.8,0l-1,0
		l-1.1,0l-1.2,0l-1.1,0l-1,0l-0.8,0l-0.5,0l-0.2,0l0-0.1l0-0.1l0-0.1l0-0.2l0-0.1l0.1-0.2l0.1-0.3l0.1-0.2l0.1-0.2l0.2-0.5l0.3-0.7
		l0.4-0.9l0.4-1l0.5-1.1l0.5-1.1l0.4-1l0.4-0.9l0.3-0.7l0.2-0.5l0.1-0.2l0-0.1l0.1-0.2l0.1-0.2l0-0.1l0.1-0.1l0.1-0.3l0.1-0.1
		l0.1-0.1l0.1-0.2l0.1-0.1l0.1-0.1l0.1-0.2l0.1-0.1l0-0.1l0.1-0.1l0-0.1l0,0h0l0,0.1l0.1,0.2l0,0.1l0.1,0.2l0.2,0.5l0.3,0.8l0.3,1
		l0.4,1.2l0.4,1.2l0.4,1.3l0.4,1.2l0.4,1.2l0.3,1l0.3,0.8l0.2,0.5l0.1,0.2l0,0.1l0.1,0.2l0,0.1l0,0.1l0.1,0.1l0,0.1L402.6,91.2
		L402.6,91.2L402.6,91.2z"/>
</g>
<g>
	<path class="st0" d="M524.4,78.3l0,1.5l0.2,1.5l0.2,1.5l0.2,1.5l2.4,0.7l2.5,0.4l2.5,0.1h0.1h0.3h0.3h0.1l3.1-0.1l3.1-0.2l3.1-0.2
		l3-0.1l2.7,0.2l1.1,1.2l1.2,1.1l1.3,1l1.4,0.8l1.5,0.6l1.6,0.3l0.2,1.8l0.5,1.7l0.7,1.6l0.9,1.5l0.9,1.5l0.9,1.5l0.8,1.6l0.5,1.7
		l-0.1,0.2l-0.3,0.5l-0.5,0.8l-0.7,1l-0.9,1.2l-1,1.4l-1.1,1.5l-1.2,1.7l-1.2,1.7l-1.3,1.8l-1.3,1.8l-1.3,1.8l-1.2,1.7l-1.2,1.7
		l-1.1,1.5l-1,1.4l-0.9,1.2l-0.7,1l-0.5,0.8l-0.3,0.5l-0.1,0.2l-0.4,1.3l-0.6,1l-0.8,0.8l-1,0.7l-1.1,0.5l-1.2,0.4l-1.3,0.4
		l-1.3,0.3l-1.2,0.3l-1.2,0.4l-0.3,1.2l0,1.1l0.2,1.1l0.4,1l0.6,1l0.7,1l0.7,1l0.7,0.9l0.6,0.9l0.5,1l1.7,0.8l1.7,0.5l1.7,0.3
		l1.7,0.1l2.4-0.2l2.4-0.4l2.4-0.5l2.3-0.5l2.3-0.4l1.5,0.5l1.4,0.2h0.1h0.3h0.1l1.9-0.2l1.8-0.5l1.7-0.6l1.7-0.6l1.7-0.5l1.8-0.2
		l1,0.1l0.1-0.1l0.4-0.4l0.7-0.7l0.9-0.9l1-1l1.2-1.2l1.3-1.3l1.3-1.3l1.4-1.4l1.4-1.4l1.3-1.3l1.3-1.3l1.2-1.2l1-1l0.9-0.9l0.7-0.7
		l0.4-0.4l0.1-0.1l1.3,1.9l1.6,1.8l1.8,1.7l1.9,1.6l1.9,1.6l1.9,1.6l1.8,1.6l1.6,1.7l-0.2,0.1l-0.5,0.2l-0.7,0.2l-0.8,0.3l-0.7,0.3
		l-0.7,0.2l-0.5,0.2l-0.2,0.1l-0.6,0.7l-0.3,0.6l0,0.5l0.2,0.5l0.4,0.5l0.5,0.4l0.5,0.4l0.5,0.4l0.4,0.4l0.3,0.4l1-0.1l1.3,0.1
		l1.2,0.4l1.2,0.5l1.2,0.5l1.1,0.4l1.2,0.2h0.1h0.2h0.1l0.6-0.1l0.7-0.2l0.7-0.3l0.8-0.1h0.1h0.3h0.1l1,0h0.1h0.1l0.6-0.1l0.5-0.2
		l0.4-0.4l0.2-0.6l1.5-0.3l1.3-0.6l1.2-0.8l1.2-1l1.1-1.2l1.1-1.3l1.1-1.3l1.1-1.2l1.2-1.1l1.3-1l1.4-0.8l0.3-1.6l0-1.6l-0.2-1.6
		l-0.4-1.6l-0.6-1.5l-0.7-1.5l-2.3-2.1l-2.4-2l-2.5-1.9l-2.5-1.9l-2.4-2l-2.3-2.1l-2.2-2.2l-1.9-2.4l-1.6-2.6l0.3-1.8l0.4-1.8
		l0.5-1.9l0.5-1.9l0.5-1.9l0.4-1.9l0.3-1.9l0.1-1.8l-0.1-1.8l-0.4-1.8l-0.8-1.7l-1.2-1.6l1.1-2l0.8-2.1l0.5-2.2l0.2-2.2l-0.1-2.2
		l-0.4-2.2l-0.6-2.2l-0.8-2.1l-1-2l-1.2-1.9l-0.7-1.2l-0.9-1.1l-1.1-1.1l-1.1-1.1l-1-1.1l-0.8-1.1l-0.5-1.1l-0.2-1.4l0.1-1.2l0.4-1
		l0.6-0.9l0.8-0.8l1-0.8l1-0.7l1.1-0.7l1.1-0.8l1.1-0.8l1-0.9l0.9-1l0.7-1.2l0.6,0.4l0.3,0.5l0,0.6l-0.1,0.6l0,0.6l0.1,0.6l1.7,1.3
		l1.8,1l1.9,0.8l2,0.5l2.1,0.2l1.4,0l1.4-0.1l1.3-0.4l1.1-0.7l0.9-0.9l0.8-1l0.8-1.1l0.8-1.1l1-1.1l0.4-2l0.1-1.7l-0.2-1.5l-0.4-1.4
		l-0.6-1.2l-0.8-1l-1-0.9l-1.2-0.8l-1.3-0.7l-1.4-0.7l-1.4-0.6l-1.5-0.6l-1.5-0.6l-1.5-0.6l-1.4-0.6l-1.3-0.7l-1.2-0.8l-1.1-0.8
		l-1-1l-0.8-1.1l-0.9-1.4l-0.8-1.5l-0.8-1.6l-0.8-1.7l-0.8-1.7l-0.8-1.7l-0.9-1.6l-1-1.5l-1.1-1.4l-1.2-1.2l-1.3-1l-1.5-0.8
		l-1.7-0.5l-1.9-0.2l-0.9,0.8l-0.9,0.5l-0.8,0.2h-0.1h-0.2h-0.1l-1.1-0.2l-1.1-0.5L588.1,7l-1.2-0.6l-1.2-0.5l-1.3-0.2h-0.1h-0.2
		H584l-0.8,0.1L582.4,6l-0.8,0.4l-0.5,1.2l-0.7,0.9l-0.8,0.6l-0.9,0.4l-0.9,0.2l-1,0.1h-0.1h-0.2h-0.1l-1.4-0.1l-1.4,0h-0.1h-0.2
		h-0.1l-0.9,0.1l-0.9,0.2l-0.9,0.3l-0.8,0.5l-0.7,0.8l-0.6,1l-0.6,1.9l-0.2,2l0.1,2l0.4,2l0.7,1.9l0.9,1.7l1.2,1.6l-1.1,1.7
		l-1.2,1.7l-1.4,1.6l-1.5,1.5l-1.6,1.3l-1.7,1.1l-1.9,0.8l-2,0.5l0.2,1.9l-0.1,1.7l-0.4,1.7l-0.5,1.6l-0.6,1.5l-0.6,1.5l-0.5,1.5
		l-0.3,1.5l1.4,0.3l1,0.4l0.7,0.5l0.4,0.6l0.1,0.7l0,0.8l-0.2,0.8l-0.3,0.9l-0.3,0.9l-0.3,0.9l-0.2,0.9l-0.1,0.9l0.1,0.9l0.3,0.9
		l1,0.3l1.1,0.1l1.1,0l1.1,0.1L564,60l0.9,0.4l-0.1,0.7l-0.3,0.5L564,62l-0.6,0.3l-0.6,0.3l-0.5,0.4l-1.1,1.5l-1.3,1.2l-1.5,0.9
		l-1.6,0.7l-1.7,0.5l-1.8,0.3l-1.9,0.1l-2,0l-2-0.1l-2-0.2l-2-0.2l-2-0.2l-1.9-0.1l-1.8-0.1h-0.2h-0.3h-0.2l-1.9,0.1l-0.1,0.1
		l-0.4,0.3l-0.6,0.5l-0.8,0.7l-1,0.8l-1,0.8l-1.1,0.9l-1.1,0.9l-1,0.8l-1,0.8l-0.8,0.7l-0.6,0.5l-0.4,0.3l-0.1,0.1l-0.4,1.3
		L524.4,78.3z M527.1,80.4l0.1-0.5l0.4-0.5l0.1-0.1L528,79l0.4-0.3l0.3-0.2l0.1-0.1l4.3,0.4l4.3,0.1l4.3-0.2l4.3-0.3l4.2-0.4
		l4.2-0.3l4.2-0.1l3.2,0.1l3.2,0.3l3.2,0.5l-0.1,0.9l-0.4,0.8l-0.6,0.7l-0.7,0.6l-0.7,0.6l-0.7,0.5h-0.2h-0.6h-0.9h-1.2h-1.5h-1.8
		h-2h-2.1h-2.2H550h-2.4h-2.4h-2.4h-2.3h-2.2h-2.1h-2h-1.8h-1.5h-1.2h-0.9h-0.6h-0.2l-0.2-0.6l-0.3-0.6l-0.3-0.5L527.1,80.4z
		 M529.6,75.3l1.2-1.5l1.3-1.1l1.4-0.9l1.5-0.6l1.5-0.4l1.6-0.2l1.6-0.1h0.2h0.3h0.2l2.6,0.1l2.7,0.2l2.7,0.2l2.6,0l2.5-0.3l3,0.6
		l2.9,0.9l2.9,1l2.8,1.2l-0.1,0.1l-0.3,0.3l-0.3,0.3l-0.1,0.1l-3.7-0.4l-3.8-0.1l-5,0.1l-5,0.3l-5,0.3l-4.9,0.2l-3.6-0.1L529.6,75.3
		z M537.8,136.1l0.7-0.9l0.9-0.7l1.1-0.5l1.2-0.4l1.2-0.4l1.2-0.4l1.2-0.5l1-0.6l0.1,0.1l0.2,0.2l0.1,0.1l-0.5,1.1l-0.7,0.9
		l-0.9,0.7l-1.1,0.5l-1.2,0.4l-1.2,0.3l-1.2,0.2l-1.2,0.1L537.8,136.1z M540.2,138.7l3.8-1.6l3.9-1.6l3.8-1.7l0.1,0.1l0.2,0.2
		l0.1,0.1l-1.2,1.4l-1.4,1.1l-1.6,0.9l-1.8,0.7l-1.9,0.6l-2,0.4l-2,0.3v-0.1v-0.3v-0.3V138.7z M541.9,143.1l2.2-0.9l2.3-0.7l2.3-0.7
		l2.3-0.7l2.2-0.8l2.1-1.1l0.4,0l1.1,0.2l1.1,0.5l1,0.6l1,0.5l1.1,0.3l-0.7,0l-2.1,0.1l-2.1,0.4l-2.2,0.6l-2.2,0.7l-2.3,0.6
		l-2.3,0.5l-2.3,0.2h-0.1h-0.3h-0.3h-0.1l-1.2-0.1L541.9,143.1z M547.5,129.3l2.3-3.2l2.2-3.3l2.1-3.4l2.1-3.3l2.2-3.3l2.3-3.2
		l2.4-3.1l2.6-2.9l2.8-2.6h0.1h0.3h0.3h0.1l0,0.3l0,0.4l0,0.4l0.1,0.3l0.3,0.3h0.1h0.3h0.3h0.1l-2.1,2.9l-2.3,2.8l-2.5,2.7l-2.6,2.7
		l-2.7,2.7v0.2v0.4v0.4v0.2l-1.6,1.6l-1.4,1.7l-1.3,1.8l-1.3,1.8l-1.4,1.8l-1.5,1.7l-1.8,1.5l-0.1-0.1l-0.2-0.2L547.5,129.3z
		 M551.8,131.3l0.9-1.8l1.2-1.6l1.3-1.5l1.4-1.5l1.3-1.5l1.1-1.7l1.4-1.7l1.3-1.8l1.3-1.9l1.3-1.9l1.3-1.9l1.4-1.9l1.5-1.8l1.7-1.6
		l1.9-1.4l2.1-1.2l-0.5,1.3l-0.8,1.1l-0.9,1l-1,1l-1,1l-1,1l-0.8,1.1l-0.6,1.3l-0.3,1.5l2.3-2.1l2.4-2.1l2.3-2.1l2.2-2.2l1.9-2.3
		l0.1,0.1l0.2,0.2l0.1,0.1l-1.8,2l-1.9,2.1l-1.9,2.2l-1.9,2.2l-1.9,2.2l-1.9,2.1l-1.9,1.9l-1.8,1.7l-1.7,1.4v-0.1v-0.2v-0.1h-0.1
		h-0.3h-0.3h-0.1l-0.8,0.9l-0.7,1.1l-0.7,1.2l-0.7,1.2l-0.7,1.2l-0.8,1.1l-0.8,1l-0.9,0.8l-1,0.5l-1.2,0.2L551.8,131.3z M555.3,87.5
		l0.3-0.6l0.4-0.4l0.4-0.2l0.5-0.1l1,0.1l1,0.2l1,0.1l0.3,0l-0.3,0.8l-0.4,0.6l-0.6,0.4l-0.8,0.3l-0.2-0.1l-0.4-0.2l-0.6-0.2
		l-0.6-0.3l-0.6-0.2l-0.4-0.2L555.3,87.5z M559.1,46.6l0.4-0.8l0.6-0.7l0.5-0.6l0.5-0.4l0.6-0.1h0.1h0.1l0.5,0.1l0.5,0.1l0.5,0.1
		l0.5,0l0.4-0.1l0.4-0.2l0.3-0.5l0.2-0.7l0-0.5l-0.2-0.5l-0.3-0.6l-0.4-0.6l-0.4-0.6l-0.4-0.5l-0.3-0.5l-0.2-0.5l0-0.5l0.3-0.4
		l0.5-0.4l0.9-0.3l1,0.3l0.9,0.6l0.9,0.8l0.8,0.9l0.8,0.8l0.8,0.7l-0.2,0.8l-0.4,0.8l-0.4,0.8l-0.5,0.9l-0.5,0.9l-0.5,0.9l-0.4,0.8
		l-0.3,0.8l-0.1,0.8l0.1,0.7l0.4,0.7l0.7,0.6l1,0.5l1.4,0.4l0.2,0.8l0.1,0.9l0.1,0.9l0,0.9l-0.1,0.9l-0.3,0.8l-0.4,0.7l-0.6,0.5
		l-0.8,0.3l-1.1,0l-1.4-0.3l-1.6-0.1l-1.6,0l-1.6-0.1l-0.5-0.9l-0.2-0.8l0.1-0.7l0.3-0.6l0.4-0.5l0.5-0.4l0.6-0.4l0.6-0.4l0.6-0.3
		l0.6-0.3L565,52l0.3-0.4l0.2-0.4l-0.1-0.5l-0.3-0.6l-0.6-0.7l-1-0.8l-1.1,0.1l-1-0.2l-0.8-0.5l-0.8-0.7L559.1,46.6z M557.4,132.9
		l2.8-3l2.8-3.1l2.7-3.1l2.7-3.2l2.8-3.1l2.8-3l3-2.9l3.1-2.7l3.3-2.5l3.5-2.2l-0.1,0.2l-0.4,0.5l-0.7,0.8l-0.9,1l-1.1,1.2l-1.3,1.4
		l-1.4,1.6l-1.5,1.7l-1.6,1.8l-1.7,1.9l-1.7,1.9l-1.8,1.9l-1.7,1.9l-1.7,1.9l-1.6,1.8l-1.5,1.7l-1.4,1.6l-1.3,1.4l-1.1,1.2l-0.9,1
		l-0.7,0.8l-0.4,0.5l-0.1,0.2l-0.4-0.2l-0.4,0h-0.1H559l-0.4,0.1l-0.3,0.1h-0.1h-0.1l-0.3-0.1l-0.3-0.2L557.4,132.9z M561.1,93.2
		l0.7,0.1l0.8,0.1l0.8,0.1l0.8,0.2l0.7,0.3l0.6,0.4l0.5,0.5l0.3,0.7l0.1,0.9v0.2v0.3v0.2h-0.2h-0.5h-0.6h-0.7h-0.6h-0.5h-0.2
		l0.2-0.7l-0.1-0.6l-0.3-0.5l-0.4-0.5l-0.5-0.4l-0.5-0.4l-0.3-0.4L561.1,93.2z M562.7,65.4l0.7,0.1l0.7,0.2l0.6,0.2l0.6,0.2l0.6,0.1
		l0.5-0.1l0.5-0.4l0.4-0.7l0.1-0.5l-0.1-0.5l-0.2-0.5l-0.2-0.4l-0.1-0.4l0-0.4l0.2-0.4l0.5-0.3l0.5,0.4l0.4,0.2l0.4,0.1h0.1h0.1
		l0.9-0.1l0.9-0.1l0.6,0.1l0.6,0.3l0.2,0l0.5,0.1l0.7,0.1l0.8,0.2l0.8,0.2l0.7,0.1l0.5,0.1l0.2,0l-1.1,0.3l-1,0.5l-0.9,0.7l-0.8,0.8
		l-0.8,0.9l-0.8,0.9l-0.8,0.9l-0.8,0.8l-0.8,0.7l-0.9,0.5l-1,0.3l-1.1,0l-1.2-0.3l-0.2-1.1l-0.4-1l-0.5-0.9l-0.4-1L562.7,65.4z
		 M561.5,136.1l3.5-4.3l3.6-4.3l3.6-4.2l3.7-4.1l3.9-4l4-3.9l4.2-3.6l4.4-3.4l-4.6,5.7l-4.8,5.5l-5,5.3l-5,5.3l-4.9,5.3l-4.8,5.4
		l-0.3,0h-0.1h-0.1l-0.4,0l-0.4,0l-0.3-0.1L561.5,136.1z M564.9,86.7l0.6,0l0.7-0.1l0.6,0.1l0.5,0.3l-0.1,0.7l-0.4,0.6l-0.5,0.5
		l-0.6,0.5l-0.5,0.5l0-0.2l0-0.5l-0.1-0.6L565,88l-0.1-0.6l0-0.5L564.9,86.7z M567.6,137.8l0.1-0.2l0.2-0.5l0.3-0.7l0.3-0.8l0.3-0.7
		l0.3-0.7l0.2-0.5l0.1-0.2l3-3l3.1-3.1l3.1-3.2l2.9-3.2l2.7-3.3l2.4-3.4v0.2v0.5v0.7v0.8v0.8v0.7v0.5v0.2h-0.1h-0.3h-0.3h-0.1
		l-2.4,3.3l-2.6,3.3l-2.8,3.3l-2.9,3.1l-2.9,3l-2.8,2.7h-0.2h-0.4h-0.5h-0.4H567.6z M568.5,32.7l0.2-0.6l0.6-0.6l1-0.9l0.8-1
		l0.7-1.1l0.7-1.1l0.8-1l0.9-0.9l1.1-0.7l1.3-0.5l0.1-0.5l-0.1-0.4l-0.3-0.3l-0.3-0.3l-0.3-0.3l-0.2-0.3l-0.8,0.1l-0.7-0.1l-0.5-0.3
		l-0.4-0.5l-0.4-0.6l-0.4-0.6l-0.4-0.6l-0.4-0.5l-0.5-0.3l-0.5-1.2l-0.2-1l0.2-0.9l0.4-0.7l0.6-0.6l0.8-0.4l0.9-0.3l1-0.2l1.1,0
		l0.4,0l0.3,2.2l0.5,2.1l0.7,2l1,1.9l1.3,1.7l1.6,1.5l-1,1.1l-1,1.2l-1,1.3l-1,1.4l-1,1.3l-1,1.3l-1.1,1.1l-1.2,0.9l-1.3,0.7
		l-1.5,0.4l-0.5-0.4l-0.5-0.5l-0.4-0.6l-0.2-0.7L568.5,32.7z M569,80.5l0.5-0.1l0.7,0.2l0.6,0.4l0.6,0.4l-0.3,0.7l-0.6,0.5l-0.7,0.3
		l-0.8,0.1v-0.2v-0.4v-0.6v-0.6v-0.4V80.5z M569.3,89.9l0.5-0.4l0.5-0.5l0.5-0.7l0.4-0.7l0.3-0.7l0.1-0.7l-0.1-0.6l-0.4-0.4
		l-0.7-0.2l0.8-0.1l0.8-0.1l0.7-0.2l0.6-0.3l0.5-0.5l0.3-0.8l1.9-0.2l2-0.1h0.2h0.5h0.7h0.7h0.7h0.5h0.2l1.4,0l1.4-0.1l1.3-0.2
		l1.3-0.3l1.2-0.5l1-0.7l0.9-0.9l0.7-1.2l0.6-1.4l1-0.3l0.8-0.6l0.6-0.8l0.5-0.9l0.4-1l0.4-0.9l0-0.6l0-0.6l-0.1-0.6l-0.2-0.5
		l-0.4-0.3l-0.6-0.1l-0.7-0.1h-0.1h-0.1l-0.7,0.2l-0.5,0.4l-0.3,0.5l-0.2,0.7l-0.2,0.7L591,73l-0.2,0.7l-0.4,0.6l-0.5,0.4l-0.4,1.4
		l-0.6,1.1L588,78l-1,0.6l-1.1,0.4l-1.2,0.3l-1.3,0.2l-1.3,0.1l-1.3,0.1l-1.3,0l-1.2,0.1l-0.9,0.4l-0.9,0.2h-0.1h-0.2h-0.1l-0.5-0.1
		l-0.4-0.2h0.2h0.3h0.2l1.1-0.2l1.3-0.1l0.5-0.4l0.4-0.6l0.2-0.7l-0.4-0.5l-0.4-0.4l-0.3-0.5l-0.1-0.5l0.1-0.6l0.8,0.3l0.8,0
		l0.8-0.2l0.7-0.4l0.6-0.6l0.4-0.7l-0.1-0.2l-0.2-0.5l-0.2-0.6l-0.2-0.6l-0.2-0.5l-0.1-0.2l0.7,0.1l0.7,0.2l0.7,0.2l0.8,0l0.7-0.5
		l0.4-0.7l0.1-0.8l-0.1-0.8l-0.2-0.7l-0.2-0.6l0.2,0l0.6,0.1l0.6,0.2l0.5,0.1l0.5,0l0.5-0.3l0.6-0.4l0.3-0.5l0-0.6l-0.1-0.6l0-0.6
		l0.1-0.6l1.5-0.2l1.6-0.3l1.6-0.5l1.5-0.7l1.4-0.9l1.3-1.2l1.1-1.4l2.1,2.2l1.8,2.4l1.6,2.6l1.3,2.7l0.9,2.9l-0.2,1.1l-0.3,1.2
		l-0.3,1.2l-0.2,1.3l-0.1,1.2l0,1.2l0.3,1.1l0.5,1l-2,1.5l-2.1,1.2l-2.3,1l-2.4,0.8l-2.5,0.6l-2.5,0.5l-2.6,0.4l-2.6,0.4l-2.6,0.4
		l-2.6,0.4l-2.5,0.5l-1.3-0.3l-1.4-0.1h0l-2.4,0.2l-2.4,0.4L569.3,89.9z M569.7,92.8l0.4-0.1l0.5,0.1l0.4,0.4l0.4,0.4l0,0.2
		l-0.1,0.4l-0.1,0.6l-0.1,0.6l-0.1,0.4l0,0.2l-0.1-0.2l-0.2-0.5l-0.3-0.6l-0.3-0.7l-0.3-0.6l-0.2-0.5L569.7,92.8z M570,46.5l0.2-0.5
		l0.4-0.6l0.8-0.7l0.4-0.1h0.1h0.1l0.8,0l0.8,0.1h0.1h0.1l0.6-0.1l0.5-0.3l0.4-0.5l0.3-0.8l-0.3-0.7l-0.4-0.6l-0.4-0.6l-0.4-0.6
		l-0.3-0.6l-0.2-0.6l0-0.6l0.3-0.7l0.6-0.8l0.9,0.2l0.8,0.4l0.7,0.5l0.6,0.6l0.6,0.6l0.6,0.6l0,1l-0.2,0.9l-0.4,0.9l-0.6,0.8
		l-0.6,0.8l-0.7,0.8l-0.6,0.8l-0.6,0.8l-0.4,0.8l-0.2,0.8l0,0.8l0.3,0.9l0.7,0.9l-0.5,0.3l-0.6,0.1h-0.1h-0.1l-0.6,0l-0.5,0l0-0.7
		L573,50l-0.3-0.5l-0.4-0.5l-0.5-0.4l-0.5-0.4l-0.5-0.4l-0.4-0.4l-0.3-0.4L570,46.5z M572.2,60.1l0-0.2l0.1-0.5l0.1-0.7l0.2-0.8
		l0.2-0.7l0.1-0.7l0.1-0.5l0-0.2l0.5-0.3l0.6-0.2l0.7-0.2l0.7-0.2l0.7-0.2l0.7-0.3l0.6-0.4l0.4-0.5l0.2-0.6l0-0.8l-0.3-1l0.3,0
		l0.5,0.1l0.3,0.3l0.2,0.5l0.1,0.5l0.1,0.5l0.2,0.5l0.3,0.4l-0.3,0.9l-0.3,0.9l-0.3,0.9l-0.3,0.9l-0.4,0.8l-0.5,0.7l-0.6,0.6
		l-0.8,0.4l-1,0.1l-1.2-0.1l-0.2,0l-0.4-0.1l-0.6-0.1l-0.6-0.1l-0.4-0.1L572.2,60.1z M572.2,74.7l0.1-0.8l0-0.9l0-0.9l0.1-0.9
		l0.2-0.9l0.5-0.9l0.5,0.1l0.5,0.2l0.4,0.3l0.4,0.2l0.4,0.1l0.5-0.1l0.5-0.3l0.5-0.4l0.3-0.5l0.1-0.6l0-0.6l-0.1-0.6l-0.1-0.5l0-0.4
		l0.2-0.2h0h0l0.3,0.1l0.5,0.3l0.7,0.5l0.6,0l0.6,0l0.5-0.1l0.5-0.3l0.4-0.5l0-0.2l-0.1-0.4L581,65l-0.1-0.6l-0.1-0.4l0-0.2h0.2h0.5
		h0.6h0.6h0.5h0.2l-0.1,0.2l-0.3,0.5l-0.5,0.7l-0.7,0.9l-0.8,1.1l-0.8,1.2l-0.9,1.2l-0.9,1.2l-0.8,1.2l-0.8,1.1l-0.7,0.9l-0.5,0.7
		l-0.3,0.5l-0.1,0.2l-0.2,0l-0.4-0.1l-0.6-0.1l-0.6-0.1l-0.6-0.1l-0.4-0.1L572.2,74.7z M573.8,96l0.7-0.2l0.5-0.4l0.4-0.6l0.3-0.7
		l0.3-0.7l0.3-0.6l0.4-0.6l0.6-0.4l0.8-0.2l3.1-0.3l3.2-0.3l3.3-0.3l3.3-0.4l3.3-0.5l3.2-0.7l3.1-1l2.9-1.3l1,0.8l0.8,1l0.6,1.2
		l0.5,1.3l0.3,1.4l-0.1,1.6l-0.4,1.5l-0.6,1.4l-0.8,1.3l-1,1.1l-1.2,0.9l-1.4,0.6l-1.6,0.4l-3.2,0.4l-3.4,0.3l-3.5,0.2l-3.5,0
		l-3.4-0.2l-3.3-0.4l-3.1-0.7l-0.4-0.4l-0.1-0.4l0.1-0.4l0.2-0.4l0.2-0.4l0.2-0.4l0-0.4l-0.2-0.4l-0.1-0.1l-0.4-0.2l-0.5-0.3
		l-0.5-0.4l-0.5-0.3l-0.4-0.2L573.8,96z M577.5,34.3l0.9-1.3l0.9-1.4l1-1.4l1.1-1.4l1.2-1.2l1.3-1l1.4-0.8l1.6-0.4l-0.1-1.3
		l-0.4-1.1l-0.6-0.9l-0.8-0.7l-0.9-0.6l-1-0.5l-1-0.5l-1-0.5l-0.9-0.6l-0.8-0.7L579,17l-0.3-1.1l-0.1-1.3l0.2-1.2l0.5-1.1l0.7-0.9
		l0.9-0.8l1.1-0.6l1.2-0.3l1.2-0.1l1.2,0.2l1.2,0.5l0,1.4l0,1.5l0,1.5l0.1,1.5l0.2,1.5l0.3,1.5l0.5,1.4l0.7,1.3l0.9,1.2l1.2,1
		l1.5,0.8l-0.9,0.8l-0.9,1l-0.8,1.1l-0.8,1.2l-0.8,1.2l-0.8,1.2l-0.9,1.2l-0.9,1l-1,0.9l-1,0.7l-1.1,0.5l-1.2,0.2l-1.3-0.1l-1.5-0.5
		l-0.1-0.1l-0.3-0.2l-0.3-0.2L577.5,34.3z M578.3,47.2l0.2-0.5l0.3-0.5l0.4-0.5l0.5-0.5l0.4-0.5l0.3-0.5l0.5-0.4l0.6-0.2l0.7,0
		l1,0.1l0.9,0.1l0.9,0.1l0.6-0.1l0.5-0.2l0.3-0.5l0.2-0.7l0-1.1l-0.7-0.2l-0.7-0.4l-0.7-0.4l-0.7-0.4l-0.7-0.2H583h-0.1l-0.4,0.1
		l-0.4,0.3l-0.4,0.5l-0.3-0.2l-0.1-0.3l0-0.4l0-0.4l0.8-0.5l0.9-0.4l1-0.2h0.1h0.2h0.1l0.7,0.1l0.7,0.3l0.7,1.1l0.8,1l0.9,1l0.9,1
		l0.9,0.9l0.9,0.9l0.8,1l0.7,1l0.6,1l0.3,1.1l0.1,1.2l-0.2,1.3l-0.5,1.4l0.5,0.4l0.6,0.4l0.6,0.4L595,54l0.5,0.5l0.4,0.5l0.2,0.6
		l-0.1,0.6l-0.4,0.7l-1.6,1.6l-1.7,1.2l-1.8,0.9l-1.9,0.6l-2,0.3l-2.1,0.1l-1.6-0.1l-1.7-0.2l-0.2-0.9l0.1-0.9l0.3-1l0.4-1l0.4-1
		l0.3-1l1-0.1l1-0.1l0.9-0.2l0.8-0.3l0.7-0.5l0.5-0.7l-0.2-1l-0.4-0.7l-0.6-0.5l-0.8-0.3l-0.9-0.2l-0.9-0.1l-1-0.1l-1-0.2l-0.9-0.3
		l-0.8-0.5l-0.7-0.7l-0.5-1l-0.3-0.5L578.3,47.2z M587.8,35l1.2-1.6l1.2-1.6l1.2-1.6l1.3-1.5l1.4-1.4l1.5-1.2l1.6-0.9l1.8-0.6
		l-0.3-1.1l-0.6-1l-0.8-0.8l-0.9-0.7l-1-0.5l-0.7,0.3l-0.7,0.2l-0.7,0.1l-0.7,0l-0.6-0.3l-0.3-1l-0.4-1l-0.4-1.1l-0.4-1.1l-0.3-1.1
		l-0.1-1.1l0.1-1.1l0.4-1.1l0.7-1l0.6-0.7l0.6-0.4l0.6-0.1l0.8,0.2l0.8,0.5l0.8,0.7l0.8,0.6l0.8,0.5l0.9,0.2l1.4,1.8l1.2,1.9l1.2,2
		l1.1,2l1.1,2l1.2,2l1.2,1.9l1.4,1.8l1.5,1.7l1.7,1.5l2,1.4l2.2,1.1l1.2,0.8l1.3,0.6l1.3,0.4L620,36l1.3,0.4l1.3,0.5l1.2,0.8l1,1.1
		l-0.2,1.6l-0.2,1.3l-0.2,1.1l-0.3,1l-0.5,1.1l-0.7,1.2l-1.4,0.3l-1.5,0.2l-1.5,0l-1.5-0.2l-1.4-0.4l-1.2-0.6l-1-0.9l0.3-0.9l0-0.8
		l-0.3-0.8l-0.4-0.7l-0.6-0.7l-0.6-0.7l-0.5-0.7l-0.4-0.8l-0.2-0.8l-5.2,5.1l-5.2,5.1l-2.5-2.4l-2.4-2.5l-2.4-2.6l-2.4-2.7L587.8,35
		z M589.8,123.5l0.1-0.1l0.2-0.3l0.3-0.4l0.2-0.3l0.1-0.1l0.2,0.1l0.4,0.4l0.7,0.6l0.9,0.8l1.1,1l1.2,1.1l1.3,1.2l1.4,1.3l1.4,1.3
		l1.4,1.3l1.4,1.3l1.3,1.2l1.2,1.1l1.1,1l0.9,0.8l0.7,0.6l0.4,0.4l0.1,0.1v0.2v0.4v0.5v0.5v0.4v0.2l-4.8-3.7l-4.6-4l-4.3-4.2
		L589.8,123.5z M589,119.4l1-2l1.2-1.9l1.5-1.7l1.6-1.6l1.7-1.6l1.8-1.6l1.8-1.6l1.7-1.6l1.6-1.7l-0.5,1.7l-0.8,1.6l-1.1,1.5
		l-1.3,1.4l-1.4,1.3l-1.5,1.3l-1.6,1.2l-1.6,1.2l-1.5,1.3l-1.4,1.3L589,119.4z M590.7,112.1l0.1-1.1l0.4-0.9l0.6-0.8l0.8-0.7
		l0.9-0.6l1-0.6l1-0.6l0.9-0.6l0.8-0.7l-0.4,0.9l-0.6,0.9l-0.8,0.9l-1,0.8l-1,0.8l-1,0.8l-1,0.8L590.7,112.1z M593.2,121.1l0.1-0.1
		l0.2-0.3l0.3-0.4l0.3-0.4l0.2-0.3l0.1-0.1l4.8,4.2l4.7,4.3l4.6,4.4l4.3,4.3v0.2v0.4v0.4v0.2l-2.6-1.5l-2.5-1.8l-2.5-2l-2.4-2.2
		l-2.4-2.3l-2.4-2.4l-2.4-2.3L593.2,121.1z M597.7,117h0.1h0.2h0.1l1.1,0.3l1.1,0.6l1.1,0.8l1.1,0.9l1.1,0.9l1.1,0.7l0.3,1.1
		l0.7,1.1l1,1l0.4,0.1l0.5-0.2l0.4-0.4l0.4-0.4l-1.3-1.3l-1.4-1.3l-1.4-1.3l-1.3-1.3l-1.1-1.4l-0.9-1.5l0.2,0.1l0.5,0.2l0.6,0.2
		l0.6,0.2l0.5,0.2l0.2,0.1l1.6,1.9l1.7,1.7l1.8,1.5l1.8,1.5l1.8,1.4l1.8,1.4l1.7,1.5l1.6,1.6l1.4,1.8l1.2,2l-0.3,0.6l-0.4,0.4
		l-0.5,0.2l-0.5,0.1H618h-0.2h-0.1l-0.8,0h-0.1h-0.1l-0.7,0.1l-0.6,0.3L613,132l-2.3-2l-2.4-1.9l-2.4-2l-2.3-2l-2.2-2.2l-2-2.3
		L597.7,117z M602.9,114.5l1.2-0.4l1-0.3l1-0.4l1-0.4l1.3-0.5l4.1,3.9l4.4,3.8l4.4,3.8l4.3,3.6v0.2v0.4v0.5v0.4v0.2l-0.2-0.1
		l-0.4-0.3l-0.7-0.5l-0.9-0.6l-1-0.7l-1.1-0.8l-1.1-0.8l-1.1-0.8l-1-0.7l-0.9-0.6l-0.7-0.5l-0.4-0.3l-0.2-0.1l-0.1,0.1l-0.2,0.2
		l-0.1,0.1l0.1,0.1l0.4,0.4l0.6,0.6l0.7,0.7l0.9,0.9l0.9,0.9l0.9,0.9l0.9,0.9l0.9,0.9l0.7,0.7l0.6,0.6l0.4,0.4l0.1,0.1h-0.2h-0.4
		h-0.6h-0.6h-0.4h-0.2l-0.1-0.1l-0.4-0.4l-0.7-0.6l-0.9-0.8l-1.1-0.9l-1.2-1.1l-1.3-1.2l-1.4-1.2l-1.5-1.3l-1.5-1.3l-1.5-1.3
		l-1.4-1.2l-1.3-1.2l-1.2-1.1l-1.1-0.9l-0.9-0.8l-0.7-0.6l-0.4-0.4L602.9,114.5z M602.6,141.9l1.8-0.7l1.8-0.4l2-0.2h0.1h0.3h0.3
		h0.1l0.9,0l-0.7,0.5l-1,0.4l-1.1,0.3l-1.2,0.2l-1.1,0.1h-0.1h-0.2h-0.1l-0.7-0.1l-0.6-0.1L602.6,141.9z M609.9,143.6l0.5-0.8
		l0.6-0.5l0.7-0.3l0.8-0.2l0.8-0.2l0.8-0.2l0.8-0.3l0.7-0.4l1-1l1-1.2l1-1.2l1-1.2l1.1-1.1l1.2-0.9l1.3-0.6l1.4-0.3h0.1h0.2h0.1
		l0.5,0.1l-1.2,0.9l-1.1,1.1l-1.1,1.2l-1.1,1.2l-1,1.2l-1.1,1.2l-1.1,1.1l-1.1,1l-1.2,0.8l-1.3,0.6l-1.4,0.3l-1.5,0L609.9,143.6z"/>
	<polygon class="st0" points="563.5,119.7 564.6,118.8 565.5,117.6 566.3,116.3 566.9,115 566.8,115.1 566.5,115.6 566.1,116.2 
		565.5,117 565,117.7 564.4,118.5 564,119.1 563.7,119.6 	"/>
	<polygon class="st0" points="607.9,115.6 608,115.8 608.5,116.1 609.1,116.6 609.9,117.3 610.8,118 611.7,118.7 612.5,119.5 
		613.3,120.1 614,120.6 614.4,121 614.5,121.1 614.4,121 614.2,120.7 613.9,120.4 613.5,120.1 613.3,119.8 613.2,119.7 613,119.6 
		612.6,119.3 612,118.9 611.3,118.3 610.5,117.7 609.7,117.1 609,116.5 608.4,116.1 608,115.8 	"/>
	<polygon class="st0" points="608.5,125 608.6,125.4 608.9,125.7 609.3,125.9 609.7,126 610.1,126 610.4,125.9 610.4,125.8 
		610.4,125.6 610.4,125.5 610,125.2 609.6,124.8 609.1,124.6 608.7,124.7 	"/>
	<polygon class="st0" points="611.6,126.7 611.9,127.6 612.5,128.5 613.4,129.3 614.4,130.1 615.4,130.9 616.4,131.5 617.3,132 
		616.4,130.8 615.3,129.7 614.1,128.7 612.8,127.7 	"/>
</g>
<rect x="56.9" y="3.8" class="st1" width="340.6" height="105.3"/>
<text transform="matrix(1 0 0 1 56.8687 33.8482)" class="st2 st3 st4 st5">Bakkerij</text>
</svg>
