<svg id="Laag_1" xmlns="http://www.w3.org/2000/svg" viewBox="-3985.35 2393.27 629.42 147.13"><style>.st0{fill:#b11831}.st1{fill:none}.st2{enable-background:new}</style><path class="st0" d="M-3924.65 2460.11l.11-.03.2-.05.1-.03.1-.03.19-.06.1-.04.11-.04.21-.09.11-.05.1-.07.2-.13.11-.08.09-.1.18-.2.09-.11.06-.14.11-.25.05-.13.02-.14.03-.24.02-.14-.01-.15-.03-.29-.02-.16-.05-.15-.1-.27-.05-.14-.09-.13-.16-.23-.09-.13-.12-.09-.22-.18-.11-.1-.13-.06-.23-.13-.13-.07-.14-.05-.26-.09-.15-.05-.15-.03-.29-.04-.15-.03-.16-.02-.3-.03-.16-.01h-.1l-.23-.01-.22-.01h-.45l-.23.01h-.22l-.25.01-.26.01-.12.01-.12.01-.28.01-.28.02-.13.01-.14.01-.3.02-.31.02-.14.01-.14.01-.33.01-.32.02-.15.01-.17.01-.36.02-.35.02-.17.01-.17.01-.37.02-.37.01-.16.01h-.13l-.29.01-.35.01-.29.01h-.56l-.36.01h-.57l-.3-.01h-.36l-.31-.01h-.24l-.29-.02-.34-.01-.28-.01-.12-.01-.18-.01-.38-.02-.39-.03-.18-.01-.16-.01-.37-.03-.36-.02-.16-.01-.16-.01-.35-.03-.34-.02-.16-.01-.15-.01-.33-.02-.33-.01-.16-.01h-.14l-.31-.01-.32-.01h-.14l-.14.01-.26.01-.14.01-.14.02-.25.05-.14.03-.13.06-.26.1-.14.05-.12.1-.22.18-.12.09-.09.13-.17.23-.09.13-.04.14-.08.27-.05.14-.01.14-.03.25-.01.14.01.14.03.26.01.13.04.13.07.23.04.13.07.12.13.24.07.12.1.1.18.18.1.1.11.07.2.13.1.07.11.05.21.09.11.04.11.04.21.06.11.03.11.03.22.05.11.03.12.02.21.04.12.01.12.02.22.03.12.02.13.01.24.03.13.02.13.01.24.03.13.02.13.02.25.03.13.02.15.02.27.04.15.03.11.02.21.05.11.02.09.03.16.06.09.03.08.04.14.06.07.04.08.06.14.1.08.06.1.08.09.08.08.11.09.11.04.07.07.13.04.08.03.07.05.14.03.08.02.12.03.12.01.1.01.17.01.1-.01.08-.01.14v.07l-.02.09-.03.15-.02.09-.03.08-.05.17-.03.09-.07.18-.21.51-.32.81-.43 1.08-.52 1.32-.6 1.51-.66 1.69-.72 1.82-.76 1.91-.79 1.99-.79 2.02-.8 2.01-.79 1.99-.76 1.92-.72 1.81-.67 1.69-.6 1.51-.52 1.32-.42 1.08-.32.81-.21.52-.07.18-.04.1-.08.19-.04.11-.04.08-.04.08-.03-.06-.05-.1-.09-.19-.05-.09-.01-.03-.06-.11-.1-.21-.05-.11-.07-.13-.11-.25-.06-.13-.08-.17-.22-.49-.35-.77-.46-1.02-.55-1.23-.64-1.4-.7-1.55-.74-1.65-.78-1.72-.8-1.76-.79-1.76-.78-1.72-.74-1.66-.7-1.54-.64-1.41-.55-1.23-.46-1.02-.35-.77-.22-.48-.07-.17-.08-.16-.16-.36-.16-.35-.08-.16-.07-.15-.14-.33-.15-.33-.07-.15-.07-.14-.14-.3-.15-.31-.06-.14-.06-.12-.12-.28-.12-.27-.05-.12-.06-.12-.11-.27-.12-.26-.05-.12-.04-.1-.09-.24-.09-.23-.05-.1-.06-.15-.1-.28-.06-.15-.05-.15-.09-.29-.05-.16-.03-.13-.06-.23-.03-.13h-.01l-.01-.09-.03-.15-.01-.08-.01-.11-.01-.19-.01-.11.01-.13.01-.13.02-.12.02-.12.01-.04.02-.04.02-.04.05-.04.04-.04.04-.04.04-.03.11-.05.1-.05.09-.03.08-.03.09-.02.17-.05.09-.02.11-.02.21-.05.11-.02.12-.02.21-.03.12-.01.13-.02.25-.03.13-.02.14-.01.26-.01.14-.01.12-.01.23-.02h.12l.12-.01.22-.02h.12l.11-.01.2-.02h.11l.11-.02.21-.02.12-.02.11-.01.2-.04.12-.03.1-.03.2-.07.1-.04.12-.05.21-.1.11-.06.11-.09.2-.17.1-.1.08-.13.15-.23.08-.13.03-.12.07-.23.04-.12.01-.14.03-.25.02-.14-.02-.13-.03-.25-.01-.13-.04-.13-.07-.25-.03-.13-.09-.13-.15-.25-.08-.13-.12-.09-.21-.16-.11-.09-.12-.06-.23-.11-.12-.06-.13-.03-.24-.05-.12-.03-.13-.02-.22-.03-.13-.02h-1.33l-.14.01-.31.01-.3.01h-.14l-.14.01-.33.01-.33.01-.14.01-.17.01-.35.01-.36.02-.16.01-.17.01-.38.02-.37.02-.18.01-.12.01-.29.01-.35.02-.29.02h-.12l-.13.01-.31.01-.37.02-.31.01-.13.01-.14.01-.32.01-.39.01-.33.02h-.14l-.14.01-.35.01-.41.01-.35.01h-.14l-.16.01h-.36l-.44.01-.36.01h-3.15l-.31-.01-.36-.01h-.31l-.13-.01h-.12l-.28-.02-.35-.01-.28-.02h-.12l-.17-.01-.38-.02-.37-.02-.17-.01-.16-.01-.34-.01-.34-.02-.15-.01-.15-.01-.31-.02-.32-.02-.14-.01-.13-.01-.29-.01-.29-.02-.13-.01-.13-.01h-.26l-.27-.02h-.23l-.24-.01h-.52l-.3.01-.15.01-.15.01-.28.03-.15.01-.14.03-.27.05-.14.02-.13.04-.24.08-.13.04-.12.07-.24.11-.13.06-.11.1-.21.18-.11.09-.09.14-.16.25-.08.14-.03.15-.06.29-.02.15.01.15.02.28.02.15.03.12.06.24.03.13.06.13.12.23.07.13.09.1.16.19.09.1.1.08.18.13.1.07.11.05.19.1.11.04.1.04.2.08.11.04.11.02.21.04.11.03.1.01.18.03.1.02.11.01.2.02.1.02.12.01.21.02.11.01.11.01.21.02.11.02.12.01.21.02.12.01.1.01.19.02.1.01v.01l.13.02.24.04.13.02.07.01.07.02.07.03.14.06.07.03.1.06.09.06.1.08.17.13.1.07.08.08.15.13.07.07.1.1.17.19.09.1.07.09.14.17.08.1.07.11.14.21.08.11.05.09.11.19.11.19.05.09.06.12.11.24.06.13.08.18.25.54.38.87.52 1.16.63 1.43.74 1.67.84 1.89.92 2.07.99 2.22 1.04 2.35 1.09 2.45 1.12 2.52 1.13 2.57 1.15 2.57 1.14 2.57 1.12 2.52 1.08 2.45 1.05 2.35.98 2.22.92 2.07.84 1.88.74 1.67.64 1.43.51 1.17.39.86.24.54.08.19.06.15.13.27.06.15.07.14.12.27.06.15.07.13.12.24.06.13.07.12.13.21.06.11.08.11.13.2.08.1.09.1.17.17.09.1.11.08.21.16.11.08.14.05.25.1.14.06.15.01.28.03.16.02.15-.02.29-.05.15-.02.14-.07.25-.13.13-.07.11-.1.21-.16.11-.1.09-.1.18-.21.09-.11.08-.12.14-.23.08-.12.07-.13.14-.25.07-.13.05-.1.1-.2.1-.2.04-.1.09-.19.24-.55.39-.87.52-1.19.64-1.45.75-1.7.84-1.91.93-2.1.99-2.26 1.06-2.39 1.1-2.49 1.13-2.56 1.14-2.6 1.16-2.62 1.15-2.6 1.13-2.56 1.1-2.49 1.05-2.39 1-2.26.92-2.1.85-1.91.75-1.7.64-1.46.52-1.18.39-.88.24-.55.08-.18.06-.13.1-.23.05-.12.05-.1.09-.19.05-.11.05-.1.1-.19.05-.1.06-.1.1-.18.06-.09.05-.08.09-.15.06-.07.05-.07.1-.13.05-.07.06-.06.12-.12.06-.06.06-.04.11-.09.06-.05.08-.05.15-.08.08-.05.07-.03.14-.07.07-.04.11-.03.19-.06.1-.03.16-.04.28-.07.15-.03.12-.03.24-.05.12-.03.13-.03.24-.05.13-.02.12-.03.23-.04.12-.02.11-.03.22-.05zm59.89 22.65l-.01-.48-.01-.4-.01-.17-.01-.16-.02-.39-.03-.47-.02-.39-.01-.16-.02-.16-.05-.39-.06-.46-.05-.39-.02-.16-.03-.16-.06-.37-.08-.45-.06-.37-.03-.16-.03-.15-.08-.37-.1-.44-.08-.37-.03-.16-.04-.15-.1-.36-.12-.43-.1-.36-.05-.15-.05-.15-.12-.35-.14-.42-.12-.35-.05-.15-.06-.14-.14-.34-.16-.41-.14-.34-.06-.14-.07-.14-.16-.33-.19-.4-.16-.33-.06-.14-.07-.14-.17-.32-.21-.38-.17-.32-.07-.14-.08-.13-.19-.31-.23-.37-.19-.31-.08-.13-.09-.13-.21-.3-.25-.35-.21-.3-.09-.13-.09-.12-.23-.29-.27-.34-.22-.29-.1-.12-.1-.12-.24-.27-.29-.33-.24-.27-.1-.12-.11-.12-.28-.29-.33-.34-.27-.29-.11-.12-.12-.11-.29-.27-.34-.33-.29-.27-.12-.11-.12-.11-.29-.25-.35-.3-.29-.25-.12-.11-.13-.1-.3-.23-.36-.28-.3-.23-.12-.1-.13-.09-.31-.21-.37-.26-.31-.21-.13-.09-.14-.09-.32-.2-.38-.24-.32-.2-.14-.08-.14-.07-.33-.18-.39-.21-.33-.18-.14-.07-.14-.07-.34-.16-.4-.19-.34-.16-.14-.07-.15-.06-.35-.14-.41-.17-.35-.14-.15-.06-.15-.05-.35-.12-.42-.15-.35-.12-.15-.05-.15-.05-.36-.1-.43-.12-.36-.1-.15-.04-.15-.03-.37-.08-.44-.1-.37-.08-.15-.03-.16-.03-.38-.07-.45-.08-.38-.07-.16-.03-.16-.02-.38-.05-.46-.06-.39-.05-.16-.02-.16-.01-.39-.03-.47-.03-.39-.02-.17-.01-.17-.01-.4-.01-.48-.01-.4-.01-.17-.01-.17.01-.41.01-.49.01-.41.01h-.17l-.17.01-.4.02-.48.03-.4.02-.17.01-.16.02-.39.03-.47.04-.39.03-.16.01-.16.02-.38.05-.46.06-.38.05-.16.02-.16.03-.37.07-.44.08-.37.06-.15.03-.15.03-.36.08-.44.1-.36.08-.15.03-.15.04-.35.1-.42.12-.35.1-.15.04-.14.05-.34.11-.41.14-.34.11-.14.05-.14.06-.34.13-.41.16-.34.13-.14.06-.14.06-.33.15-.39.18-.33.15-.14.06-.13.07-.32.16-.38.19-.32.16-.14.07-.13.08-.31.19-.37.22-.31.19-.13.08-.13.08-.3.2-.36.24-.3.2-.12.09-.12.09-.3.22-.35.27-.29.22-.12.09-.12.1-.29.24-.35.29-.29.24-.12.1-.12.11-.28.27-.34.32-.28.26-.12.11-.12.12-.28.29-.34.35-.28.29-.12.12-.11.13-.26.3-.32.36-.27.3-.11.13-.1.13-.24.31-.29.36-.24.31-.1.13-.09.14-.23.32-.27.38-.22.32-.09.14-.09.14-.21.33-.25.39-.21.33-.09.14-.08.14-.19.34-.22.4-.19.34-.08.14-.07.15-.17.35-.2.42-.17.35-.07.15-.06.15-.15.35-.18.42-.15.36-.06.15-.06.15-.13.37-.16.44-.13.37-.06.15-.05.16-.11.38-.13.45-.11.38-.05.16-.04.16-.09.38-.11.46-.09.38-.04.16-.03.16-.07.39-.08.47-.07.39-.03.16-.02.17-.05.4-.06.48-.05.4-.02.17-.01.17-.03.41-.03.49-.03.41-.01.17-.01.18-.01.42-.01.5-.01.42v.34l.01.41.01.48.01.4v.17l.01.16.02.39.03.47.02.39.01.16.02.16.04.38.04.45.04.38.02.16.02.15.06.37.07.44.05.37.02.15.03.15.07.36.08.43.07.36.03.15.04.14.09.35.1.41.09.34.04.15.04.14.11.34.12.4.1.33.05.14.05.14.12.33.15.39.12.33.05.14.06.13.14.32.17.38.14.32.06.13.07.13.16.31.19.37.16.31.07.13.07.13.18.3.21.36.18.3.07.13.08.12.2.29.24.36.2.3.08.12.09.12.22.29.26.34.22.29.09.12.1.12.23.28.28.33.23.28.1.12.11.12.26.28.31.33.26.28.11.12.12.11.27.27.33.32.27.27.12.11.12.11.29.27.36.32.3.27.12.11.13.1.3.25.36.3.3.25.12.11.13.09.31.23.37.28.31.23.13.1.13.09.32.21.37.25.31.21.13.09.13.08.32.2.38.23.32.19.13.08.14.07.33.17.39.21.33.17.14.07.14.07.33.16.4.19.33.16.14.07.14.06.34.14.4.17.34.14.14.06.14.05.35.13.41.15.35.13.14.05.15.04.35.1.42.12.35.1.15.04.15.03.35.09.42.1.35.09.15.04.15.03.36.07.43.08.36.07.15.03.15.02.36.04.43.05.36.04.15.02.16.01.37.03.44.03.37.03.16.01.16.01.37.01.45.01.37.01.16.01h.03l.16-.01.38-.01.46-.01.39-.01.16-.01.16-.01.39-.02.47-.03.39-.02.16-.01.16-.02.38-.05.46-.06.39-.05.16-.02.16-.02.38-.06.45-.07.38-.06.16-.02.16-.03.38-.08.45-.09.37-.08.16-.03.16-.04.37-.09.45-.11.37-.1.16-.04.15-.05.36-.11.43-.14.36-.12.15-.05.15-.05.36-.13.43-.15.36-.13.15-.05.15-.06.35-.15.42-.17.35-.15.15-.06.14-.06.34-.16.41-.19.34-.16.14-.07.14-.07.33-.17.39-.2.33-.17.14-.07.13-.08.32-.19.38-.22.32-.19.13-.08.13-.08.31-.2.37-.24.31-.2.13-.08.12-.09.3-.22.36-.26.3-.22.12-.09.12-.1.28-.23.34-.27.28-.23.12-.1.11-.1.27-.24.32-.29.27-.24.11-.1.11-.11.26-.25.3-.3.26-.25.11-.11.1-.11.24-.26.29-.32.24-.27.1-.11.1-.12.23-.28.27-.34.23-.28.1-.12.09-.12.21-.29.25-.35.21-.29.09-.13.08-.13.2-.31.24-.37.2-.3.08-.13.08-.13.18-.32.22-.37.18-.31.07-.13.07-.14.16-.33.2-.39.16-.33.07-.14.06-.14.15-.34.17-.4.14-.34.06-.14.06-.15.13-.35.16-.42.13-.35.06-.15.05-.15.11-.36.14-.43.11-.36.05-.15.04-.15.1-.37.11-.43.1-.36.04-.15.03-.16.08-.37.09-.45.08-.37.03-.16.03-.16.06-.39.07-.46.06-.39.03-.16.02-.16.05-.4.05-.47.05-.39.02-.17.01-.17.03-.4.03-.48.03-.4.01-.17v-.17l.01-.41.01-.49.01-.41v-.17l-.01-.17-.06-.38zm-13.15-1.19l-.01.44-.01.52-.01.43-.01.18-.01.17-.02.42-.02.5-.02.42-.01.18-.01.17-.03.41-.04.48-.03.41-.01.17-.02.16-.04.4-.05.47-.04.4-.02.17-.02.16-.05.38-.07.45-.05.38-.02.16-.03.15-.07.37-.08.44-.06.37-.03.15-.03.15-.08.36-.09.42-.08.36-.03.15-.04.14-.09.34-.1.4-.09.34-.03.14-.04.14-.1.32-.12.39-.1.32-.04.14-.05.13-.11.31-.13.38-.11.32-.05.13-.05.13-.12.3-.14.35-.12.3-.05.12-.05.12-.13.28-.15.34-.13.28-.05.12-.06.11-.14.27-.16.32-.13.27-.06.11-.06.1-.15.25-.17.3-.14.25-.06.11-.07.1-.15.23-.18.28-.16.23-.06.1-.1.14-.23.31-.23.31-.1.14-.11.13-.24.29-.24.29-.11.13-.11.11-.23.25-.23.25-.1.11-.12.12-.27.25-.27.25-.12.11-.11.09-.25.21-.25.21-.11.1-.13.09-.29.21-.29.21-.13.09-.12.08-.27.17-.27.17-.12.08-.13.07-.28.14-.28.15-.13.07-.14.06-.32.13-.31.13-.14.06-.15.05-.32.11-.32.11-.15.05-.13.03-.29.08-.29.07-.14.04-.16.03-.35.07-.35.06-.16.03-.14.01-.31.03-.31.03-.14.02-.16.01-.36.01-.36.02h-.32l-.35-.02-.35-.01-.16-.01-.17-.02-.37-.03-.37-.03-.17-.02-.14-.02-.3-.05-.3-.05-.14-.02v-.01l-.15-.04-.34-.09-.34-.09-.16-.04-.15-.04-.32-.1-.32-.1-.15-.05-.14-.06-.31-.13-.32-.13-.14-.06-.14-.06-.29-.14-.29-.14-.13-.06-.01-.01-.12-.07-.26-.15-.26-.15-.12-.07v-.01l-.14-.1-.3-.21-.3-.21-.14-.09v.01l-.12-.09-.25-.2-.26-.2-.11-.09-.12-.11-.26-.24-.26-.24-.12-.11-.02-.01-.1-.11-.22-.24-.23-.23-.1-.11-.11-.14-.24-.29-.24-.29-.11-.13-.1-.14-.22-.31-.22-.31-.1-.14-.09-.15-.21-.33-.21-.32-.09-.15-.06-.11-.14-.25-.16-.3-.14-.25-.06-.11-.06-.11-.13-.27-.16-.32-.13-.27-.06-.11-.05-.12-.12-.28-.15-.34-.12-.28-.05-.12-.05-.13-.11-.3-.13-.36-.11-.3-.05-.12-.04-.13-.1-.31-.12-.37-.1-.32-.04-.13-.04-.14-.09-.33-.11-.4-.09-.33-.04-.14-.03-.14-.08-.35-.1-.41-.08-.34-.03-.15-.03-.15-.07-.37-.08-.44-.07-.37-.03-.15-.02-.16-.06-.38-.07-.45-.06-.38-.02-.16-.02-.17-.04-.39-.05-.47-.04-.4-.02-.16-.01-.17-.03-.41-.04-.49-.03-.41-.01-.17-.01-.18-.02-.43-.02-.5-.02-.43-.01-.18v-.18l-.01-.44-.01-.52-.01-.44v-.37l.01-.41.01-.48.01-.41v-.17l.01-.17.02-.4.03-.47.02-.4.01-.16.01-.16.03-.39.04-.46.03-.39.01-.16.02-.15.05-.37.06-.44.05-.37.02-.15.02-.15.06-.36.07-.42.06-.36.03-.15.03-.14.07-.34.09-.4.08-.34.03-.14.04-.14.09-.33.1-.39.09-.33.04-.14.04-.13.1-.31.12-.37.1-.31.04-.13.05-.12.11-.3.13-.35.11-.3.05-.12.05-.12.12-.28.14-.33.12-.28.05-.12.06-.11.13-.26.16-.32.13-.27.06-.11.06-.1.14-.25.17-.3.15-.25.06-.1.09-.15.21-.32.21-.33.1-.15.1-.14.23-.3.23-.3.1-.14.11-.12.23-.27.23-.27.11-.12.12-.13.27-.28.27-.28.12-.13.11-.1.25-.23.26-.23.11-.11.12-.09.27-.21.27-.21.12-.1.14-.09.31-.21.31-.21.14-.1.13-.07.28-.16.28-.16.12-.07.15-.07.33-.16.33-.16.15-.07.14-.06.31-.12.32-.12.14-.06.16-.05.35-.11.35-.11.16-.05.15-.04.33-.08.33-.08.15-.03.16-.03.36-.06.36-.06.16-.03.17-.02.37-.04.37-.03.17-.02.17-.01.39-.01.38-.01.18-.01.16.01.35.01.35.01.16.01.17.02.37.03.37.04.17.02.13.02.29.06.29.06.14.02.15.04.34.09.34.09.16.04.12.04.27.1.27.1.12.05.14.06.3.13.3.14.14.06.12.06.26.14.26.14.12.07.14.09.3.2.3.2.14.09.12.09.26.2.26.2.12.09.12.1.26.23.25.23.12.1.12.12.26.26.26.26.12.12.08.09.18.21.22.25.19.21.08.09.08.1.19.23.22.28.19.23.08.1.09.12.21.28.25.33.21.28.08.12.08.12.19.28.22.33.19.28.08.12.07.12.17.28.2.34.17.28.07.12.06.12.15.28.18.34.15.28.06.12.06.12.13.29.16.34.13.29.05.12.05.12.12.29.14.35.12.29.05.12.04.13.1.3.12.36.1.3.04.12.03.13.08.3.1.36.08.31.03.13.03.13.07.31.08.37.07.31.03.13.02.14.05.32.06.39.05.32.02.14.02.14.03.33.04.4.03.33.01.14.01.14.02.34.03.41.02.34.01.15.01.15.01.36.01.42.01.36v.15l.04.19zm77.48 1.19l-.01-.48-.01-.4-.01-.17-.01-.16-.02-.39-.03-.47-.02-.39-.01-.16-.02-.16-.05-.39-.06-.46-.05-.39-.02-.16-.03-.16-.06-.37-.08-.45-.06-.37-.03-.16-.04-.15-.08-.37-.1-.44-.09-.37-.03-.16-.04-.15-.1-.36-.12-.43-.1-.36-.04-.15-.05-.15-.12-.34-.14-.41-.12-.35-.05-.15-.06-.14-.14-.34-.16-.41-.14-.34-.06-.14-.07-.14-.16-.33-.19-.4-.16-.33-.07-.14-.07-.14-.18-.32-.21-.39-.18-.32-.07-.14-.08-.13-.19-.31-.23-.37-.19-.31-.08-.13-.09-.13-.21-.3-.25-.35-.21-.3-.09-.13-.09-.12-.23-.29-.27-.34-.23-.29-.09-.12-.1-.12-.24-.27-.29-.33-.24-.27-.1-.12-.11-.12-.28-.29-.33-.34-.27-.29-.12-.12-.12-.11-.28-.27-.34-.33-.28-.27-.12-.11-.12-.11-.3-.25-.35-.3-.3-.25-.12-.11-.12-.1-.3-.23-.36-.28-.3-.23-.13-.1-.13-.09-.31-.22-.37-.26-.31-.22-.13-.09-.13-.08-.32-.2-.38-.24-.32-.2-.14-.08-.14-.07-.32-.18-.39-.21-.32-.18-.14-.07-.14-.07-.34-.16-.41-.19-.34-.16-.14-.07-.15-.06-.34-.14-.41-.17-.35-.14-.14-.06-.15-.05-.35-.12-.42-.15-.36-.12-.15-.05-.15-.04-.36-.1-.43-.12-.36-.1-.15-.04-.15-.04-.37-.09-.44-.1-.37-.08-.15-.03-.16-.03-.38-.07-.45-.08-.38-.07-.16-.03-.16-.02-.39-.05-.46-.06-.38-.05-.16-.02-.16-.01-.4-.03-.47-.03-.39-.02-.16-.01-.17-.01-.4-.01-.48-.01-.4-.01-.17-.01-.18.01-.41.01-.49.01-.41.01h-.17l-.17.01-.4.02-.48.03-.4.02-.17.01-.16.02-.39.03-.47.04-.39.03-.16.01-.16.02-.38.05-.46.06-.38.05-.16.02-.16.03-.37.07-.44.08-.37.06-.15.03-.15.03-.36.08-.44.1-.36.08-.15.03-.15.04-.35.1-.42.12-.35.1-.15.04-.15.05-.34.11-.41.14-.35.11-.14.05-.14.06-.34.13-.4.16-.34.13-.14.06-.14.06-.33.15-.39.18-.33.15-.14.06-.13.07-.32.16-.38.19-.32.16-.13.07-.13.08-.31.19-.37.22-.31.19-.13.08-.13.08-.31.2-.36.24-.3.2-.13.09-.12.09-.29.22-.35.27-.29.22-.12.09-.12.1-.29.24-.35.29-.29.24-.12.1-.12.11-.28.27-.34.32-.28.26-.12.11-.12.12-.28.29-.33.35-.28.29-.12.12-.11.13-.26.3-.32.36-.27.3-.11.13-.1.13-.24.31-.29.36-.24.31-.1.13-.09.14-.23.32-.27.38-.22.32-.1.14-.08.14-.21.33-.25.39-.21.33-.09.14-.08.14-.19.34-.22.4-.19.34-.08.14-.07.15-.17.35-.2.42-.17.35-.07.15-.06.15-.15.35-.18.42-.15.36-.06.15-.06.15-.13.37-.16.44-.13.37-.06.15-.05.16-.11.38-.13.45-.11.38-.05.16-.04.16-.09.38-.11.46-.09.38-.04.16-.03.16-.07.39-.08.47-.07.39-.03.16-.02.17-.05.4-.06.48-.05.4-.02.17-.01.17-.03.41-.03.49-.03.41-.01.17v.18l-.01.42-.01.5-.01.42-.01.17.01.17.01.41.01.48.01.4v.17l.01.16.02.39.03.47.02.39.01.16.02.16.04.38.04.45.04.38.02.16.02.15.06.37.07.44.06.37.02.15.03.15.07.36.08.43.07.36.03.15.04.14.09.35.1.41.09.34.04.15.04.14.11.34.12.4.1.33.05.14.05.14.12.33.15.39.12.33.05.14.06.13.14.32.17.38.14.32.06.13.07.13.16.31.19.37.16.31.07.13.07.13.18.3.21.36.18.3.07.13.08.12.2.29.24.36.2.3.08.12.09.12.22.28.26.34.22.29.09.12.1.12.23.28.28.34.23.28.1.12.11.12.25.28.31.33.25.28.11.12.12.11.28.27.33.32.28.27.11.11.12.11.3.27.36.32.3.27.12.11.13.1.3.25.36.3.3.25.12.11.13.09.31.23.37.28.31.23.13.1.13.09.31.21.37.25.31.21.13.09.14.08.32.2.38.23.32.19.14.08.14.07.32.17.39.21.32.17.14.07.14.07.33.16.4.19.33.16.14.07.14.06.34.14.4.17.34.14.14.06.15.05.34.13.41.15.34.13.15.05.15.04.35.1.42.12.35.1.15.04.15.03.35.09.43.1.35.09.15.04.15.03.36.07.43.08.36.07.15.03.15.02.36.04.43.05.36.04.15.02.16.01.37.03.44.03.37.03.16.01.16.01.37.01.45.01.37.01.16.01h.03l.16-.01.38-.01.46-.01.39-.01.16-.01.16-.01.39-.02.47-.03.39-.02.16-.01.16-.02.38-.05.46-.06.39-.05.16-.02.16-.02.38-.06.45-.07.38-.06.16-.02.16-.03.38-.08.45-.09.38-.08.16-.03.16-.04.37-.09.45-.11.37-.1.16-.04.15-.05.36-.11.43-.14.36-.12.15-.05.15-.05.36-.13.43-.15.36-.13.15-.05.15-.06.35-.15.42-.17.35-.15.15-.06.14-.06.34-.16.4-.19.34-.16.14-.07.14-.07.33-.17.39-.2.33-.17.14-.07.14-.08.32-.19.38-.22.32-.19.13-.08.13-.08.31-.2.37-.24.31-.2.13-.08.12-.09.3-.22.36-.26.3-.22.12-.09.12-.1.28-.23.34-.27.28-.23.12-.1.11-.1.27-.24.32-.29.27-.24.11-.1.11-.11.26-.25.3-.3.26-.25.11-.11.1-.11.24-.26.29-.32.24-.27.1-.11.1-.12.23-.28.27-.34.23-.28.1-.12.09-.12.21-.29.25-.35.21-.29.09-.13.08-.13.2-.31.24-.37.2-.3.08-.13.07-.13.18-.32.21-.38.18-.32.07-.13.07-.14.16-.33.19-.39.16-.33.07-.14.06-.14.15-.34.18-.4.15-.34.06-.14.05-.15.13-.35.15-.42.13-.35.06-.15.05-.15.11-.36.14-.43.11-.36.05-.15.04-.15.1-.37.11-.43.1-.36.04-.15.03-.16.08-.37.1-.45.08-.37.03-.16.03-.16.06-.39.07-.46.06-.39.03-.16.02-.16.05-.4.05-.47.05-.39.02-.17.01-.17.03-.4.03-.48.03-.4.01-.17v-.17l.01-.41.01-.49.01-.41v-.34l-.05-.35zm-13.14-1.19l-.01.44-.01.52-.01.43v.18l-.01.17-.02.42-.02.5-.02.42-.01.18-.01.17-.03.41-.04.48-.03.41-.01.17-.02.16-.04.4-.05.47-.04.4-.02.17-.02.16-.06.38-.07.45-.05.38-.02.16-.03.15-.07.37-.08.44-.06.37-.03.15-.03.15-.08.36-.09.42-.08.36-.03.15-.04.14-.08.34-.11.4-.09.34-.03.14-.04.14-.1.32-.12.39-.1.32-.04.14-.05.13-.11.31-.13.38-.11.32-.05.13-.05.13-.12.3-.14.35-.12.3-.05.12-.05.12-.13.28-.15.34-.13.28-.05.12-.06.11-.14.27-.16.32-.14.27-.06.11-.06.1-.15.25-.17.3-.14.25-.06.11-.06.1-.16.24-.18.28-.16.24-.06.1-.1.14-.22.3-.22.3-.1.14-.11.13-.25.29-.24.29-.11.13-.11.12-.24.26-.24.26-.11.12-.11.11-.26.24-.25.24-.12.11-.12.1-.27.22-.27.22-.12.1-.12.08-.26.18-.26.18-.12.08-.13.08-.29.18-.29.18-.13.08-.14.07-.3.15-.3.15-.14.07-.13.06-.29.12-.29.13-.13.06-.14.05-.32.1-.31.1-.14.05-.14.04-.31.08-.31.08-.14.04-.15.03-.33.06-.33.06-.15.03-.14.01-.32.03-.32.03-.14.02-.16.01-.36.01-.36.02h-.32l-.35-.02-.35-.01-.16-.01-.17-.02-.37-.03-.37-.03-.17-.02-.14-.02-.3-.05-.3-.05-.14-.02v-.01l-.15-.04-.34-.09-.34-.09-.16-.04-.15-.04-.32-.1-.32-.1-.15-.05-.14-.06-.31-.13-.32-.13-.14-.06-.14-.06-.29-.14-.29-.14-.13-.06-.01-.01-.12-.07-.26-.15-.26-.15-.12-.07v-.01l-.14-.1-.3-.21-.3-.21-.14-.09v.01l-.12-.09-.25-.2-.25-.2-.12-.09-.12-.11-.26-.24-.26-.24-.12-.11-.02-.01-.1-.11-.23-.24-.23-.23-.1-.11-.11-.14-.24-.29-.24-.29-.11-.13-.1-.14-.22-.31-.22-.31-.1-.14-.09-.15-.21-.33-.21-.32-.09-.15-.06-.11-.14-.25-.17-.3-.14-.25-.06-.11-.06-.11-.13-.27-.16-.32-.13-.27-.06-.11-.05-.12-.12-.28-.15-.34-.12-.28-.05-.12-.05-.13-.11-.3-.14-.36-.11-.3-.05-.12-.04-.13-.1-.31-.12-.37-.1-.32-.04-.13-.04-.14-.09-.33-.11-.4-.09-.33-.04-.14-.03-.14-.08-.35-.1-.41-.08-.34-.03-.15-.03-.15-.07-.37-.08-.44-.07-.37-.03-.15-.02-.16-.06-.38-.07-.45-.05-.38-.02-.16-.02-.17-.04-.39-.05-.47-.04-.4-.02-.16-.01-.17-.03-.41-.04-.49-.03-.41-.01-.17-.01-.18-.02-.43-.02-.5-.02-.43-.01-.18v-.18l-.01-.44-.01-.52-.01-.44-.01-.18v-.02l.01-.17.01-.41.01-.48.01-.41v-.17l.01-.17.02-.4.03-.47.02-.4.01-.16.01-.16.03-.39.04-.46.03-.39.01-.16.02-.15.05-.37.06-.44.05-.37.02-.15.02-.15.06-.36.07-.42.06-.36.03-.15.03-.14.07-.34.09-.4.07-.34.03-.14.03-.14.09-.33.1-.39.09-.33.04-.14.04-.13.1-.31.12-.37.1-.31.04-.13.04-.12.11-.3.13-.35.11-.3.05-.12.05-.12.12-.28.15-.34.12-.28.05-.12.06-.11.13-.27.16-.32.13-.26.05-.11.06-.1.14-.25.17-.3.14-.25.06-.1.06-.1.16-.24.18-.28.15-.24.07-.1.1-.14.23-.3.23-.3.1-.14.1-.12.23-.27.23-.27.1-.12.12-.13.27-.28.27-.28.12-.13.11-.1.25-.23.25-.23.11-.11.12-.09.27-.21.27-.21.12-.09.14-.09.32-.21.31-.21.14-.1.12-.07.28-.16.28-.16.12-.07.15-.07.33-.16.33-.16.15-.07.14-.06.3-.12.3-.12.14-.05.16-.05.36-.11.36-.11.16-.05.15-.03.32-.08.32-.07.15-.04.17-.03.37-.06.37-.06.17-.03.17-.02.37-.04.37-.03.17-.02.17-.01.39-.01.38-.01.18-.01.16.01.35.01.34.01.16.01.17.02.37.03.37.04.17.02.14.02.3.06.3.06.14.02.15.04.33.08.32.08.15.04.14.05.31.11.32.11.14.05.13.06.28.12.28.12.13.06.12.06.26.14.26.14.12.07.14.09.3.2.3.2.14.09.11.09.24.19.25.19.11.08.12.11.28.24.28.24.12.11.12.12.26.26.26.26.12.12.08.09.19.21.23.25.19.21.08.09.08.1.18.23.22.28.18.23.08.1.08.12.21.28.25.33.21.28.09.12.08.11.19.28.22.33.18.28.08.12.07.12.17.28.2.33.17.28.07.12.06.12.15.28.18.34.15.28.06.12.06.12.13.29.16.34.13.29.06.12.05.12.11.29.14.35.11.29.05.12.04.13.1.3.12.36.1.3.04.12.03.13.09.3.1.36.08.31.03.13.03.13.07.31.08.37.07.31.03.13.02.14.05.32.06.39.05.32.02.14.02.14.03.33.04.4.03.33.01.14.01.14.02.34.03.41.02.34.01.15v.15l.01.36.01.42.01.36v.15l.08.24zm75.26 27.64l-.01-.14-.03-.13-.06-.25-.03-.13-.07-.13-.14-.24-.07-.13-.1-.1-.18-.18-.1-.1-.11-.07-.2-.13-.11-.07-.11-.04-.2-.09-.11-.05-.11-.03-.2-.07-.11-.04-.12-.03-.21-.05-.11-.03-.12-.03-.23-.05-.12-.02-.13-.02-.24-.04-.13-.02-.14-.02-.26-.04-.14-.02-.09-.02-.16-.03-.09-.02-.09-.02-.18-.03-.09-.02-.08-.01-.15-.03-.08-.02-.09-.02-.18-.04-.09-.02-.12-.03-.12-.04-.1-.03-.18-.07-.1-.04-.08-.03-.14-.06-.07-.03-.08-.04-.14-.08-.08-.04-.09-.06-.18-.11-.09-.06-.03-.02-.09-.07-.17-.13-.09-.07-.11-.09-.2-.16-.11-.09-.11-.1-.19-.18-.1-.1-.02-.01-.11-.11-.2-.21-.11-.11-.1-.11-.21-.25-.21-.25-.1-.12-.1-.13-.22-.28-.22-.28-.1-.13-.02-.03-.09-.14-.21-.3-.21-.3-.09-.14-.06-.1-.16-.24-.18-.29-.16-.24-.06-.1-.07-.11-.16-.26-.19-.31-.16-.26-.07-.11-.06-.12-.15-.27-.19-.33-.15-.28-.06-.11-.07-.12-.16-.29-.19-.35-.16-.29-.07-.12-.07-.13-.16-.31-.19-.37-.16-.3-.07-.13-.07-.14-.17-.32-.2-.39-.17-.32-.07-.14-.07-.14-.18-.33-.21-.4-.18-.33-.07-.14-.08-.15-.19-.35-.22-.42-.18-.34-.08-.15-.08-.15-.19-.36-.23-.43-.19-.36-.08-.15-.08-.16-.2-.37-.24-.44-.2-.37-.09-.16-.06-.11-.16-.29-.21-.37-.21-.38-.16-.29-.06-.11-.07-.13-.16-.29-.16-.29-.07-.13-.07-.12-.16-.27-.16-.27-.07-.12-.07-.11-.15-.24-.14-.24-.07-.11-.06-.1-.14-.22-.14-.22-.06-.1-.01-.01-.06-.09-.12-.2-.12-.2-.05-.09-.08-.12-.14-.23-.07-.13-.07-.12-.13-.23-.07-.12-.05-.09-.09-.16-.05-.09-.04-.08-.07-.15-.04-.08-.01-.03-.01-.06-.02-.06-.01-.03.01-.08v-.08l.01-.04.01-.04.02-.04.01-.01.02-.02.07-.04.07-.04.06-.04.06-.03.07-.03.13-.05.07-.03.08-.03.15-.06.08-.03.09-.03.18-.06.09-.03.11-.04.2-.08.11-.04.12-.05.22-.09.12-.05.12-.06.23-.11.12-.06.14-.07.25-.13.14-.07.15-.09.33-.2.33-.2.15-.09.14-.1.3-.21.31-.21.14-.1.13-.1.28-.23.28-.23.13-.1.12-.11.26-.24.26-.24.12-.11.11-.11.23-.25.24-.25.11-.11.1-.12.21-.27.21-.27.1-.12.09-.13.19-.28.19-.28.09-.13.07-.14.16-.3.16-.3.07-.14.06-.14.14-.3.14-.3.06-.14.05-.14.11-.32.11-.32.05-.14.04-.15.09-.33.08-.33.04-.15.03-.16.06-.34.06-.34.03-.16.02-.16.04-.35.04-.35.02-.16.01-.17.01-.37.01-.37v-.29l-.01-.28-.01-.34-.01-.28-.01-.12-.02-.17-.04-.38-.04-.38-.02-.17-.03-.17-.07-.37-.07-.37-.03-.17-.04-.16-.09-.35-.09-.36-.04-.16-.06-.15-.12-.34-.12-.34-.06-.16-.07-.15-.15-.33-.15-.33-.07-.15-.08-.14-.18-.32-.18-.31-.08-.14-.09-.13-.2-.29-.2-.29-.09-.13-.1-.13-.22-.28-.22-.28-.1-.13-.11-.12-.26-.26-.25-.26-.11-.12-.12-.11-.27-.24-.27-.24-.12-.11-.14-.1-.29-.23-.29-.22-.13-.1-.14-.09-.31-.2-.32-.2-.14-.09-.15-.08-.33-.18-.34-.18-.15-.08-.11-.05-.25-.12-.31-.14-.25-.12-.11-.05-.11-.04-.27-.1-.32-.12-.27-.1-.11-.05-.12-.03-.28-.09-.34-.1-.28-.09-.12-.04-.13-.03-.3-.07-.36-.09-.3-.07-.12-.03-.13-.02-.31-.05-.37-.07-.31-.05-.13-.02-.13-.02-.32-.04-.38-.05-.32-.04-.14-.02-.14-.01-.33-.03-.4-.03-.33-.03-.14-.01h-.14l-.34-.01-.41-.01-.34-.01h-.33l-.47.01-.61.01-.61.01h-.66l-.18.01-.45.01-.59.02-.59.02-.45.01-.18.01-.18.01-.45.02-.58.03-.58.02-.45.02-.18.01-.18.01-.44.02-.57.03-.57.03-.44.02-.18.01h-.17l-.43.02-.56.02-.56.02-.43.02-.17.01-.17.01-.43.02-.55.02-.56.02-.43.01-.17.01h-.17l-.42.01-.54.01-.54.01-.42.01h-3.12l-.34-.01-.28-.01h-.29l-.37-.01-.37-.01-.17-.01h-.15l-.34-.01-.33-.01h-.15l-.15-.01-.32-.01-.32-.02-.15-.01-.13-.01-.29-.01-.29-.01h-.13l-.12-.01-.26-.01-.26-.01-.12-.01-.11-.01-.24-.01-.24-.01-.11-.01-.16-.01-.29-.02-.16-.01-.14-.01-.26-.01-.14-.01-.12-.01-.23-.01-.12-.01h-.46l-.16-.01-.09-.01-.14.01-.26.01h-.14l-.14.02-.25.04-.14.02-.13.04-.24.07-.13.04-.12.06-.23.11-.12.06-.11.09-.2.16-.11.09-.09.11-.16.21-.08.12-.06.14-.11.26-.06.14-.02.14-.03.27-.02.14.01.15.02.28.01.15.04.13.08.25.04.13.07.12.12.22.07.12.09.1.18.19.09.1.1.08.2.15.1.08.11.06.21.1.11.06.11.04.2.08.11.04.11.03.21.06.11.03.12.02.22.04.12.02.12.02.22.04.12.02.12.02.23.03.12.02.13.02.24.03.13.02.13.01.23.03.12.01.13.02.25.03.13.02.14.02.26.03.14.02.13.02.24.04.13.02.13.02.24.04.13.02.14.03.27.06.14.03.11.03.2.05.11.03.09.03.09.03.03.02.01.01.03.05.03.05.03.1.03.1.01.08.02.15.01.08.01.1.02.18.01.1v.11l-.01.2v.11l-.01.16-.02.29-.01.16v.15l-.01.28-.01.15v.19l-.01.55-.01.87-.02 1.14-.02 1.37-.02 1.56-.03 1.71-.03 1.81-.03 1.88-.03 1.9-.03 1.88-.03 1.81-.02 1.71-.02 1.56-.02 1.37-.02 1.14-.01.87-.01.55v12.45l-.01.33-.01.32v.15l-.01.14-.01.3-.01.29-.01.14-.01.13-.02.28-.02.28-.01.13h.01l-.01.1-.02.22-.02.22-.01.1h-.01l-.01.11-.03.23-.03.23-.02.1-.03.14-.05.26-.03.14-.03.1-.06.19-.03.1-.04.09-.07.17-.04.1-.04.06-.07.12-.04.07-.08.1-.07.1-.07.05-.06.05-.06.03-.1.03-.1.03-.12.03-.11.03-.11.02-.2.04-.11.02-.12.02-.22.04-.12.02-.14.02-.26.04-.14.02-.15.03-.29.05-.15.03-.1.02-.23.04-.22.04-.1.02-.11.02-.24.06-.24.06-.11.02-.12.03-.26.07-.26.06-.12.03-.13.04-.28.08-.28.08-.12.04-.13.05-.24.09-.13.05-.12.05-.22.1-.12.05-.11.08-.21.14-.11.08-.1.11-.19.2-.1.11-.06.12-.12.22-.06.12-.04.13-.07.24-.04.13-.01.14-.02.25-.01.14.01.13.02.25.01.13.03.14.07.26.04.14.08.13.15.23.08.12.1.1.18.19.1.1.11.07.21.13.11.07.12.05.23.08.12.05.13.03.24.05.13.03.13.02.24.03.13.02.14.01.26.02.14.01.15.01.28.02.15.01h1.34l.15-.01.35-.01.42-.01.35-.01h.15l.15-.01.35-.02.42-.02.35-.02.15-.01.14-.01.34-.03.41-.03.34-.03.14-.01.14-.01.34-.02.4-.02.33-.02.14-.01.14-.01.33-.01.4-.01.33-.01h1.34l.29.01.35.01.29.01h.12l.13.01.31.01.37.01.31.01.13.01h.14l.33.01.39.01.33.01h.14l.14.01.34.01.41.01.34.01.14.01.15.01.36.02.43.02.36.01.15.01h.16l.38.01.45.01.38.01.16.01.16.01.39.01.46.01.38.01h.16l.17.01.41.01.48.01h2.89l.15-.01.28-.02.15-.01.14-.02.26-.04.14-.02.13-.03.24-.06.13-.03.12-.04.23-.08.12-.04.12-.08.22-.15.12-.08.1-.11.19-.21.1-.11.06-.15.12-.27.06-.15.02-.14.03-.26.02-.14-.01-.15-.02-.28-.01-.15-.04-.14-.08-.26-.04-.14-.07-.12-.12-.22-.07-.12-.09-.1-.16-.19-.09-.1-.11-.08-.2-.14-.11-.08-.11-.06-.2-.11-.11-.06-.11-.04-.21-.09-.11-.04-.11-.04-.21-.07-.12-.04-.12-.03-.23-.05-.12-.03-.12-.02-.23-.05-.12-.03-.13-.02-.24-.04-.13-.02-.13-.02-.24-.04-.13-.02-.14-.03-.25-.05-.14-.03-.14-.03-.27-.05-.14-.03v.01l-.13-.03-.24-.05-.13-.03v-.01l-.15-.04-.29-.07-.15-.04-.15-.04-.28-.08-.15-.04-.07-.03-.14-.05-.07-.03-.07-.04-.13-.07-.07-.04-.07-.05-.08-.06-.05-.05-.05-.05-.05-.08-.05-.07-.05-.12-.05-.11-.01-.03-.02-.07-.02-.08-.01-.09-.02-.17-.01-.09-.01-.13-.01-.24-.01-.13v-.13l-.01-.24v-.32l-.01-.54-.01-.83-.02-1.07-.02-1.26-.02-1.39-.03-1.48-.03-1.5-.03-1.47-.02-1.4-.02-1.26-.02-1.07-.02-.83-.01-.54v-.71l.01-.22.01-.22v-.1l.01-.12.02-.23.01-.12.02-.11.04-.22.02-.11.02-.09.05-.16.03-.09.05-.12.05-.12.04-.06.08-.12.04-.06.05-.05.05-.05.07-.06.08-.05.1-.05.1-.04.08-.03.16-.05.09-.03.12-.02.12-.02h.11l.21-.01h.24l.24.01h.13l.12.02.22.03.12.02.09.02.17.03.09.02.1.03.19.06.1.03.12.05.21.1.11.05.08.05.15.09.08.05.11.08.21.15.11.08.09.07.16.14.09.07.1.1.18.18.1.1.07.08.15.18.16.18.07.08.06.08.13.18.14.18.06.08.06.09.14.2.14.2.06.09.07.1.15.23.15.23.07.11.07.12.16.27.16.27.07.12.07.13.16.28.16.28.07.13.08.14.17.32.17.32.08.15.09.17.25.48.39.75.5.97.59 1.15.66 1.29.71 1.37.74 1.42.73 1.42.71 1.37.67 1.29.59 1.15.5.97.39.75.25.48.09.17.07.14.13.25.07.14.07.14.12.25.07.14.05.12.1.22.05.12.05.11.09.22.05.11.05.11.1.21.05.11.05.1.1.19.05.1.06.1.11.18.06.1.06.1.11.18.06.1.07.09.14.17.08.09.09.09.16.16.09.08.11.07.2.14.11.07.11.06.2.11.11.05.12.05.23.08.12.04.14.03.25.06.14.03.14.02.26.04.14.02.15.01.29.02.16.01h.66l.12-.01.29-.01.35-.01.29-.01.12-.01.12-.01.28-.02.34-.02.28-.02.12-.01.17-.02.37-.04.37-.04.17-.02v.01l.17-.01.37-.03.37-.03.17-.01.16-.01.35-.02.35-.01.16-.01h.94l.14.01.31.01.31.01.14.01.13.01.29.02.29.02.13.01.13.01.28.02.28.02.13.01.11.01.24.02.24.02.11.01.1.01.23.02.23.02.1.01.15.01.29.02.15.01.14.01.25.02.14.01h.58l.22-.01.22-.01h.1l.16-.02.29-.03.16-.02.14-.03.26-.05.14-.03.13-.04.25-.07.13-.04.13-.06.23-.11.12-.06.11-.07.2-.14.11-.07.1-.1.18-.18.1-.1.07-.11.13-.21.07-.12.04-.12.08-.22.04-.12.02-.13.03-.24.02-.13-.01-.14.02-.29zm-23.49-39.07l-.01.34-.01.34-.01.15-.01.15-.02.34-.02.34-.01.15-.02.13-.04.29-.04.29-.02.13-.02.12-.06.27-.06.27-.03.13-.03.13-.07.28-.08.28-.03.12-.06.15-.1.29-.05.15-.06.11-.12.25-.12.24-.05.11-.07.13-.14.24-.07.13-.07.09-.15.2-.15.2-.07.09-.09.1-.18.19-.09.1-.08.08-.19.17-.19.17-.08.08-.09.06-.19.14-.19.14-.09.06-.14.08-.25.15-.14.08-.11.05-.24.12-.24.12-.11.06-.12.05-.25.1-.25.1-.11.05-.11.04-.25.08-.25.09-.11.04-.13.03-.29.07-.29.08-.13.03-.15.03-.33.07-.33.07-.15.03-.15.02-.34.05-.34.05-.15.02-.16.02-.36.04-.36.04-.16.02-.18.01-.38.03-.39.03-.17.01-.12.01-.3.01-.35.02-.3.01-.12.01h-.13l-.31.01h-.37l-.31.01h-.13l-.11-.01-.21-.01-.11-.01-.1-.01-.18-.02-.1-.01-.08-.02-.15-.04-.08-.02-.1-.03-.1-.03-.05-.03-.04-.04-.04-.04v-1.38l-.01-.13-.01-.24-.01-.13-.01-.1-.02-.19-.01-.1-.01-.09-.01-.17-.01-.09v-.22l.01-.55.02-.84.02-1.08.02-1.25.03-1.37.03-1.43.03-1.43.03-1.37.03-1.25.02-1.08.02-.84.01-.55v-.2l.01-.15.01-.28.01-.15v-.12l.01-.23v-.12l.01-.12.01-.22.01-.12.01-.11.02-.21.01-.12.01-.09.02-.16.01-.09.02-.08.02-.09.04-.13.04-.13.05-.1.05-.09.03-.05.05-.05.05-.05.06-.04.06-.04.06-.03.07-.03.12-.04.11-.04.08-.02.15-.04.08-.02.1-.01.19-.03.1-.01.14-.01.26-.02.14-.01h.14l.27-.01h.26l.29.01.35.01.29.01h.12l.12.01.28.02.34.03.28.02.12.01.16.02.35.04.35.04.16.02.15.03.33.07.34.07.15.03.16.04.34.08.34.09.16.04v-.01l.12.04.27.09.27.09.12.04.13.05.28.12.28.12.12.05.13.07.28.14.28.15.13.07v-.01l.1.06.22.14.22.13.1.06.09.07.2.15.2.15.09.07.09.08.2.18.2.18.09.08.08.09.19.21.19.21.08.09.06.09.14.18.14.18.06.08.06.11.14.23.14.23.06.11.04.1.1.21.1.22.04.1.05.13.1.28.1.28.05.13.03.12.07.27.07.27.03.12.02.13.05.28.05.29.02.13.02.14.03.29.03.29.02.13.01.15.01.33.01.33.01.15-.01.17zm76.15-15.85l-.01-.13-.03-.13-.06-.25-.02-.13-.06-.12-.1-.22-.06-.12-.08-.12-.17-.21-.09-.12-.12-.08-.22-.15-.12-.08-.13-.04-.25-.08-.13-.05-.14-.02-.25-.02-.14-.02-.13.02-.24.02-.13.02-.12.03-.22.07-.12.03-.12.06-.2.12-.11.07-.09.08-.17.15-.09.08-.06.09-.11.14-.06.09-.04.07-.08.14-.05.07-.04.07-.07.14-.04.07-.03.07-.07.13-.03.07-.05.1-.05.09-.04.07-.07.12-.03.06-.05.07-.04.06-.08.1-.13.16-.06.1-.07.06-.13.13-.07.07-.1.08-.1.08-.11.07-.12.07-.07.03-.14.05-.07.03-.12.04-.12.03-.12.02-.21.05-.11.02-.08.01-.15.01-.08.01-.13.01-.24.01-.13.01-.13.01-.25.01h-35.95l-.29-.01-.3-.01h-.24l-.26-.01-.25-.01h-.11l-.12-.01-.24-.01-.25-.02-.12-.01v.01l-.14-.01-.27-.03-.15-.02v-.01l-.15-.02-.29-.04-.15-.03-.1-.02-.16-.04-.1-.02-.08-.03-.17-.06-.09-.03-.08-.04-.16-.07-.08-.04-.07-.06-.08-.05-.07-.09-.06-.09-.01-.01-.05-.1-.05-.1-.05-.09-.04-.09-.06-.1-.06-.12-.04-.06-.07-.12-.04-.07-.06-.07-.11-.14-.05-.07-.08-.07-.15-.14-.08-.07-.09-.06-.17-.11-.09-.06-.1-.05-.18-.09-.1-.04-.12-.04-.23-.06-.11-.04-.13-.01-.22-.04-.12-.01-.15-.01-.26-.01h-.26l-.23.02h-.12l-.12.03-.22.06-.12.03-.12.06-.23.12-.13.06-.1.1-.18.19-.1.1-.06.1-.12.2-.07.1-.05.1-.08.18-.04.1-.05.11-.08.21-.04.1-.06.18-.16.49-.24.75-.32.98-.38 1.14-.41 1.26-.44 1.34-.44 1.36-.44 1.33-.41 1.26-.38 1.14-.31.98-.25.75-.16.49-.06.17-.02.1-.05.17-.02.1-.01.09-.01.17-.01.1v.37l.02.13.03.23.02.13.06.15.1.26.05.15.1.12.19.23.1.12.12.09.23.16.12.09.14.05.27.1.14.05.15.02.29.03.16.02.15-.02.28-.03.16-.02.14-.05.27-.08.14-.05.13-.07.23-.12.12-.07.12-.08.21-.15.12-.08.1-.1.19-.18.1-.09.1-.11.17-.18.1-.11.09-.11.17-.21.09-.11.09-.12.17-.22.08-.11.09-.12.16-.22.09-.12.08-.12.17-.23.09-.13.09-.12.16-.24.09-.13.09-.13.17-.24.09-.14.09-.12.17-.23.09-.13.09-.11.17-.22.09-.12.06-.08.14-.17.15-.17.06-.08.09-.11.18-.2.1-.1.11-.11.2-.21.1-.11.11-.1.25-.22.25-.22.11-.1.09-.07.22-.16.21-.16.1-.07.12-.08.27-.18.27-.18.12-.07.11-.06.23-.12.22-.11.11-.06.13-.06.3-.12.3-.13.13-.06.13-.04.28-.1.29-.1.13-.04.13-.03.29-.08.28-.08.13-.03v.01l.16-.04.35-.07.36-.07.16-.03.15-.03.34-.04.34-.05.15-.02.17-.02.38-.04.37-.04.17-.01.12-.01.3-.02.34-.02.3-.02h.12l.13-.01.31-.01.36-.02.31-.01h2.1l.24.01h.13l.08.02.16.02.08.01.08.01.15.02.08.02.1.03.09.03.07.02.07.04.04.03.04.03.03.04.05.07.04.08.03.04.03.05.03.12.03.12.02.09.04.16.02.09v.1l.03.18v.1l.01.14.03.26.01.14v.15l.01.28v.15l.01.1v.24l.01.23.01.11v35.93l-.01.14v.33l-.01.32v.28l-.02.31-.01.32v.14l-.02.11-.02.24-.02.25-.01.11-.02.11-.03.22-.03.23-.02.1-.02.11-.05.22-.05.23-.02.1-.03.11-.06.21-.04.11-.04.11-.09.21-.05.11-.06.11-.07.11-.06.07-.11.13-.06.08-.06.05-.1.09-.06.05-.1.05-.1.06-.08.03-.14.05-.07.03-.14.03-.26.07-.14.03-.13.03-.25.04-.13.03-.13.02-.24.05-.12.02-.15.02-.26.03-.15.02-.14.02-.26.04-.14.02-.12.02-.23.03-.12.01-.13.02-.23.03-.13.01-.12.02-.22.03-.13.01-.12.02-.22.04-.12.02-.12.03-.22.04-.11.02-.12.04-.22.07-.11.03-.11.05-.2.09-.11.05-.11.06-.21.12-.11.07-.1.09-.19.17-.1.09-.08.11-.14.22-.08.12-.05.14-.09.27-.04.15-.02.13-.02.26-.01.14v.12l.02.22v.12l.02.12.04.22.02.12.05.12.1.22.06.11.07.1.14.17.08.1.1.07.19.14.1.08.11.04.2.08.11.04.1.02.18.03.11.02.08.01.17.01.09.01h.08l.16.01h.97l.17-.01h.2l.2-.01h.23l.23-.01h.28l.27-.01h.48l.23-.01h.21l.26-.01h.49l.27-.01h.85l.31-.01h.29l.34-.01.33-.01h.32l.36-.01h.92l.34-.01h.83l.36-.01h.88l.39-.01h.94l.4-.01h1.01l.43-.01h1.06l.45-.01h1.12l.48-.01h4.04l.16.01.36.01.36.01h.16l.17.01.38.02.38.02.17.01.17.01.38.02.37.02.18.01.17.01.39.01.39.01h.31l.26-.01h.13l.13-.01h.22l.13-.01.11-.01.2-.03.11-.01.1-.02.2-.05.1-.02.12-.05.22-.08.12-.04.1-.08.2-.14.11-.08.07-.1.14-.17.08-.09.05-.11.1-.2.05-.11.02-.11.05-.21.03-.11.01-.09.02-.17.01-.09.01-.1v-.19l.01-.09v-.86l-.02-.13-.05-.26-.02-.13-.09-.13-.17-.25-.09-.13-.11-.08-.21-.15-.12-.08-.1-.04-.2-.1-.11-.05-.1-.03-.2-.05-.11-.03-.1-.01-.18-.03-.1-.02-.11-.02-.2-.03-.11-.02-.13-.01-.22-.03-.13-.01-.12-.01-.23-.02-.12-.01-.13-.01-.24-.02-.13-.01-.14-.01-.26-.03-.15-.01v.01l-.14-.01-.26-.03-.14-.02-.14-.02-.27-.03-.14-.01v-.01l-.16-.03-.3-.04-.16-.03-.16-.03-.3-.05-.17-.03-.1-.02-.21-.05-.21-.05-.1-.02-.16-.04-.28-.08-.16-.04-.07-.03-.15-.05-.08-.03-.04-.02-.04-.02-.06-.05-.06-.05-.04-.05-.05-.06-.05-.08-.05-.1-.04-.1-.04-.11-.02-.08-.03-.14-.02-.08-.01-.03-.01-.08-.02-.16-.01-.09-.01-.1-.02-.2-.01-.1-.01-.14-.01-.25-.01-.14v-.13l-.01-.25v-1.56l-.01-.33v-.39l-.01-.33v-.27l-.02-.34-.01-.4-.01-.33v-.14l-.01-.15-.01-.34-.01-.42-.02-.35v-.29l-.01-.35-.02-.43-.01-.35v-.3l-.01-.38-.01-.45v-1.24l.01-.29.01-.16v-.12l.01-.25.01-.24v-.24l.01-.27v-.53l.01-.3.01-.31v-.29l.01-.32v-.33l.01-.15v-1.05l-.01-.12v-.45l-.01-.19v-.1l-.01-.1v-.18l-.01-.09-.02-.11-.01-.11-.01-.09v-.09l-.01-.04v-.24l-.01-.56v-2.02l-.01-1.37v-1.55l-.01-1.69-.01-1.78-.01-1.83v-1.82l-.01-1.78-.01-1.69v-1.55l-.01-1.37v-1.14l-.01-.88v-1.61l.01-.23v-.48l.01-.27v-.14l.01-.13.01-.25.01-.13.01-.12.02-.23.01-.12.02-.14.02-.13.02-.08.03-.14.02-.08.02-.06.02-.06.03-.05.03-.05.02-.03.02-.03.05-.03.05-.03.09-.04.09-.03.1-.03.1-.01.09-.02.16-.02.1-.01.1-.01.2-.02h.11l.12-.01.23-.01.12-.01h.68l.35.01h.77l.15.01h.14l.33.01.4.01.33.01.14.01h.13l.32.02.37.01.31.02.14.01h.12l.29.03.35.02.3.02.12.01.17.01.37.04.37.03.17.02.16.02.35.05.35.05.16.02.16.02.34.06.34.05.15.03.14.03.3.06.3.06.13.03.13.03.26.07.27.07.12.03.1.03.22.08.22.07.1.03.11.04.24.1.24.09.11.04.12.07.22.12.12.06.14.09.24.15.14.09.1.07.18.14.09.08.1.09.17.17.1.09.05.06.09.12.05.06.05.09.1.15.05.08.03.07.06.13.04.07.04.1.06.18.04.1h.01l.02.07.05.14.02.08.03.1.05.19.02.1.03.09.04.18.02.09h-.01l.02.11.04.18.02.1h.01l.02.1.03.18.01.09.03.11.04.19.02.11.02.1.05.18.01.09.03.11.06.19.02.1.05.11.07.19.05.11.05.1.09.18.05.1.07.1.13.19.08.1.09.09.18.16.09.08.12.07.21.13.12.07.14.05.26.07.13.04.15.02.27.02.14.02.15-.03.28-.03.14-.02.14-.06.26-.1.13-.06.13-.09.23-.17.13-.09.09-.11.19-.22.09-.11.07-.14.13-.26.07-.13.04-.16.08-.28.04-.15.02-.14.02-.27.01-.14.01-.19.01-.54.03-.83.02-1.05.04-1.24.04-1.34.03-1.4.04-1.41.04-1.34.03-1.23.03-1.06.03-.82.01-.54v-.32zm196.3 3.29l-.01-.28-.01-.15-.03-.14-.05-.26-.03-.14-.06-.13-.11-.24-.06-.13-.08-.11-.15-.21-.09-.11-.12-.09-.22-.16-.12-.09-.12-.05-.23-.09-.12-.05-.12-.03-.22-.06-.12-.03-.13-.02-.24-.03-.13-.02h-1.42l-.29.02-.29.01-.13.01-.14.01-.32.02-.31.02-.14.01-.15.01-.34.02-.33.02-.15.01-.16.01-.37.02-.37.02-.17.01-.17.01-.38.03-.38.02-.18.01-.12.01-.3.02-.36.02-.3.02-.13.01-.13.01-.32.02-.38.02-.32.02-.13.01-.14.01-.33.02-.4.02-.33.02-.14.01-.15.01-.35.01-.42.02-.35.01h-.15l-.15.01-.37.01-.44.01-.37.01-.16.01h-2.2l-.15-.01-.29-.02-.15-.01-.14-.01-.27-.02-.14-.01v.01l-.12-.02-.21-.03-.12-.02-.11-.01-.21-.01-.12-.01h-.42l-.15.01-.28.02-.15.01-.15.03-.27.05-.14.03-.14.06-.27.11-.14.06-.12.09-.23.17-.13.09-.09.12-.18.22-.1.12-.07.14-.13.26-.07.14-.03.14-.05.27-.03.14-.01.15-.02.28-.01.15.01.14.02.26.01.14.05.13.1.24.06.13.08.11.15.19.08.1.1.08.19.15.1.08.12.06.22.11.12.06.11.03.2.06.11.03.11.02.2.04.11.02.11.02.2.03.11.02.11.01.2.02.11.01.12.01.22.03.12.01.12.01.23.02.12.01.13.01.23.01.12.01v-.01l.12.01.22.02.12.01.12.01.23.02.12.01.13.02.25.03.13.02.13.02.24.04.13.02.12.03.22.05.12.03.12.03.23.06.12.03.13.05.25.08.13.05.04.02.04.02.03.03.03.03.08.09.07.08.06.08.05.09.05.1.08.18.04.1h.01l.05.13.04.13.03.14.06.26.03.14.02.13.04.23.02.12.01.13.02.24.01.13.01.1v.23l.01.23v.88l-.01.89-.01 1.18-.01 1.43-.01 1.64-.01 1.8-.01 1.92-.01 2.01-.01 2.05-.01 2.05-.01 2.01-.01 1.92-.01 1.8-.01 1.64-.01 1.43-.01 1.19-.01.89v.84l-.13-.15-.37-.43-.59-.69-.79-.93-.97-1.15-1.13-1.33-1.28-1.5-1.39-1.64-1.49-1.76-1.58-1.85-1.63-1.93-1.67-1.97-1.69-1.99-1.69-2-1.67-1.97-1.64-1.93-1.57-1.85-1.49-1.76-1.39-1.64-1.27-1.5-1.13-1.33-.97-1.14-.79-.93-.59-.69-.37-.44-.13-.15-.06-.07-.1-.13-.05-.07-.05-.07-.09-.13-.05-.07-.05-.06-.09-.12-.05-.06-.01-.01-.05-.06-.09-.11-.05-.06-.06-.06-.12-.12-.06-.07-.07-.06-.13-.11-.07-.06-.09-.05-.16-.1-.09-.05-.09-.03-.17-.06-.1-.03-.09-.03-.18-.05-.09-.03-.1-.01-.19-.02-.1-.01h-.1l-.18-.01-.1-.01h-1.14l-.22-.01h-.32l-.11-.01-.25-.01-.25-.01-.12-.01h-.12l-.27-.01-.27-.01h-1.06l-.29.01-.34.01-.29.01h-.12l-.18.01-.39.02-.38.02-.18.01-.17.01-.38.02-.38.02-.17.01h-.16l-.35.01-.36.01h-1.6l-.16-.01-.31-.01-.16-.01-.16-.01-.3-.01-.16-.01h-.15l-.27-.01h-1.53l-.24.01-.25.01h-.11l-.16.01-.29.02-.16.01-.13.01-.25.02-.13.01-.12.01-.22.02-.12.01-.08.01-.16.01-.08.01-.14.01h-.7l-.22.01-.12.01-.12.01-.21.02-.12.01-.11.02-.21.04-.11.02-.12.04-.22.07-.12.04-.11.07-.21.14-.12.08-.1.11-.19.2-.1.11-.07.13-.12.24-.07.13-.03.13-.06.25-.03.13-.01.15-.02.28-.01.15.02.14.04.26.02.14.07.14.13.26.07.14.09.11.18.2.09.11.11.09.21.17.11.09.13.07.24.12.13.07.14.06.26.1.14.05.15.04.28.07.16.04.16.02.3.05.16.02h.1l.22.01.22.01h.86l.12.01.23.01.12.01.12.02.22.03.12.02.12.03.22.06.12.03.1.04.19.07.1.04.09.05.16.08.09.04.09.06.17.11.09.06.08.06.15.12.08.07.08.08.14.15.08.08.05.08.1.14.05.07.04.08.08.14.04.08.04.1.08.18.04.1.03.13.02.13.01.13.02.25.01.13v.28l-.01.57-.02.91-.02 1.23-.03 1.49-.04 1.74-.04 1.94-.04 2.11-.05 2.25-.05 2.35-.05 2.42-.05 2.45-.05 2.45-.05 2.42-.05 2.35-.05 2.25-.04 2.11-.04 1.94-.03 1.73-.03 1.5-.02 1.22-.02.91-.01.58-.01.2-.01.16-.02.3-.01.16-.01.1-.02.19-.01.1-.02.13-.04.23-.03.13-.03.13-.03.13-.03.07-.06.14-.03.07-.05.1-.05.1-.07.09-.06.09-.04.05-.05.04-.06.05-.06.06-.04.03-.05.03-.11.06-.12.05-.08.03-.08.03-.08.02-.15.04-.08.02v.01l-.11.03-.12.02v-.01l-.09.02-.16.03-.09.02-.08.02-.15.03-.08.02-.1.02-.19.03-.1.02-.1.02-.18.03-.1.02-.11.02-.25.05-.25.05-.11.02-.1.02-.22.05-.22.05-.1.02-.15.03-.28.05-.15.03-.14.03-.25.05-.14.03-.13.03-.24.06-.13.03-.11.03-.21.06-.12.03-.11.05-.2.08-.11.04-.11.06-.21.11-.11.06-.1.09-.18.16-.1.09-.09.12-.1.14-.01-.01-.1-.07-.1-.05-.18-.09-.1-.05-.1-.05-.19-.09-.1-.05-.11-.04-.2-.08-.11-.04-.1-.04-.18-.08-.1-.04-.11-.04-.21-.08-.11-.04-.12-.05-.23-.1-.12-.05-.12-.06-.22-.11-.12-.05-.11-.06-.21-.11-.12-.06-.13-.08-.24-.14-.13-.07-.13-.08-.24-.16-.13-.09-.09-.06-.19-.14-.19-.14-.09-.06-.12-.1-.22-.19-.12-.1-.08-.09-.16-.16-.08-.09-.09-.13-.18-.24-.09-.13-.05-.09-.12-.2-.12-.2-.05-.09-.04-.09-.1-.2-.1-.2-.05-.09-.05-.12-.12-.26-.12-.26-.05-.12-.05-.12-.1-.26-.1-.26-.04-.12-.05-.13-.11-.29-.11-.29-.05-.13-.05-.14-.11-.31-.11-.31-.05-.14-.05-.15-.11-.33-.11-.33-.05-.15-.05-.16-.12-.36-.12-.36-.05-.16-.04-.11-.09-.27-.11-.32-.09-.27-.04-.11-.04-.12-.1-.28-.12-.33-.1-.29-.04-.12-.07-.19-.19-.54-.31-.87-.42-1.16-.51-1.43-.6-1.66-.67-1.86-.73-2.03-.78-2.17-.82-2.28-.85-2.36-.87-2.4-.87-2.42-.86-2.4-.85-2.36-.82-2.28-.78-2.17-.73-2.03-.67-1.86-.6-1.66-.52-1.43-.42-1.16-.31-.87-.2-.54-.07-.19-.05-.14-.09-.26-.05-.14h.01l-.04-.12-.08-.23-.05-.12-.04-.11-.07-.2-.04-.11-.04-.1-.07-.19-.04-.1-.04-.1-.08-.19-.05-.1-.06-.1-.11-.18-.06-.1-.08-.1-.16-.19-.08-.1-.13-.08-.25-.15-.14-.08-.14-.03-.27-.06-.14-.03-.16.02-.29.05-.16.02-.13.07-.24.12-.13.06-.1.08-.18.15-.09.08-.07.09-.13.17-.07.09-.05.1-.1.18-.05.09-.04.09-.08.17-.05.09-.04.1-.08.18-.04.1-.04.1-.07.18-.04.1-.04.1-.08.19-.04.1h.01l-.05.1-.08.18-.05.1-.08.18-.25.54-.4.87-.53 1.17-.65 1.44-.76 1.68-.86 1.89-.94 2.07-1.02 2.23-1.07 2.36-1.12 2.46-1.15 2.53-1.17 2.57-1.17 2.59-1.17 2.57-1.15 2.53-1.11 2.46-1.07 2.36-1.01 2.23-.94 2.08-.86 1.89-.76 1.68-.65 1.44-.53 1.17-.39.87-.25.54-.09.19-.06.12-.14.27-.14.27-.06.12-.07.13-.16.28-.15.28-.07.13-.06.1-.14.22-.14.22-.06.1-.08.1-.16.23-.17.23-.07.1-.07.08-.15.18-.15.18-.07.08-.07.08-.16.17-.16.17-.07.08-.08.07-.17.15-.18.16-.08.07-.1.08-.18.14-.1.08-.13.08-.25.15-.13.08-.09.04-.17.08-.09.04-.15.06-.27.1-.15.05-.13.05-.24.08-.13.04-.12.04-.23.08-.12.04-.12.04-.22.08-.12.04-.11.04-.21.07-.12.04-.11.04-.2.08-.11.04-.1.05-.09.04-.04-.02-.1-.06-.12-.05-.21-.09-.12-.05-.12-.03-.22-.06-.12-.03-.13-.04-.23-.07-.12-.04-.14-.04-.26-.08-.14-.04v.01l-.15-.05-.27-.08-.15-.05-.13-.04-.28-.08-.28-.08-.13-.04-.11-.04-.25-.08-.25-.08-.11-.04-.11-.03-.23-.07-.23-.07-.11-.03v.01l-.14-.05-.26-.1-.14-.05-.14-.05-.25-.09-.14-.05-.1-.04-.19-.07-.1-.04-.08-.04-.16-.08-.08-.04-.08-.04-.15-.08-.09-.04-.05-.03-.05-.03-.01-.01-.01-.02-.05-.09-.04-.09-.03-.1-.04-.1-.02-.1-.05-.19-.02-.11-.02-.1-.03-.19-.02-.1-.01-.04-.01-.12-.03-.23-.02-.12h.01l-.01-.1-.02-.22-.02-.22-.01-.1v-.11l-.02-.24-.01-.23-.01-.11-.01-.12-.01-.27-.01-.27-.01-.12v-.13l-.01-.29-.01-.29-.01-.13v-.15l-.01-.32v-.32l-.01-.15v-.5l-.01-.34v-1.85l.01-.14.02-.27.01-.14.01-.14.02-.26.01-.14.01-.12.02-.23.01-.12.01-.11.01-.21.01-.11v-.1l.01-.19v-.29l-.01-.56-.01-.87-.01-1.13-.01-1.35-.01-1.52-.02-1.64-.01-1.71-.02-1.73-.01-1.71-.02-1.64-.01-1.52-.01-1.35-.01-1.13-.01-.87-.01-.56v-.35l-.01-.32-.01-.33v-.15l-.01-.16-.01-.34-.01-.34-.01-.16-.01-.16-.02-.36-.02-.36-.01-.16v-.16l-.01-.37-.01-.37-.01-.17v-.41l-.01-.34v-1.59l-.01-.17-.01-.38-.01-.38v-.17l-.01-.16-.01-.35-.01-.35-.01-.16v-.14l-.01-.31-.01-.32v-.27l-.01-.28v-.77l.01-.23v-.26l.01-.28.01-.15.01-.15.02-.28.01-.15.01-.1.02-.19.01-.11.02-.1.03-.18.02-.09.03-.07.05-.14.03-.07.05-.1.05-.1.05-.08.05-.08.06-.06.05-.05.1-.08.1-.07.12-.07.12-.06.11-.05.11-.04.12-.03.21-.06.11-.03.14-.03.26-.06.14-.03.15-.03.28-.06.15-.03v.04l.13-.02.23-.04.13-.02.14-.02.26-.03.14-.02.14-.02.25-.03.14-.02.12-.02.22-.03.12-.01v.01l.13-.01.24-.02.13-.01.13-.01.24-.02.13-.01.12-.02.22-.03.12-.02.11-.02.21-.03.11-.02.11-.03.21-.05.11-.03.11-.03.21-.06.11-.03.11-.05.2-.09.11-.05.11-.07.2-.13.11-.07.1-.1.18-.18.1-.1.07-.12.13-.23.07-.12.04-.13.08-.25.04-.13.01-.14.03-.26.01-.14-.01-.14-.03-.27-.01-.14-.04-.13-.08-.24-.05-.13-.08-.13-.14-.24-.08-.13-.11-.1-.21-.19-.11-.1-.12-.06-.23-.11-.12-.06-.13-.04-.25-.08-.13-.04-.14-.02-.27-.04-.14-.02-.15-.01-.28-.01-.15-.01-.14.01-.14.01-.08.01-.14.01h-.08l-.09.01-.18.01-.09.01-.11.01-.2.01-.11.01-.14.01-.26.02-.14.01-.15.01-.28.02-.15.01-.1.01-.22.01-.22.01-.1.01h-.12l-.26.01-.26.01h-.25l-.29.01-.28.01-.13.01h-2.63l-.38-.01-.45-.01-.38-.01h-.31l-.36-.01-.43-.01-.36-.01h-.3l-.35-.01-.42-.01h-2.48l-.15.01-.29.01-.15.01-.15.01-.27.02-.15.01-.14.02-.26.03-.14.02-.13.02-.24.04-.13.02-.13.03-.24.05-.13.03-.13.04-.23.08-.12.05-.12.05-.21.1-.12.05-.12.07-.21.13-.11.07-.1.09-.19.16-.1.09-.1.09-.18.18-.09.09-.09.1-.16.19-.09.1-.08.11-.15.21-.08.11-.08.13-.15.24-.08.13-.08.14-.14.27-.07.14-.05.09-.1.21-.1.2-.05.09-.05.1-.1.22-.1.22-.05.1-.05.11-.11.24-.11.25-.05.11-.05.12-.11.27-.11.27-.05.12-.04.1-.04.1-.03.07-.06.14-.03.07-.03.09-.06.16-.03.09-.04.1-.09.19-.05.1-.05.12-.09.23-.05.12-.06.14-.11.26-.06.14-.04.1-.09.22-.09.22-.04.1-.04.11-.1.24-.1.23-.05.11-.05.12-.11.26-.11.26-.05.12-.05.13-.12.29-.12.29-.05.13-.06.14-.12.31-.12.31-.06.14-.06.15-.14.34-.14.34-.06.15-.07.16-.14.36-.15.36-.07.16-.05.12-.11.28-.13.33-.11.28-.05.12-.05.13-.12.29-.14.35-.12.29-.05.13-.05.13-.13.31-.15.37-.12.31-.05.13-.06.14-.13.34-.16.4-.13.34-.06.14-.06.14-.14.35-.16.41-.14.34-.06.15-.06.15-.15.36-.17.43-.14.36-.06.15-.06.16-.15.39-.18.46-.15.39-.06.16-.07.17-.16.4-.19.48-.16.4-.07.17-.05.12-.12.32-.16.41-.16.41-.12.32-.05.13-.05.13-.13.33-.17.42-.17.42-.13.33-.05.13-.05.14-.13.34-.17.44-.17.44-.13.34-.05.14-.06.14-.14.36-.18.46-.18.46-.14.36-.05.14-.03.1-.08.22-.08.22-.04.1-.05.16-.1.29-.05.16-.04.14-.08.26-.04.14-.04.13-.07.24-.04.13-.03.1-.06.19-.03.1-.03.08-.06.16-.03.08-.04.08-.03.08-.01-.02-.03-.07-.06-.13-.03-.07h.01l-.05-.11-.09-.22-.05-.11h-.01l-.05-.13-.09-.24-.05-.13h.01l-.06-.15-.11-.28-.06-.15-.04-.11-.09-.23-.09-.23-.04-.1-.04-.12-.11-.25-.1-.25-.05-.11-.05-.12-.11-.27-.12-.27-.05-.13-.08-.17-.22-.51-.35-.81-.46-1.06-.56-1.29-.64-1.48-.71-1.64-.76-1.76-.8-1.85-.82-1.9-.83-1.92-.82-1.9-.8-1.85-.76-1.76-.71-1.64-.64-1.49-.56-1.29-.46-1.07-.35-.8-.22-.51-.08-.18h-.01l-.04-.09-.07-.17-.04-.1h.01l-.04-.1-.07-.19-.04-.11-.04-.1-.07-.18-.04-.1-.04-.1-.07-.18-.03-.1-.03-.09-.06-.17-.03-.09-.04-.1-.07-.19-.04-.1-.05-.1-.09-.18-.05-.1-.05-.09-.09-.18-.05-.09-.06-.1-.12-.18-.06-.09-.08-.1-.15-.17-.08-.09-.1-.08-.18-.15-.09-.08-.11-.07-.2-.13-.11-.07-.12-.05-.23-.09-.12-.05-.13-.04-.24-.08-.13-.04-.14-.02-.27-.04-.14-.02-.14-.01-.27-.01-.14-.01h-.38l-.11.01-.2.01-.11.01-.11.01-.21.01-.11.01h-.13l-.24.01h-.28l-.29.01-.15.01h-.1l-.22.01-.22.01h-.94l-.41-.01-.49-.01-.41-.01h-.33l-.39-.01-.47-.01-.39-.01h-.16l-.16-.01-.38-.01-.45-.02-.37-.02-.16-.01h-.15l-.36-.02-.43-.02-.36-.02-.15-.01-.15-.01-.35-.02-.41-.02-.35-.02-.15-.01-.14-.01-.33-.01-.4-.02-.33-.02-.14-.01h-.13l-.31-.01-.38-.01-.32-.01h-.57l-.37-.01-.31-.01h-.13l-.14.01-.25.01-.14.01-.13.02-.24.03-.13.02-.13.04-.24.07-.13.04-.12.06-.22.11-.12.06-.11.09-.21.16-.11.09-.09.13-.16.24-.09.13-.04.14-.08.25-.04.14-.01.14-.02.26-.01.14.01.14.02.27.01.15.04.14.07.26.03.14.07.13.12.24.07.13.09.1.16.19.09.1.1.08.19.16.1.09.11.06.21.11.12.06.11.05.21.09.12.05.12.04.23.07.12.04.13.03.24.05.13.03.14.03.25.05.14.03.14.02.26.04.14.02.15.02.28.05.15.02.16.02.29.04.16.02.1.01.22.03.23.03.1.02.1.02.22.04.22.04.1.02.14.03.25.05.14.03.08.03.15.05.08.03.1.04.18.07.1.04.06.04.12.07.06.04.1.08.1.07.07.08.06.08.06.09.06.09.05.13.05.13.03.14.04.14.02.12.03.23.02.12.01.12.01.22.01.12v1.89l-.01.2-.03.57-.05.91-.07 1.21-.09 1.48-.1 1.71-.11 1.9-.12 2.07-.13 2.19-.14 2.28-.14 2.33-.14 2.35-.14 2.33-.14 2.28-.13 2.19-.12 2.06-.11 1.9-.1 1.71-.09 1.48-.07 1.21-.05.91-.03.57-.01.2-.01.13-.02.28-.02.28-.01.13h.01l-.01.1-.02.23-.03.23-.01.1h-.01l-.01.11-.04.24-.04.24-.02.11-.03.14-.06.27-.03.14-.04.12-.07.22-.04.12-.03.09-.06.16-.03.09-.05.1-.1.18-.05.1-.06.07-.11.14-.06.07-.05.05-.1.1-.06.05-.11.08-.11.08-.08.04-.15.07-.08.04-.11.03-.2.06-.11.03-.13.03-.23.05-.12.03-.15.03-.27.05-.15.03-.13.02-.24.04-.13.02v-.01l-.13.02-.25.04-.14.02-.12.02-.22.03-.12.02-.12.02-.22.03-.12.02-.11.02-.2.03-.11.02-.12.02-.21.04-.11.02-.11.03-.2.06-.11.03-.11.04-.2.08-.11.04-.11.06-.2.12-.11.07-.1.1-.19.18-.1.1-.07.13-.14.23-.07.12-.04.13-.07.25-.04.13-.01.14-.02.25-.01.14.01.13.01.24.01.13.02.11.04.21.02.11.04.12.08.22.04.12.08.11.15.21.08.12.1.08.19.14.1.08.11.05.2.09.11.05.11.03.2.05.11.03.1.01.19.02.1.01h.1l.19.01.1.01h1.8l.24-.01h.28l.29-.01h.25l.23-.01h1.47l.29-.01h.58l.31-.01h7.81l.31.01h.58l.29.01h2.05l.31.01h2.27l.14-.01.26-.02.14-.01.14-.02.26-.05.14-.03.12-.05.23-.08.13-.04.12-.08.22-.14.12-.07.11-.12.2-.21.11-.12.06-.15.12-.28.06-.15.02-.15.03-.28.02-.15-.02-.15-.03-.28-.02-.15-.05-.14-.1-.27-.05-.14-.08-.13-.16-.25-.08-.13-.11-.11-.2-.2-.11-.11-.12-.09-.22-.17-.12-.09-.14-.08-.26-.15-.14-.08-.09-.04-.21-.08-.21-.08-.09-.04-.1-.03-.22-.06-.22-.06-.1-.03-.11-.02-.24-.04-.24-.04-.11-.02h-.12l-.26-.01-.26-.01-.12-.01-.12.01-.22.01-.12.01-.09.01-.17.02-.09.01-.12.01-.13.01-.16-.01-.3-.02-.16-.01-.11-.01-.2-.02-.11-.01-.12-.02-.21-.05-.11-.02-.09-.04-.17-.07-.09-.04-.12-.06-.12-.06-.07-.05-.12-.1-.07-.05-.07-.08-.08-.08-.05-.07-.09-.14-.05-.07-.05-.09-.08-.16-.04-.09-.03-.09-.05-.16-.03-.08-.03-.14-.05-.26-.03-.14-.02-.13-.03-.24-.02-.13-.01-.06-.01-.16-.02-.3-.01-.16v-.11l-.01-.23-.01-.23v-3.04l-.01-1.49-.01-1.71-.01-1.88-.01-2.03-.01-2.13-.01-2.19-.01-2.21-.01-2.19-.01-2.13-.01-2.03-.01-1.89-.01-1.71-.01-1.48v-2.93l.08.18.23.53.36.84.48 1.13.59 1.38.68 1.6.77 1.79.83 1.94.89 2.07.93 2.16.95 2.22.97 2.26.97 2.26.95 2.23.93 2.16.89 2.07.83 1.95.77 1.78.68 1.6.59 1.38.48 1.13.36.84.23.53.08.18.05.12.08.21.05.11.04.1.08.19.05.1.05.1.09.18.05.1.06.1.11.19.06.1.08.1.14.17.08.1.09.08.18.16.1.08.12.07.22.13.12.07.14.03.25.06.14.03.14.01.25.02.14.01.14-.01.27-.02.14-.01.13-.04.25-.07.13-.04.12-.07.23-.12.12-.06.1-.09.19-.17.1-.09.08-.1.15-.18.08-.1.07-.11.13-.19.07-.1.06-.11.11-.21.06-.11.05-.12.11-.22.05-.12.06-.13.11-.24.06-.13.07-.18.21-.52.33-.83.44-1.11.54-1.36.62-1.58.7-1.77.76-1.92.8-2.05.84-2.14.87-2.2.88-2.23.88-2.23.87-2.2.84-2.14.81-2.05.76-1.92.7-1.77.62-1.58.54-1.36.44-1.11.33-.83.21-.52.07-.18-.01.15-.01.28-.01.15-.01.1-.02.22-.02.22-.01.1-.01.16-.01.3v2.85l.01 1.36.01 1.56.01 1.73.01 1.85v1.95l.01 2.01.01 2.02.01 2 .01 1.95.01 1.86.01 1.73.01 1.56.01 1.36v2.79l-.01.1-.01.1-.01.09-.01.16-.01.09v.1l-.01.19v.1l-.01.13-.01.23v.13l-.01.15-.01.27-.01.15v1.32l-.01.1-.01.19-.01.1-.01.06-.01.06-.02.06-.02.05-.02.04-.04.04-.06.02-.05.03-.07.02-.13.04-.07.02-.13.03-.12.03-.08.01-.14.02-.07.01-.11.02-.21.03-.11.02-.12.02-.23.03-.12.02-.13.02-.24.03-.13.02-.15.02-.28.04-.15.02-.15.03-.27.05-.15.02-.13.02-.24.05-.13.02-.13.02-.24.05-.13.03-.12.04-.23.07-.12.04-.12.04-.22.08-.12.05-.12.06-.21.12-.12.06-.1.08-.19.15-.1.08-.09.11-.17.2-.09.11-.06.13-.12.25-.07.13-.03.13-.06.25-.03.13-.01.15-.02.28-.01.15.01.13.02.25.01.13.04.13.07.25.04.13.08.13.15.24.08.13.11.1.21.19.11.1.13.06.23.11.12.06.13.04.24.07.13.04.14.02.25.03.14.02h.15l.27.01.15.01h.09l.16-.01.09-.01.1-.01.19-.02.1-.01.11-.01.21-.03.12-.01.11-.01.21-.02.12-.01.15-.01.28-.02.15-.01.15-.02.28-.03.15-.02v.01l.11-.01.24-.02.24-.02.11-.01.11-.01.25-.01.25-.01.11-.01h3.38l.48.01.48.01h.66l.36.01.47.01.47.01.36.01h.14l.14.01h.34l.44.01.45.01.34.01h.14l.18.01.44.01.52.02.44.01.18.01.18.01.42.01.5.02.42.02.18.01.17.01.4.01.48.01.4.01.17.01.16.01.38.01.46.01.38.01h.16l.15.01.36.01.44.01h2.4l.12-.01.23-.01h.12l.11-.01.21-.02.11-.01.11-.02.15-.03h.01l.12.05.1.01.18.02.1.01.14.01.14.01h.64l.11-.01.12-.01h.28l.1-.01.18-.01.1-.01h.1l.19-.01h.6l.15-.01.28-.01.15-.01h.73l.25-.01.25-.01h.5l.27-.01h.26l.3-.01.3-.01h1.22l.35-.01h.51l.17-.01h.38l.38-.01h3.9l.16.01.36.01.36.01.16.01.17.01.38.02.38.02.17.01.17.01.38.02.38.02.17.01.18.01.39.01.39.01.18.01h.58l.14-.02.26-.03.14-.02.13-.03.24-.06.13-.03.13-.06.24-.11.13-.06.12-.1.22-.18.12-.1.08-.12.16-.23.09-.12.05-.14.09-.26.05-.14.02-.13.04-.24.02-.13v-.13l.01-.25.01-.13-.01-.14-.02-.26-.01-.14-.04-.12-.07-.23-.04-.12-.06-.12-.1-.22-.05-.12-.09-.11-.17-.2-.09-.11-.09-.07-.17-.13-.09-.07-.11-.06-.2-.11-.11-.06-.11-.04-.21-.07-.11-.04-.1-.03-.19-.05-.1-.03-.11-.02-.21-.04-.11-.02-.11-.02-.2-.03-.11-.02-.11-.02-.2-.03-.11-.02v-.01l-.13-.03-.24-.05-.13-.03-.12-.02-.22-.04-.12-.02-.14-.03-.27-.07-.14-.04-.08-.03-.15-.05-.08-.03-.08-.04-.15-.07-.08-.04-.11-.07-.11-.07-.1-.09-.1-.09-.05-.06-.05-.06-.05-.07-.04-.07-.01-.06-.01-.05-.01-.03.01-.04h-.01l.02-.08.02-.08.02-.08.04-.15.02-.08.03-.1.05-.19.03-.1.03-.11.06-.21.03-.11.04-.14.07-.25.04-.14h-.01l.04-.15.09-.28.04-.15h.01l.03-.1.07-.23.07-.23.03-.11h-.01l.04-.11.08-.24.08-.24.04-.11.04-.13.1-.28.09-.28.04-.12.05-.13.1-.29.1-.29.05-.13.05-.15.12-.32.12-.32.05-.15h-.01l.06-.15.13-.34.13-.33.06-.15.06-.16.14-.36.14-.35.06-.16.05-.11.11-.27.13-.33.11-.27.05-.11.05-.12.12-.28.14-.34.12-.28.05-.12.05-.13.13-.3.16-.36.13-.3.05-.13.06-.13.14-.32.17-.37.15-.31.06-.13.05-.1.09-.19.05-.1.04-.09.08-.17.04-.09.05-.08.05-.08.05-.07.06-.07.03-.03.06-.02.04-.01h.08l.09-.01h2.2l.54-.01.81-.01 1-.01 1.12-.01 1.16-.01 1.12-.01 1-.01.81-.01.54-.01h1.58l.23.01h.12l.12.01.22.02.12.01.1.01.19.01.1.01.09.01.08.02.12.03.12.02.07.03.07.02.01.01.05.03.05.04.03.04.03.04.03.06.03.06.03.07.05.13.03.07.03.08.05.14.03.07.03.09.05.16.03.08.05.17.14.48.21.73.27.93.31 1.07.34 1.15.35 1.18.34 1.16.31 1.07.27.93.21.73.14.48.05.17h-.01l.03.08.04.15.02.08.03.08.05.15.03.08.03.09.05.16.03.09h.01l.03.1.05.18.03.1.02.08.04.15.02.08.02.12.04.21.02.11.01.12.03.22.02.12.01.13.01.24v.13l-.01.12-.01.12-.02.08-.02.08v.01l-.09.03-.09.03-.07.02-.14.04-.08.02v.01l-.11.02-.11.03-.11.02-.2.04-.11.02-.12.03-.22.05-.12.03v-.01l-.13.03-.24.05-.13.03-.15.03-.28.06-.15.03-.1.02-.23.06-.23.06-.1.02-.13.04-.24.08-.13.04-.12.05-.22.09-.12.05-.11.06-.21.11-.11.06-.11.09-.2.16-.11.09-.09.11-.16.21-.09.11-.05.12-.1.23-.05.12-.03.13-.05.25-.03.13-.01.13-.01.25-.01.13v.43l.02.11.04.19.02.1.03.11.05.2.03.11.07.12.12.22.07.12.09.1.18.19.09.1.12.07.23.14.12.08.13.04.25.08.13.04.14.01.27.02.14.01.11-.01.11-.01.1-.01.09-.01.12-.02.12-.02.08-.01.15-.02.08-.01.09-.01.16-.02.09-.01v.01l.11-.01.21-.02.11-.01.13-.01.24-.02.13-.01h.14l.26-.01.14-.01h.16l.3-.01h6.6l.34.01.4.01.34.01h.28l.32.01.38.01h.59l.3.01h.36l.3.01h.25l.28.01.34.01.28.01h.28l.36.01.36.01h.32l.33.01.33.01h.29l.31.01.31.01h.27l.28.01.28.01.13.01h.11l.25.01.25.01.11.01h.1l.23.01.22.01h.25l.28.01h1.77l.1-.01.19-.02.1-.01.11-.02.2-.04.11-.02.11-.04.2-.07.11-.04.11-.06.2-.12.11-.06.09-.09.18-.18.09-.09.03-.04.01.01.12.09.11.06.21.12.12.06.13.05.24.09.13.05.13.03.25.06.13.03.14.03.27.05.14.03.16.02.3.03.16.02.11.01.23.02.23.01.1.01.11.01.24.01.24.01h.23l.26.01.26.01h16.64l.14-.01.26-.01.14-.01.14-.03.26-.05.14-.03.13-.05.24-.09.13-.05.12-.08.23-.14.12-.07.1-.11.19-.19.11-.1.07-.11.14-.22.07-.11.05-.14.09-.26.05-.14.01-.15.02-.27.01-.15-.01-.14-.02-.25-.01-.14-.03-.14-.06-.25-.03-.14-.07-.12-.12-.23-.07-.13-.08-.1-.15-.19-.08-.1-.11-.08-.2-.15-.11-.08-.11-.06-.2-.1-.11-.06-.1-.04-.19-.08-.1-.04-.11-.03-.21-.06-.11-.03-.11-.03-.2-.05-.11-.03-.12-.03-.21-.05-.11-.03-.12-.02-.22-.04-.12-.02-.13-.03-.24-.05-.13-.03-.14-.03-.25-.05-.14-.03-.12-.03-.23-.05-.12-.03-.15-.04-.28-.08-.15-.04-.15-.05-.27-.09-.15-.05-.15-.05-.27-.09-.15-.05-.02-.01-.12-.05-.23-.1-.12-.05-.1-.04-.18-.08-.1-.04-.09-.05-.18-.1-.09-.06-.08-.05-.14-.09-.08-.05-.11-.09-.11-.09-.07-.07-.12-.13-.07-.07-.06-.08-.06-.08-.05-.08-.09-.16-.05-.08-.02-.04-.04-.08-.07-.15-.04-.08v-.01l-.03-.08-.05-.15-.03-.08-.01-.03-.02-.09-.04-.16-.02-.09-.02-.15-.04-.28-.02-.15-.02-.14-.03-.25-.02-.14-.01-.11-.01-.24-.01-.24-.01-.11-.01-.11-.01-.25-.01-.26-.01-.11v-2.64l-.01-.58-.01-.91-.02-1.21-.02-1.45-.02-1.67-.02-1.83-.02-1.96-.03-2.04-.03-2.08-.03-2.08-.03-2.04-.02-1.96-.02-1.83-.02-1.67-.02-1.45-.02-1.21-.01-.91-.01-.58v-.54l-.01-.23v-.27l-.01-.3-.01-.16-.01-.15-.01-.27v-.19l.06.08.06.09.06.07.11.13.06.07.14.15.39.45.63.72.84.97 1.04 1.2 1.22 1.41 1.38 1.59 1.51 1.75 1.64 1.88 1.73 2 1.81 2.08 1.87 2.16 1.91 2.2 1.93 2.22 1.93 2.22 1.91 2.2 1.87 2.16 1.81 2.08 1.73 2 1.64 1.88 1.51 1.74 1.38 1.59 1.22 1.4 1.04 1.2.84.98.63.72.39.45.14.15.09.11.16.2.09.11.06.08.12.15.06.08.07.11.13.19.07.1.06.1.11.18.06.1.06.1.11.18.06.1.06.1.12.19.06.1.06.09.11.17.06.1.07.09.12.17.07.09.08.1.15.18.08.1.08.09.16.16.08.09.1.08.18.16.1.08.12.07.22.13.12.07.13.06.25.1.13.05.14.03.26.05.14.03.16.01.3.02.16.01.14-.02.27-.04.14-.02.13-.08.25-.14.13-.08.1-.1.19-.19.11-.1.06-.12.12-.22.06-.12.04-.11.08-.21.04-.12.03-.13.06-.24.03-.13.02-.14.03-.25.02-.14.02-.14.03-.27.02-.14v-.16l.01-.29.01-.16v-.33l.01-.23v-.26l-.01-.28v-.15l-.01-.14-.01-.26v-.14l-.01-.12-.01-.23-.01-.12-.01-.09-.01-.18-.01-.09-.01-.13-.01-.13v-.2l.01-.57.01-.91.02-1.22.02-1.49.02-1.73.03-1.93.03-2.1.03-2.24.03-2.34.03-2.41.03-2.44.03-2.44.03-2.41.03-2.34.03-2.24.03-2.1.03-1.93.02-1.73.02-1.49.02-1.22.01-.91.01-.57v-.38l.01-.39.01-.39v-.18l.01-.16.02-.36.01-.36.01-.17.01-.15.01-.33.01-.34.01-.15.01-.14.02-.31.02-.3.01-.14.01-.13.02-.28.02-.28.01-.13h-.01l.01-.11.03-.23.03-.23.01-.11.01-.1.03-.23.03-.22.02-.1.03-.14.05-.27.03-.14.03-.12.05-.21.03-.11.02-.08.05-.15.03-.08.04-.09.07-.16.04-.09.03-.06.03-.06.02-.03.02-.03.04-.02.03-.02.12-.06.12-.05.07-.02.14-.04.07-.02.1-.02.18-.04.1-.02.1-.02.19-.03.1-.01v.01l.13-.02.24-.04.13-.02.14-.02.25-.04.14-.02.15-.03.27-.05.15-.03.16-.03.3-.06.16-.03.1-.03.22-.06.22-.06.1-.03.1-.04.22-.08.22-.08.1-.04.1-.04.22-.09.22-.1.1-.04.12-.07.21-.12.12-.07.1-.08.19-.16.1-.09.07-.1.14-.18.07-.09.06-.12.11-.22.06-.12.02-.13.03-.24.02-.13.11-.03zm-93.4 26.94l-.13.02-.13.02h-.09l-.17.01-.09.01h-.58l-.55-.01-.82-.02-1.01-.02-1.12-.02-1.16-.02-1.12-.02-1.01-.02-.81-.02-.55-.01h-.2l.02-.13.02-.13.03-.09.05-.16.03-.09.06-.15.11-.28.06-.15.07-.17.2-.48.31-.72.38-.9.43-1.02.46-1.08.46-1.08.43-1.02.38-.9.31-.72.2-.48.07-.17.04-.11.1-.23.1-.23.04-.1.07-.15.12-.27.07-.15.06-.13.12-.23.06-.12.06-.11.11-.2.06-.11.04-.06.07-.11.04-.06.02.05h.01l.03.1.06.19.03.1.06.19.18.52.27.79.35 1 .4 1.15.43 1.25.44 1.28.43 1.24.4 1.16.34 1 .27.79.18.52.07.19.04.1.07.19.04.1.03.08.05.15.03.08.03.09.03.08h.01zm121.77-12.98l.03 1.48.16 1.53.22 1.53.2 1.48 2.38.69 2.45.38 2.5.13h.95l3.1-.14 3.11-.24 3.09-.22 3.04-.08 2.74.16 1.09 1.18 1.22 1.12 1.33 1 1.43.82 1.52.57 1.59.26.19 1.78.52 1.66.75 1.57.89 1.52.94 1.5.89 1.52.76 1.57.53 1.67-.12.17-.34.47-.53.76-.7 1-.86 1.21-.98 1.39-1.08 1.54-1.16 1.65-1.22 1.73-1.25 1.78-1.27 1.8-1.26 1.78-1.22 1.74-1.16 1.65-1.08 1.54-.98 1.39-.85 1.21-.7 1-.53.75-.34.48-.12.17-.39 1.25-.64 1.02-.85.82-1.01.66-1.14.53-1.23.43-1.28.37-1.28.34-1.25.34-1.18.38-.34 1.19-.02 1.13.24 1.08.44 1.03.58 1 .68.97.71.96.69.95.62.95.49.96 1.65.84 1.67.54 1.67.28 1.68.07 2.41-.2 2.39-.43 2.37-.54 2.32-.52 2.27-.37 1.5.45 1.43.17h.56l1.87-.24 1.79-.51 1.74-.65 1.72-.64 1.74-.49 1.78-.21 1.04.06.15-.15.42-.42.66-.66.86-.87 1.03-1.04 1.17-1.18 1.27-1.28 1.34-1.35 1.37-1.39 1.37-1.39 1.34-1.35 1.27-1.28 1.17-1.18 1.03-1.04.86-.87.66-.66.42-.42.15-.15 1.31 1.95 1.57 1.78 1.77 1.66 1.88 1.59 1.93 1.56 1.91 1.57 1.81 1.62 1.64 1.72-.18.07-.46.17-.65.25-.75.28-.75.28-.66.25-.46.17-.18.06-.58.68-.25.6.02.55.23.5.39.46.49.44.53.42.51.42.43.43.29.45.99-.09 1.31.15 1.24.38 1.18.49 1.15.49 1.14.4 1.16.19h.42l.64-.09.66-.2.66-.33.75-.11h.53l1.04.04h.24l.58-.07.5-.21.39-.39.25-.63 1.46-.27 1.34-.58 1.24-.84 1.16-1.03 1.12-1.17 1.1-1.25 1.1-1.28 1.13-1.24 1.19-1.14 1.27-.99 1.38-.78.34-1.56.02-1.59-.23-1.6-.43-1.59-.57-1.55-.66-1.49-2.3-2.09-2.41-1.99-2.48-1.94-2.48-1.93-2.43-1.98-2.32-2.07-2.15-2.21-1.92-2.41-1.64-2.65.26-1.77.39-1.82.47-1.85.5-1.87.47-1.88.4-1.88.27-1.86.09-1.84-.15-1.8-.43-1.75-.76-1.69-1.15-1.62 1.15-2 .79-2.09.46-2.16.16-2.2-.12-2.21-.38-2.2-.61-2.16-.82-2.09-1-1.99-1.16-1.86-.73-1.2-.94-1.14-1.06-1.1-1.07-1.08-.99-1.08-.82-1.1-.54-1.14-.18-1.39.13-1.2.4-1.05.63-.92.82-.83.95-.76 1.05-.73 1.11-.73 1.12-.75 1.08-.82 1.01-.9.89-1.02.72-1.17.58.41.25.51.05.59-.05.63-.04.64.07.62 1.69 1.33 1.8 1.04 1.9.75 2 .47 2.11.18 1.37-.04 1.41-.14 1.31-.43 1.06-.67.88-.86.79-.98.78-1.06.85-1.08 1-1.06.43-1.97.12-1.75-.16-1.54-.41-1.35-.63-1.18-.84-1.04-1-.91-1.15-.81-1.27-.72-1.36-.65-1.42-.61-1.46-.58-1.47-.58-1.45-.59-1.41-.63-1.34-.68-1.24-.75-1.12-.85-.97-.97-.79-1.1-.88-1.43-.82-1.55-.79-1.63-.78-1.68-.79-1.69-.83-1.67-.89-1.61-.97-1.52-1.07-1.39-1.2-1.22-1.35-1.02-1.52-.78-1.71-.51-1.93-.2-.89.81-.86.47-.84.18h-.31l-1.14-.23-1.14-.51-1.15-.65-1.19-.65-1.24-.51-1.3-.23h-.37l-.76.1-.79.26-.81.45-.55 1.22-.67.89-.78.61-.86.38-.93.2-.99.07h-.38l-1.36-.05-1.37-.05h-.39l-.95.06-.92.17-.86.33-.8.52-.72.76-.63 1.03-.6 1.94-.22 2 .13 2.01.44 1.97.71 1.89.95 1.75 1.16 1.57-1.14 1.73-1.24 1.69-1.35 1.62-1.47 1.49-1.6 1.31-1.74 1.09-1.88.81-2.03.5.2 1.86-.12 1.75-.36 1.65-.51 1.58-.58 1.52-.57 1.49-.48 1.47-.31 1.46 1.4.32 1.01.43.67.53.39.62.15.7-.04.77-.17.82-.25.87-.28.9-.27.92-.2.93-.08.93.09.92.31.9 1 .3 1.09.12 1.13.05 1.11.07 1.05.21.93.44-.07.72-.33.51-.5.37-.58.29-.58.3-.49.36-1.13 1.55-1.31 1.22-1.47.93-1.61.68-1.73.46-1.83.27-1.9.11-1.96-.01-1.99-.11-2-.17-1.99-.19-1.96-.19-1.9-.14-1.83-.07h-.65l-1.86.1-.15.12-.42.33-.64.51-.82.65-.96.76-1.04.84-1.09.87-1.09.87-1.04.83-.96.76-.82.65-.64.51-.42.33-.15.12-.44 1.27-.18 1.4zm2.69 2.11l.08-.52.4-.51.12-.09.3-.21.36-.25.3-.21.12-.09 4.32.39 4.3.05 4.27-.19 4.25-.33 4.23-.37 4.2-.3 4.18-.14 3.23.07 3.22.28 3.21.54-.1.89-.4.81-.61.72-.72.64-.74.55-.67.47h-37.02l-.17-.58-.26-.56-.25-.54-.15-.52zm2.52-5.12l1.17-1.45 1.27-1.14 1.37-.86 1.45-.62 1.53-.41 1.58-.23 1.63-.09h.65l2.62.1 2.66.2 2.66.17 2.61.01 2.53-.28 3.01.64 2.92.86 2.85 1.05 2.82 1.21-.13.13-.29.29-.29.29-.13.13-3.72-.4-3.78-.11-4.99.14-5 .31-4.96.32-4.86.17-3.64-.08-3.54-.35zm8.19 60.84l.7-.9.92-.68 1.08-.53 1.18-.43 1.23-.39 1.22-.41 1.16-.48 1.04-.62.13.09.25.16.13.09-.48 1.08-.73.86-.94.67-1.08.51-1.18.37-1.22.26-1.21.17-1.16.11-1.04.07zm2.39 2.56l3.84-1.62 3.92-1.58 3.84-1.73.09.09.16.16.09.09-1.17 1.39-1.44 1.13-1.64.91-1.81.71-1.92.56-1.98.42-1.99.33v-.86zm1.71 4.43l2.19-.9 2.29-.72 2.32-.66 2.31-.7 2.24-.85 2.12-1.11.41-.01 1.14.23 1.07.48 1.03.57 1.04.5 1.1.27-.67-.04-2.06.14-2.12.43-2.18.61-2.22.68-2.26.64-2.3.49-2.33.23h-.78l-1.18-.09-1.16-.19zm5.63-13.81l2.27-3.24 2.18-3.32 2.13-3.35 2.13-3.35 2.18-3.3 2.27-3.19 2.41-3.05 2.6-2.86 2.83-2.63h.84l.04.34-.04.38-.02.38.08.34.28.26h.84l-2.1 2.91-2.35 2.81-2.53 2.73-2.64 2.69-2.67 2.66v1.2l-1.57 1.56-1.4 1.72-1.31 1.82-1.3 1.84-1.37 1.8-1.52 1.68-1.76 1.5-.13-.09-.25-.16-.12-.08zm4.26 2.05l.93-1.76 1.2-1.58 1.34-1.49 1.39-1.48 1.32-1.54 1.15-1.69 1.43-1.66 1.34-1.79 1.28-1.88 1.28-1.92 1.31-1.91 1.39-1.86 1.51-1.76 1.67-1.62 1.87-1.44 2.11-1.2-.54 1.27-.77 1.12-.92 1.02-1.01.97-1.02.97-.96 1.02-.82 1.12-.62 1.27-.33 1.47 2.31-2.11 2.37-2.08 2.32-2.1 2.17-2.16 1.91-2.28.09.13.17.25.09.13-1.8 1.97-1.86 2.12-1.9 2.21-1.91 2.24-1.92 2.2-1.9 2.1-1.87 1.93-1.82 1.71-1.74 1.42v-.34h-.84l-.81.91-.75 1.06-.7 1.16-.69 1.2-.71 1.18-.75 1.1-.82.97-.92.78-1.05.52-1.2.21-1-.08zm3.58-43.8l.26-.61.37-.39.45-.21.51-.07.98.09 1.03.21 1 .13.35-.01-.29.77-.41.57-.57.41-.78.3-.16-.07-.41-.17-.57-.23-.62-.26-.57-.23-.41-.17-.16-.06zm3.75-40.9l.44-.79.55-.68.55-.57.5-.4.58-.13h.2l.51.07.52.11.51.11.48.05.44-.07.38-.24.29-.46.2-.74.02-.52-.16-.55-.29-.55-.37-.56-.4-.55-.37-.54-.29-.52-.16-.49.02-.45.25-.41.54-.35.88-.29 1.04.28.93.59.86.79.82.88.81.85.83.71-.23.76-.36.8-.44.84-.49.86-.5.86-.46.86-.37.84-.25.81-.09.77.12.72.37.65.66.58 1 .49 1.37.38.19.78.15.88.08.93-.01.93-.13.89-.27.81-.43.67-.61.49-.82.27h-1.05l-1.39-.27-1.55-.11-1.61-.05-1.59-.08-.47-.87-.19-.75.06-.65.26-.56.42-.49.54-.43.61-.39.64-.36.63-.34.58-.35.48-.36.34-.39.16-.43-.06-.49-.33-.57-.63-.66-.99-.76-1.13.11-.97-.22-.85-.48-.76-.67-.74-.83zm-1.7 86.23l2.82-2.98 2.75-3.09 2.73-3.15 2.73-3.16 2.77-3.12 2.85-3.04 2.96-2.92 3.11-2.74 3.29-2.52 3.51-2.24-.15.16-.43.47-.68.75-.91 1-1.1 1.22-1.28 1.41-1.42 1.58-1.54 1.71-1.64 1.81-1.7 1.88-1.74 1.93-1.76 1.95-1.75 1.93-1.7 1.89-1.64 1.81-1.54 1.71-1.43 1.58-1.28 1.41-1.1 1.22-.91 1-.68.75-.43.47-.15.16-.42-.16-.35-.05h-.16l-.35.05-.31.06h-.12l-.27-.07-.28-.23-.3-.44zm3.75-39.7l.68.15.76.13.8.15.79.19.74.27.64.38.49.53.31.7.07.91v.69h-3.23l.21-.71-.09-.6-.31-.52-.44-.47-.49-.44-.46-.43-.33-.44-.14-.49zm1.54-27.78l.7.13.67.22.64.24.61.19.57.07.53-.12.47-.37.41-.71.13-.5-.06-.49-.16-.46-.19-.44-.13-.42v-.39l.22-.37.53-.34.45.4.45.22.45.08h.22l.89-.14.92-.11.6.08.62.32.18.03.46.1.65.13.75.16.75.15.66.14.46.1.17.03-1.11.25-1 .5-.9.68-.84.81-.79.9-.76.92-.76.9-.78.83-.82.7-.89.52-.98.29-1.09.01-1.22-.33-.16-1.05-.39-.95-.48-.92-.43-.95-.22-1.04zm-1.2 70.72l3.48-4.29 3.55-4.28 3.64-4.23 3.74-4.15 3.87-4.02 4.02-3.85 4.19-3.64 4.38-3.4-4.65 5.66-4.85 5.46-4.96 5.32-4.99 5.27-4.93 5.29-4.79 5.38-.28-.04h-.16l-.36.03-.36-.02-.31-.14-.23-.35zm3.42-49.42l.62.02.69-.05.57.07.51.3-.08.74-.37.62-.53.54-.58.5-.49.5-.02-.18-.05-.46-.07-.63-.07-.69-.07-.63-.05-.46-.01-.19zm2.72 51.13l.07-.17.19-.46.27-.66.31-.75.31-.75.27-.66.19-.46.07-.17 3.04-3.01 3.09-3.08 3.05-3.15 2.93-3.24 2.71-3.33 2.4-3.44v4.61h-.84l-2.42 3.34-2.62 3.34-2.76 3.27-2.85 3.14-2.88 2.95-2.85 2.7h-1.68zm.92-105.13l.23-.65.55-.57.99-.91.83-1.04.74-1.11.72-1.11.77-1.04.89-.92 1.07-.72 1.32-.47.12-.46-.12-.37-.27-.32-.34-.29-.33-.29-.24-.32-.82.13-.66-.14-.54-.34-.44-.49-.39-.58-.36-.61-.36-.57-.4-.48-.47-.33-.51-1.18-.15-1.02.16-.86.43-.72.65-.57.82-.43.94-.3 1.02-.17 1.05-.05.37.01.33 2.19.51 2.13.73 2.02.99 1.88 1.28 1.71 1.62 1.49-1.04 1.11-.99 1.25-.97 1.33-.97 1.36-.99 1.34-1.04 1.25-1.11 1.12-1.2.92-1.32.68-1.46.37-.52-.38-.48-.52-.39-.62-.23-.68-.02-.66zm.45 47.86l.48-.08.66.18.6.38.65.36-.3.67-.57.48-.73.29-.78.1v-2.38zm.34 9.38l.53-.38.53-.55.49-.66.41-.72.28-.72.11-.68-.11-.58-.37-.43-.68-.23.77-.08.77-.11.72-.19.63-.34.51-.53.35-.79 1.94-.25 2.02-.08h3.48l1.44-.03 1.4-.1 1.33-.19 1.25-.32 1.15-.48 1.03-.67.9-.9.74-1.15.57-1.44.99-.34.78-.63.62-.82.5-.94.44-.97.42-.91v-.55l-.02-.61-.09-.59-.22-.5-.4-.35-.63-.13-.7-.11h-.3l-.68.17-.46.38-.3.54-.2.65-.15.71-.17.72-.23.68-.36.59-.55.45-.36 1.36-.6 1.08-.81.84-.98.63-1.12.45-1.23.3-1.29.19-1.33.11-1.34.06-1.3.04-1.24.06-.87.43-.93.18h-.35l-.5-.08-.43-.17h.69l1.11-.24 1.29-.13.49-.44.35-.56.17-.68-.44-.48-.43-.45-.33-.46-.14-.53.14-.64.8.35.83.05.8-.2.72-.42.57-.59.37-.72-.06-.19-.16-.48-.21-.61-.2-.61-.16-.47-.06-.19.72.1.67.21.7.18.81.01.68-.53.37-.68.12-.77-.06-.78-.18-.73-.25-.6.22-.02.57.07.56.15.54.12.52-.03.5-.3.57-.41.25-.52.05-.59-.05-.63-.04-.64.07-.62 1.51-.16 1.56-.34 1.56-.53 1.51-.73 1.42-.94 1.27-1.17 1.07-1.41 2.06 2.23 1.84 2.39 1.58 2.55 1.27 2.72.91 2.88-.24 1.13-.29 1.2-.29 1.24-.24 1.25-.13 1.23.04 1.19.27 1.12.55 1.02-1.99 1.55-2.14 1.24-2.27.98-2.37.76-2.46.59-2.52.47-2.56.39-2.59.35-2.6.37-2.58.43-2.54.53-1.31-.27-1.39-.09-2.44.17-2.45.45-2.3.59zm.34 2.9l.42-.09.49.14.4.36.39.44-.03.18-.06.44-.08.57-.08.58-.06.44-.02.18-.07-.18-.2-.46-.27-.63-.29-.69-.27-.63-.19-.46-.08-.19zm.34-46.33l.16-.54.44-.63.77-.73.43-.06h.22l.82.05.83.05h.22l.6-.1.53-.28.44-.52.33-.84-.29-.7-.39-.63-.42-.59-.4-.57-.33-.57-.19-.59v-.64l.26-.71.57-.8.93.2.77.4.66.53.59.6.56.61.58.56.01.99-.23.93-.43.89-.56.85-.64.82-.67.8-.64.79-.55.78-.41.8-.22.81.04.84.34.88.71.92-.51.32-.56.11h-.24l-.57-.05-.51-.04.04-.73-.17-.63-.32-.54-.44-.48-.49-.43-.51-.4-.47-.39-.39-.4-.25-.43-.05-.51zm2.22 13.6l.04-.17.1-.46.14-.65.16-.75.16-.75.14-.65.1-.46.04-.17.54-.29.64-.22.71-.19.74-.19.72-.21.66-.27.56-.35.42-.47.23-.62v-.8l-.27-1 .27-.01.54.14.34.32.21.46.13.53.12.54.17.51.27.41-.28.9-.25.94-.26.93-.29.89-.36.82-.47.7-.6.55-.77.37-.97.15-1.2-.11-.18-.03-.44-.06-.58-.08-.58-.08-.44-.06-.21-.06zm0 14.66l.09-.8-.01-.87-.03-.9.06-.92.24-.91.51-.88.49.09.46.22.45.27.44.23.45.12.46-.07.49-.35.49-.38.25-.53.08-.61-.03-.64-.08-.61-.06-.51.03-.37.17-.16h.1l.32.11.48.29.66.51.61.01.58-.01.53-.11.46-.26.37-.48-.04-.18-.09-.44-.13-.57-.12-.57-.1-.44-.04-.18h2.57l-.12.17-.34.47-.51.72-.66.91-.76 1.07-.84 1.16-.87 1.22-.87 1.22-.84 1.16-.76 1.07-.66.92-.51.71-.33.47-.12.17-.16-.03-.42-.07-.57-.1-.62-.11-.57-.1-.42-.07-.16-.06zm1.53 21.3l.73-.23.52-.43.38-.57.3-.65.28-.68.31-.65.41-.57.56-.43.78-.23 3.13-.34 3.24-.29 3.29-.31 3.3-.39 3.27-.53 3.2-.74 3.07-1.01 2.91-1.34 1.02.83.83 1.04.64 1.2.46 1.32.29 1.4-.12 1.58-.35 1.53-.58 1.43-.79 1.3-1 1.12-1.2.9-1.39.65-1.58.35-3.23.41-3.38.33-3.46.2-3.47.03-3.41-.17-3.3-.43-3.11-.72-.39-.44-.11-.42.1-.41.21-.4.23-.4.17-.39.01-.39-.24-.38-.14-.09-.37-.24-.5-.33-.55-.36-.5-.33-.37-.25-.1-.08zm3.76-61.7l.86-1.34.92-1.42.99-1.42 1.09-1.36 1.19-1.24 1.31-1.04 1.44-.77 1.58-.44-.07-1.31-.36-1.06-.6-.86-.78-.71-.91-.59-.98-.53-1-.51-.97-.53-.88-.6-.75-.71-.55-.87-.31-1.07-.09-1.34.23-1.23.5-1.1.73-.95.92-.78 1.06-.57 1.16-.35 1.22-.1 1.23.16 1.2.46.03 1.43.02 1.49.05 1.52.11 1.53.2 1.51.33 1.46.49 1.39.68 1.29.91 1.17 1.18 1.02 1.47.84-.92.79-.87.97-.84 1.1-.82 1.18-.82 1.21-.83 1.2-.86 1.15-.9 1.05-.95.9-1.03.71-1.12.47-1.22.18-1.34-.15-1.46-.53-.13-.11-.29-.23-.3-.24-.15-.12zm.81 12.86l.19-.51.34-.52.43-.53.45-.53.4-.53.28-.52.54-.38.62-.2.67-.05.96.08.95.14.88.07.58-.07.47-.23.34-.46.17-.74-.02-1.07-.7-.2-.69-.38-.68-.43-.67-.36-.68-.17h-.22l-.43.11-.43.27-.44.48-.27-.22-.09-.34v-.4l.02-.4.83-.54.93-.42 1-.19h.34l.68.13.67.34.67 1.1.81 1.04.89.99.94.96.95.94.91.94.84.96.71.98.55 1.03.34 1.09.09 1.16-.19 1.25-.53 1.36.47.45.58.43.61.43.6.44.52.47.39.51.19.55-.07.62-.39.69-1.61 1.58-1.69 1.21-1.78.88-1.87.58-1.97.32-2.08.09-1.64-.07-1.7-.16-.23-.94.08-.94.3-.95.39-.97.39-.99.27-1.01.96-.09.97-.13.93-.22.85-.35.71-.52.54-.73-.21-.98-.43-.69-.62-.45-.77-.27-.87-.16-.94-.09-.97-.09-.96-.15-.9-.27-.82-.45-.69-.68-.52-.98-.34-.46-.08-.49zm9.43-12.17l1.15-1.58 1.18-1.63 1.22-1.62 1.29-1.54 1.38-1.41 1.48-1.21 1.62-.95 1.77-.63-.27-1.15-.57-.98-.79-.81-.94-.66-1.01-.49-.66.3-.73.24-.74.13-.69-.05-.58-.27-.34-1-.42-1.05-.44-1.08-.4-1.11-.3-1.12-.13-1.12.09-1.11.37-1.08.72-1.05.62-.72.6-.38.6-.1.79.23.78.51.78.65.8.65.82.5.86.2 1.38 1.84 1.25 1.93 1.17 1.99 1.13 2.02 1.12 2.02 1.16 1.99 1.24 1.92 1.36 1.83 1.52 1.7 1.72 1.55 1.96 1.36 2.23 1.14 1.15.81 1.26.57 1.32.42 1.34.36 1.33.4 1.27.54 1.18.76 1.04 1.09-.21 1.6-.17 1.29-.2 1.1-.29 1.03-.47 1.08-.71 1.24-1.44.31-1.51.18-1.52.02-1.48-.17-1.38-.38-1.22-.61-1-.88.32-.88-.01-.81-.26-.77-.45-.74-.55-.72-.58-.73-.54-.74-.43-.78-.23-.82-5.2 5.12-5.2 5.11-2.47-2.36-2.37-2.53-2.36-2.63-2.45-2.66-2.66-2.62zm2.04 88.45l.09-.12.21-.3.25-.35.21-.3.09-.12.15.14.43.39.67.62.88.81 1.06.97 1.19 1.1 1.3 1.19 1.36 1.26 1.4 1.29 1.4 1.29 1.37 1.26 1.3 1.19 1.19 1.09 1.05.97.88.81.67.62.43.4.15.14v2.04l-4.76-3.73-4.55-4-4.33-4.23-4.09-4.43zm-.85-4.09l.96-2.01 1.24-1.86 1.47-1.73 1.64-1.64 1.75-1.58 1.8-1.55 1.79-1.55 1.73-1.59 1.62-1.66-.54 1.73-.84 1.59-1.08 1.47-1.28 1.37-1.42 1.3-1.52 1.26-1.57 1.24-1.57 1.24-1.51 1.27-1.41 1.32-1.26 1.38zm1.7-7.33l.07-1.14.38-.94.63-.78.82-.67.95-.6 1.01-.57 1.01-.58.95-.64.82-.73-.35.89-.63.87-.84.86-.98.84-1.04.82-1.04.81-.96.79-.8.77zm2.56 9.03l.09-.13.22-.32.29-.41.29-.41.22-.31.09-.13 4.85 4.2 4.75 4.34 4.56 4.38 4.27 4.3v1.2l-2.59-1.46-2.52-1.79-2.47-2.05-2.43-2.22-2.41-2.33-2.4-2.35-2.4-2.31-2.41-2.2zm4.44-4.09h.39l1.11.26 1.1.58 1.09.77 1.09.88 1.1.86 1.12.74.34 1.15.68 1.07 1.02 1.03.35.08.48-.2.44-.38.42-.36-1.34-1.34-1.4-1.31-1.39-1.31-1.31-1.34-1.15-1.4-.91-1.48.19.06.48.16.61.21.62.21.48.16.19.06 1.57 1.88 1.71 1.69 1.8 1.54 1.84 1.46 1.84 1.42 1.8 1.44 1.71 1.5 1.57 1.62 1.39 1.79 1.16 2.02-.33.58-.41.36-.48.19-.53.07h-.5l-.76-.04h-.25l-.72.07-.64.29-2.25-2.05-2.35-1.98-2.39-1.95-2.38-1.97-2.31-2.04-2.18-2.17-1.99-2.33-1.72-2.55zm5.29-2.55l1.19-.38 1-.34.95-.36 1.04-.42 1.27-.54 4.13 3.93 4.36 3.85 4.42 3.75 4.32 3.64v1.7l-.16-.12-.45-.33-.68-.5-.86-.63-1-.73-1.07-.79-1.1-.8-1.07-.78-1-.73-.86-.63-.68-.5-.45-.33-.16-.12-.09.09-.16.16-.09.09.14.14.39.38.58.58.74.74.85.85.92.92.94.94.92.92.86.85.74.74.59.59.38.38.14.14h-2.39l-.15-.13-.42-.37-.67-.59-.88-.78-1.06-.93-1.21-1.06-1.32-1.16-1.4-1.23-1.45-1.28-1.46-1.29-1.45-1.28-1.4-1.23-1.32-1.16-1.21-1.06-1.06-.94-.88-.78-.67-.59-.43-.37-.16-.12zm-.34 27.43l1.76-.66 1.85-.4 1.95-.17h.88l.9.04-.74.55-.97.43-1.11.33-1.16.21-1.13.09h-.41l-.75-.06-.62-.14-.45-.22zm7.33 1.71l.48-.8.62-.54.74-.34.81-.22.84-.16.83-.17.78-.26.7-.41.99-1.04.97-1.16.98-1.21 1.02-1.18 1.08-1.06 1.16-.88 1.27-.61 1.41-.26h.5l.52.06-1.22.92-1.15 1.06-1.09 1.16-1.06 1.22-1.05 1.23-1.05 1.19-1.07 1.11-1.12.98-1.18.8-1.26.58-1.36.32h-1.48l-1.61-.33z"/><path class="st0" d="M-3421.82 2513.01l1.06-.94.9-1.19.78-1.32.67-1.32-.11.16-.32.44-.45.64-.54.75-.57.79-.54.75-.45.64-.31.44zm44.35-4.09l.16.13.42.35.64.52.78.64.88.72.9.74.88.71.78.65.63.52.43.34.15.13-.1-.1-.25-.25-.33-.33-.32-.33-.26-.25-.1-.1-.15-.11-.4-.32-.59-.45-.72-.56-.78-.6-.79-.61-.71-.55-.6-.46-.4-.31zm.66 9.39l.07.34.28.29.4.22.44.12h.41l.3-.13v-.34l-.42-.36-.45-.38-.48-.19-.35.07zm3.1 1.69l.27.88.62.88.86.85 1 .81 1.05.72.99.63.84.51-.87-1.24-1.09-1.09-1.22-.99-1.26-.97z"/><path class="st1" d="M-3928.49 2397.1h340.6v105.33h-340.6z"/><g class="st2"><path class="st0" d="M-3924.94 2398.93h8.78c4 0 6.9.57 8.71 1.71 1.81 1.14 2.71 2.95 2.71 5.43 0 1.68-.4 3.07-1.19 4.15-.79 1.08-1.84 1.73-3.15 1.95v.19c1.79.4 3.08 1.14 3.87 2.24.79 1.09 1.19 2.55 1.19 4.36 0 2.57-.93 4.58-2.79 6.02-1.86 1.44-4.38 2.16-7.57 2.16h-10.55v-28.21zm5.98 11.16h3.47c1.62 0 2.79-.25 3.52-.75s1.09-1.33 1.09-2.49c0-1.08-.4-1.85-1.19-2.32-.79-.47-2.04-.7-3.75-.7h-3.14v6.26zm0 4.75v7.35h3.9c1.65 0 2.86-.31 3.65-.95.78-.63 1.18-1.59 1.18-2.89 0-2.34-1.67-3.51-5.01-3.51h-3.72zm47.78 12.28l-1.14-2.93h-.15c-.99 1.25-2.01 2.11-3.06 2.59-1.05.48-2.41.72-4.1.72-2.07 0-3.7-.59-4.89-1.77-1.19-1.18-1.78-2.87-1.78-5.05 0-2.29.8-3.98 2.4-5.06 1.6-1.09 4.01-1.69 7.24-1.8l3.74-.12v-.95c0-2.19-1.12-3.28-3.36-3.28-1.72 0-3.75.52-6.08 1.56l-1.95-3.97c2.48-1.3 5.23-1.95 8.25-1.95 2.89 0 5.11.63 6.65 1.89s2.31 3.18 2.31 5.75v14.37h-4.08zm-1.74-9.99l-2.28.08c-1.71.05-2.98.36-3.82.93-.84.57-1.25 1.43-1.25 2.58 0 1.66.95 2.49 2.85 2.49 1.36 0 2.45-.39 3.27-1.18.82-.78 1.22-1.83 1.22-3.12v-1.78zm31.53-1.73l2.56-3.28 6.04-6.56h6.63l-8.56 9.35 9.08 12.21h-6.79l-6.21-8.74-2.53 2.03v6.71h-5.88v-30.01h5.88v13.39l-.31 4.9h.09zm38.48 0l2.56-3.28 6.04-6.56h6.63l-8.56 9.35 9.08 12.21h-6.79l-6.21-8.74-2.53 2.03v6.71h-5.88v-30.01h5.88v13.39l-.31 4.9h.09zm42.59 12.11c-3.47 0-6.19-.96-8.14-2.87-1.95-1.92-2.93-4.63-2.93-8.14 0-3.61.9-6.41 2.71-8.38 1.81-1.97 4.3-2.96 7.49-2.96 3.05 0 5.42.87 7.12 2.6s2.55 4.13 2.55 7.19v2.85h-13.91c.06 1.67.56 2.98 1.48 3.92s2.22 1.41 3.9 1.41c1.3 0 2.53-.13 3.68-.41s2.37-.7 3.63-1.29v4.55c-1.03.51-2.13.9-3.3 1.15s-2.6.38-4.28.38zm-.83-18.17c-1.25 0-2.22.4-2.93 1.19s-1.11 1.91-1.21 3.37h8.25c-.03-1.45-.41-2.58-1.14-3.37-.74-.8-1.73-1.19-2.97-1.19zm40.42-4.19c.8 0 1.46.06 1.99.17l-.44 5.52c-.48-.13-1.05-.19-1.74-.19-1.88 0-3.34.48-4.39 1.45-1.05.96-1.57 2.31-1.57 4.05v10.97h-5.88v-21.56h4.46l.87 3.62h.29a8.089 8.089 0 0 1 2.71-2.92 6.635 6.635 0 0 1 3.7-1.11zm19.64-5.16c0-1.92 1.07-2.87 3.2-2.87s3.2.96 3.2 2.87c0 .91-.27 1.62-.8 2.13-.53.51-1.33.76-2.4.76-2.14 0-3.2-.97-3.2-2.89zm6.13 27.13h-5.88v-21.56h5.88v21.56zm18.42 9.49c-1.5 0-2.8-.16-3.88-.48v-4.63c.9.24 1.82.37 2.76.37.99 0 1.71-.28 2.17-.83.46-.55.68-1.37.68-2.45v-23.03h5.88v23.9c0 2.29-.66 4.05-1.99 5.29s-3.19 1.86-5.62 1.86zm1.49-36.62c0-1.92 1.07-2.87 3.2-2.87s3.2.96 3.2 2.87c0 .91-.27 1.62-.8 2.13-.53.51-1.33.76-2.4.76-2.14 0-3.2-.97-3.2-2.89z"/></g></svg>